<?xml version="1.0" encoding="UTF-8" standalone="no"?>
<svg
   width="100%"
   height="100%"
   viewBox="0 0 78 10"
   version="1.1"
   xml:space="preserve"
   style="fill-rule:evenodd;clip-rule:evenodd;stroke-linejoin:round;stroke-miterlimit:2;"
   id="svg20"
   sodipodi:docname="icons.svg"
   inkscape:version="1.3 (0e150ed, 2023-07-21)"
   xmlns:inkscape="http://www.inkscape.org/namespaces/inkscape"
   xmlns:sodipodi="http://sodipodi.sourceforge.net/DTD/sodipodi-0.dtd"
   xmlns="http://www.w3.org/2000/svg"
   xmlns:svg="http://www.w3.org/2000/svg"><defs
     id="defs20" /><sodipodi:namedview
     id="namedview20"
     pagecolor="#ffffff"
     bordercolor="#666666"
     borderopacity="1.0"
     inkscape:showpageshadow="2"
     inkscape:pageopacity="0.0"
     inkscape:pagecheckerboard="0"
     inkscape:deskcolor="#d1d1d1"
     inkscape:zoom="7.5769231"
     inkscape:cx="39.06599"
     inkscape:cy="5.0152284"
     inkscape:window-width="1616"
     inkscape:window-height="1067"
     inkscape:window-x="0"
     inkscape:window-y="25"
     inkscape:window-maximized="0"
     inkscape:current-layer="svg20" /><path
     d="m 47.474381,-16.704096 c 0,-1.432 -0.895,-1.981 -1.402,-2.169 l -0.218,0.454 c 0.412,0.171 0.902,0.648 0.961,1.237 -0.99,-0.289 -1.609,0.589 -1.609,1.426 0,0.566 0.283,1.036 0.908,1.036 0.929,0.002 1.36,-0.975 1.36,-1.984 z m -0.602,-0.06 c 0,0.832 -0.236,1.567 -0.695,1.567 -0.27,0 -0.365,-0.241 -0.365,-0.625 0,-0.528 0.349,-1.165 1.06,-0.942 z"
     style="fill:#009fc1"
     id="path1" /><g
     id="g4"
     transform="translate(8.1827411,-21.51269)"><path
       d="M 46.995,3.069 46.806,3.651 47.394,3.843 47.583,3.26 Z"
       style="fill:#009fc1"
       id="path2" /><path
       d="m 48.06,3.416 -0.19,0.582 0.589,0.191 0.189,-0.582 z"
       style="fill:#009fc1"
       id="path3" /><path
       d="m 49.126,3.763 -0.189,0.582 0.588,0.191 0.189,-0.582 z"
       style="fill:#009fc1"
       id="path4" /></g><path
     d="m 1.7348845,-22.90032 c 0.846668,0.466055 1.418501,1.055541 1.7177164,1.755688 0.2770509,0.657585 0.261536,1.240687 -0.046545,1.749304 -0.2704016,0.453287 -0.6826535,0.695892 -1.2411882,0.727813 0.00665,0.425622 -0.1573649,0.921471 -0.494259,1.483291 -0.79125769,1.310914 -1.69111919,1.689717 -2.7018013,1.127897 -0.3923043,-0.221323 -0.6494077,-0.512874 -0.7668772,-0.87678 -0.1640143,-0.529899 -0.017731,-1.172588 0.4344158,-1.932322 0.2637527,-0.440518 0.37900581,-0.768247 0.3368941,-0.985314 -0.017731,-0.125558 -0.1019546,-0.223451 -0.2482378,-0.308575 -0.1529319,-0.08512 -0.2881328,-0.104277 -0.4100353,-0.05959 -0.2149916,0.07661 -0.4543638,0.334113 -0.7225491,0.772503 -0.265969,0.446902 -0.3834385,0.778887 -0.3413268,0.993826 0.019948,0.125558 0.1041712,0.229836 0.2571034,0.31496 l -0.569617,0.953392 c -1.0106819,-0.56182 -1.1237188,-1.498188 -0.3324612,-2.809102 0.4543636,-0.751222 0.9597048,-1.19174 1.5204559,-1.321554 0.3878714,-0.08513 0.7823921,-0.01703 1.17912911,0.20217 l 2.03244619,1.127897 c 0.5518856,0.306447 0.9109438,0.319216 1.0860399,0.04043 0.1396338,-0.234092 0.1108204,-0.529899 -0.084223,-0.898062 -0.2260737,-0.427749 -0.618378,-0.795912 -1.1702635,-1.102359 -0.96857029,-0.534155 -1.99476719,-0.66397 -3.0763744,-0.385188 -1.0838235,0.278783 -1.9038944,0.881037 -2.4602128,1.81102 -0.5585348,0.929983 -0.6937357,1.913168 -0.4033863,2.951685 0.2903495,1.042772 0.9175929,1.828044 1.8861632,2.364327 0.9685703,0.534155 1.99476721,0.663969 3.07415801,0.385187 1.08603979,-0.278782 1.90611089,-0.878908 2.46242909,-1.811019 l 0.2859168,-0.474568 0.9907339,0.546924 -0.2836999,0.476696 c -0.7158996,1.19174 -1.7753426,1.964243 -3.16946339,2.323893 -1.3852549,0.353265 -2.69515201,0.187273 -3.93634051,-0.500105 -1.2389721,-0.687379 -2.0435282,-1.693974 -2.4181012,-3.024041 -0.3745729,-1.338579 -0.2016931,-2.604803 0.5142067,-3.796543 0.7158998,-1.19174 1.7686935,-1.964243 3.1583813,-2.313253 1.38525521,-0.35965 2.70180161,-0.197914 3.9407735,0.489465 z m -0.97743589,3.868899 -0.0199478,-0.0085 -0.6494075,-0.35965 c -0.0664921,0.336241 -0.2194243,0.700148 -0.4543635,1.091719 -0.265969,0.444775 -0.3834388,0.776759 -0.3501924,0.987442 0.0177312,0.125558 0.1019546,0.229836 0.2571031,0.31496 0.1551488,0.08512 0.2903495,0.104277 0.4122519,0.05746 0.2149917,-0.07448 0.4587965,-0.336241 0.7247655,-0.781016 0.261536,-0.440518 0.37900579,-0.768246 0.33689409,-0.983185 -0.0177312,-0.131943 -0.10195489,-0.238348 -0.25710339,-0.319216 z"
     style="fill:#009fc1;stroke-width:1"
     id="path5" /><path
     d="m 63.924863,-9.6817056 c -0.917,-0.146 -1.867,-0.4990004 -2.695,-1.1910004 -0.821,-0.688 -1.338,-1.569 -1.636,-2.441 l -0.355,0.11 c 0.353,1.395 0.792,2.173 1.573,2.827 0.781,0.6550004 1.628,0.9590004 3.064,1.0620004 z"
     style="fill:#009fc1"
     id="path6" /><path
     d="m 23.157797,-21.389223 h -1.031 l 0.518,0.895 -0.537,0.308 -0.511,-0.897 -0.519,0.897 -0.53,-0.308 0.513,-0.895 h -1.033 v -0.612 h 1.033 l -0.513,-0.896 0.53,-0.308 0.519,0.897 0.511,-0.897 0.537,0.308 -0.518,0.896 h 1.031 z"
     style="fill:#009fc1"
     id="path7" /><path
     d="m 47.442985,-9.9819898 -0.368,-0.2980002 c -0.133,0.165 -0.321,0.171 -0.591,-0.046 l -1.364,-1.104 0.211,-0.262 -0.357,-0.29 -1.75,2.1630002 0.357,0.289 0.215,-0.266 2.112,1.71 0.392,-0.485 -2.111,-1.7110002 0.534,-0.659 1.392,1.1280002 c 0.513,0.416 0.863,0.403 1.328,-0.169 z"
     style="fill:#009fc1"
     id="path8" /><path
     d="m 80.481863,-10.552827 -0.606,-0.095 0.49,-3.098 0.606,0.095 z m -0.19,1.2039996 -0.606,-0.096 0.095,-0.6059996 0.606,0.096 z"
     style="fill:#009fc1"
     id="path9" /><path
     d="m 16.310533,-16.185117 v -0.243 h -0.543 l 0.205,-0.849 h -0.397 l -0.211,0.849 h -0.649 l 0.205,-0.849 h -0.397 l -0.211,0.849 h -0.602 v 0.243 h 0.549 l -0.133,0.54 h -0.601 v 0.243 h 0.542 l -0.226,0.919 h 0.397 l 0.226,-0.923 h 0.655 l -0.226,0.923 h 0.397 l 0.226,-0.923 h 0.602 v -0.241 h -0.543 l 0.133,-0.54 h 0.602 z m -1.008,0 -0.133,0.54 h -0.648 l 0.133,-0.54 z"
     style="fill:#009fc1"
     id="path10" /><path
     d="m 23.674066,-12.106523 -0.602,-0.967 0.602,-0.973 -0.319,-0.277 c -0.065,0.106 -0.72,1.142 -0.783,1.25 0.065,0.106 0.72,1.149 0.783,1.25 z m -0.99,0 -0.596,-0.967 0.596,-0.973 -0.313,-0.277 c -0.069,0.106 -0.718,1.142 -0.783,1.25 0.065,0.106 0.714,1.149 0.783,1.25 z"
     style="fill:#009fc1"
     id="path11" /><path
     d="m 54.602558,-9.6069492 h -0.813 v 0.813 h -0.614 v -0.813 h -0.813 v -0.6119998 h 0.813 v -0.815 h 0.614 v 0.815 h 0.813 z"
     style="fill:#009fc1"
     id="path12" /><path
     d="m 8.5320812,-6.4108477 0.564,-0.24 0.431,1.007 1.0679998,0.249 -0.141,0.597 -1.3709998,-0.318 z"
     style="fill:#009fc1"
     id="path13" /><path
     d="m 33.351843,-17.715157 c 0.156,0.308 0.215,0.589 0.177,0.842 -0.019,0.142 -0.091,0.313 -0.215,0.513 -0.087,0.142 -0.133,0.25 -0.14,0.324 -0.014,0.118 0.028,0.272 0.125,0.464 l -0.547,0.279 c -0.163,-0.319 -0.224,-0.604 -0.186,-0.858 0.021,-0.147 0.095,-0.323 0.22,-0.527 0.082,-0.14 0.129,-0.245 0.137,-0.315 0.013,-0.112 -0.027,-0.26 -0.12,-0.441 -0.112,-0.22 -0.247,-0.344 -0.402,-0.372 -0.126,-0.023 -0.299,0.021 -0.521,0.133 -0.22,0.112 -0.359,0.226 -0.414,0.342 -0.07,0.142 -0.048,0.321 0.066,0.543 l -0.552,0.281 c -0.145,-0.288 -0.196,-0.56 -0.152,-0.815 0.062,-0.366 0.319,-0.666 0.773,-0.898 0.456,-0.232 0.849,-0.264 1.181,-0.099 0.236,0.116 0.424,0.317 0.57,0.604 z m 0.504,3.235 -0.547,0.278 -0.278,-0.546 0.547,-0.279 z"
     style="fill:#009fc1"
     id="path14" /><path
     d="m 77.471213,-23.751838 h -2.458 v -0.612 h 2.458 z m 0,1.56 h -2.458 v -0.612 h 2.458 z"
     style="fill:#009fc1"
     id="path15" /><path
     d="m 71.386635,-4.8866599 c -0.41,0.488 -0.875,0.57 -1.392,0.245 l -0.194,0.232 -0.416,-0.348 0.194,-0.233 c -0.403,-0.456 -0.401,-0.927 0.006,-1.412 l 0.416,0.348 c -0.198,0.237 -0.221,0.452 -0.069,0.644 l 0.756,-0.899 c -0.152,-0.247 -0.241,-0.458 -0.264,-0.638 -0.038,-0.26 0.038,-0.5 0.226,-0.724 0.407,-0.486 0.87,-0.57 1.391,-0.251 l 0.177,-0.212 0.416,0.349 -0.181,0.215 c 0.409,0.454 0.412,0.925 0.002,1.413 l -0.416,-0.349 c 0.194,-0.232 0.217,-0.447 0.065,-0.648 l -0.741,0.885 c 0.15,0.249 0.237,0.464 0.26,0.648 0.032,0.262 -0.046,0.507 -0.236,0.735 z m -0.328,-1.871 0.627,-0.747 c -0.219,-0.112 -0.426,-0.051 -0.623,0.179 -0.126,0.152 -0.128,0.342 -0.004,0.568 z m -0.091,1.52 c 0.136,-0.16 0.142,-0.356 0.019,-0.591 l -0.641,0.765 c 0.219,0.12 0.426,0.063 0.622,-0.174 z"
     style="fill:#009fc1"
     id="path16" /><path
     d="m 37.726594,-7.4056396 -0.56,-0.323 0.273,-0.471 0.559,0.323 z m -1.113,-0.642 -0.553,-0.321 0.272,-0.471 0.554,0.321 z m 0.22,3.005 c -0.108,0.188 -0.264,0.304 -0.465,0.348 -0.291,0.061 -0.654,-0.034 -1.091,-0.285 -0.765,-0.441 -1.008,-0.902 -0.729,-1.383 0.108,-0.188 0.264,-0.304 0.465,-0.349 0.291,-0.061 0.656,0.034 1.098,0.29 0.255,0.148 0.443,0.215 0.563,0.205 0.07,-0.005 0.123,-0.043 0.163,-0.112 0.042,-0.072 0.049,-0.14 0.017,-0.203 -0.051,-0.11 -0.203,-0.239 -0.458,-0.386 -0.26,-0.15 -0.45,-0.22 -0.57,-0.207 -0.07,0.004 -0.125,0.042 -0.167,0.116 l -0.554,-0.319 c 0.277,-0.482 0.799,-0.501 1.563,-0.059 0.437,0.251 0.701,0.519 0.794,0.802 0.061,0.197 0.038,0.389 -0.07,0.577 z m -0.556,-0.321 0.184,-0.317 c -0.192,-0.047 -0.401,-0.135 -0.627,-0.266 -0.26,-0.15 -0.448,-0.22 -0.566,-0.211 -0.07,0.004 -0.125,0.042 -0.167,0.116 -0.042,0.072 -0.048,0.139 -0.017,0.203 0.051,0.109 0.205,0.238 0.465,0.388 0.255,0.148 0.443,0.215 0.564,0.205 0.067,-0.006 0.122,-0.044 0.164,-0.118 z"
     style="fill:#009fc1"
     id="path17" /><path
     d="m 67.243904,-15.858853 -0.777,-0.994 0.777,-1.003 -0.336,-0.266 -0.714,0.927 -0.718,-0.921 -0.329,0.26 0.771,1.003 -0.771,0.994 0.329,0.266 0.718,-0.924 0.714,0.924 z"
     style="fill:#009fc1"
     id="path18" /><path
     d="m 77.385,-10.622766 -0.248,-0.428 -1.668,0.27 1.065,-1.315 -0.25,-0.429 -1.296,1.769 0.217,0.378 z"
     style="fill:#009fc1"
     id="path19" /><path
     d="m 11.363574,-21.196508 -0.003,0.311 c -0.002,0.35 -0.112,0.616 -0.329,0.8 -0.148,0.124 -0.386,0.222 -0.716,0.293 -0.243,0.055 -0.3950004,0.108 -0.4580004,0.161 -0.076,0.063 -0.114,0.177 -0.114,0.342 l 0.002,0.306 -0.619,-0.004 0.007,-0.304 c 0.006,-0.353 0.116,-0.621 0.333,-0.803 0.148,-0.124 0.387,-0.221 0.7160004,-0.293 0.239,-0.051 0.391,-0.104 0.454,-0.156 0.076,-0.064 0.114,-0.178 0.114,-0.342 l 0.002,-0.311 z"
     style="fill:#009fc1"
     id="path20" /></svg>
