<svg width="100%" height="100%" viewBox="0 0 16 16" fill="var(--color-primary-500)">
  <path d="m8 0c-4.4156-1.1842e-15 -8 3.5844-8 8 0 4.4156 3.5844 8 8 8 4.4156 0 8-3.5844 8-8 0-4.4156-3.5844-8-8-8zm2.8359 4.0645c0.1789 0 0.35768 0.06862 0.49414 0.20508 0.27292 0.27292 0.27292 0.71537 0 0.98828l0.82422 0.82422c0.24271 0.24271 0.24271 0.6362 0 0.87891-0.24271 0.24271-0.6362 0.24271-0.87891 0l-0.82422-0.82422-0.33008 0.32812 0.54883 0.55078c0.15208 0.15104 0.15208 0.39675 0 0.54883-0.15104 0.15104-0.39674 0.15104-0.54883 0l-0.54883-0.54883-1.7832 1.7832c0.40104 0.8125 0.26393 1.824-0.41211 2.5-0.84896 0.84896-2.2272 0.84896-3.0762 0-0.84791-0.84896-0.84791-2.2272 0-3.0762 0.67604-0.675 1.6875-0.81315 2.5-0.41211l3.541-3.541c0.13646-0.13646 0.31523-0.20508 0.49414-0.20508zm-5.0273 5.0762c-0.14903 0.0071106-0.29639 0.067871-0.41016 0.18164-0.24271 0.24271-0.24271 0.6362 0 0.87891 0.24271 0.24167 0.6362 0.24167 0.87891 0 0.24167-0.24271 0.24167-0.6362 0-0.87891-0.12894-0.12894-0.29985-0.1897-0.46875-0.18164z"/>
</svg>
