<svg width="100%" height="100%" viewBox="0 0 36 34">
  <g fill="none" stroke="var(--color-neutral-50)" stroke-width="0.8px">
    <path d="m 26.563,10.423 c 1.35,1.439 2.714,3.145 4.622,4.641 1.214,0.952 5.184,1.139 3.957,2.736 l -1.664,2.166 c -0.222,0.291 0.766,2.423 0.438,2.617 -2.39,1.403 -5.049,2.229 -7.797,2.578 -2.375,0.303 6.217,1.928 8.063,0.548 1.026,-0.768 -0.842,6.279 -6.834,7.126 -5.637,0.43 -10.006,-2.286 -13.039,-5.875 -0.546,0.317 -0.92,0.546 -1.582,0.546 -1.38,0 -2.646,-1.035 -2.646,-2.413 0,-0.461 0.086,-0.776 0.23,-1.208"/>
    <path d="m 24.319,17.684 c 1.028,0 1.866,-0.978 1.866,-2.176 0,-1.199 -0.838,-2.177 -1.866,-2.177 -1.028,0 -1.867,0.978 -1.867,2.177 0,1.198 0.839,2.176 1.867,2.176 z"/>
  </g>
  <g fill="var(--color-neutral-50)">
    <path d="m 24.854,14.753 c 0.276,0 0.5,-0.21 0.5,-0.47 0,-0.26 -0.225,-0.47 -0.5,-0.47 -0.277,0 -0.501,0.21 -0.501,0.47 -0.002,0.26 0.224,0.47 0.501,0.47 z"/>
    <path d="m 28.402,7.105 c 0,-1.285 -0.804,-1.778 -1.259,-1.947 l -0.195,0.408 c 0.369,0.154 0.809,0.582 0.863,1.111 -0.89,-0.26 -1.446,0.529 -1.446,1.28 0,0.508 0.254,0.93 0.816,0.93 0.834,0.002 1.221,-0.875 1.221,-1.782 z m -0.54,-0.053 c 0,0.747 -0.213,1.407 -0.624,1.407 -0.243,0 -0.328,-0.216 -0.328,-0.561 0,-0.474 0.313,-1.047 0.952,-0.846 z"/>
    <path d="m 21.27,8.182 c 0,-1.285 -0.804,-1.778 -1.259,-1.947 l -0.195,0.408 c 0.37,0.153 0.81,0.582 0.863,1.111 -0.89,-0.26 -1.446,0.529 -1.446,1.279 0,0.509 0.255,0.931 0.816,0.931 0.836,0.002 1.221,-0.876 1.221,-1.782 z M 20.732,8.129 c 0,0.747 -0.213,1.407 -0.624,1.407 -0.243,0 -0.328,-0.216 -0.328,-0.561 -0.002,-0.474 0.311,-1.047 0.952,-0.846 z"/>
    <path d="m 4.186,17.053 -0.17,0.523 0.529,0.171 0.17,-0.523 z"/>
    <path d="m 5.143,17.364 -0.17,0.523 0.528,0.171 0.17,-0.522 z"/>
    <path d="M 6.101,17.676 5.93,18.198 6.459,18.37 6.629,17.847 Z"/>
    <path d="M 8.217,5.835 C 8.56,6.032 8.792,6.281 8.913,6.577 9.025,6.853 9.019,7.1 8.894,7.314 8.784,7.505 8.617,7.608 8.391,7.621 8.393,7.801 8.327,8.01 8.19,8.247 7.87,8.8 7.506,8.96 7.096,8.723 6.937,8.63 6.832,8.506 6.785,8.353 6.718,8.129 6.777,7.858 6.961,7.538 7.067,7.352 7.115,7.213 7.098,7.122 7.09,7.069 7.056,7.028 6.997,6.992 6.935,6.956 6.88,6.948 6.83,6.967 6.743,6.999 6.646,7.107 6.538,7.293 6.43,7.481 6.383,7.621 6.4,7.712 6.407,7.765 6.441,7.809 6.504,7.845 L 6.273,8.247 C 5.863,8.01 5.817,7.615 6.138,7.062 6.322,6.745 6.527,6.559 6.754,6.504 6.912,6.468 7.071,6.497 7.232,6.59 L 8.056,7.066 C 8.279,7.195 8.425,7.2 8.496,7.083 8.553,6.984 8.541,6.859 8.462,6.704 8.37,6.523 8.211,6.368 7.987,6.239 7.595,6.013 7.179,5.958 6.741,6.076 6.301,6.194 5.969,6.448 5.743,6.84 5.518,7.232 5.463,7.648 5.58,8.086 5.698,8.525 5.952,8.857 6.345,9.083 6.737,9.308 7.153,9.363 7.591,9.246 8.031,9.128 8.363,8.874 8.589,8.482 L 8.704,8.281 9.106,8.512 8.991,8.713 C 8.701,9.215 8.272,9.542 7.707,9.693 7.145,9.843 6.614,9.773 6.111,9.483 5.609,9.193 5.283,8.768 5.131,8.207 4.979,7.642 5.049,7.107 5.339,6.605 5.63,6.103 6.056,5.776 6.62,5.629 7.181,5.477 7.714,5.545 8.217,5.835 Z M 7.82,7.468 7.813,7.464 7.549,7.312 C 7.523,7.454 7.46,7.608 7.365,7.773 7.257,7.96 7.21,8.101 7.223,8.19 7.231,8.243 7.265,8.287 7.327,8.323 7.39,8.359 7.445,8.366 7.494,8.347 7.581,8.315 7.68,8.205 7.788,8.017 7.894,7.832 7.942,7.693 7.925,7.602 7.917,7.547 7.883,7.502 7.82,7.468 Z"/>
    <path d="M 18.038,11.471 C 17.215,11.341 16.362,11.024 15.618,10.402 14.88,9.784 14.416,8.994 14.148,8.211 l -0.319,0.098 c 0.317,1.253 0.712,1.951 1.414,2.539 0.701,0.587 1.462,0.86 2.752,0.953 z"/>
    <path d="M 15.975,5.138 H 15.049 L 15.514,5.941 15.032,6.218 14.573,5.412 14.106,6.218 13.63,5.941 14.091,5.138 h -0.927 v -0.55 h 0.927 l -0.461,-0.804 0.476,-0.277 0.467,0.806 0.459,-0.806 0.482,0.277 -0.465,0.804 h 0.926 z"/>
    <path d="m 18.035,7.354 c 0.14,0.277 0.193,0.529 0.159,0.756 C 18.177,8.237 18.112,8.391 18,8.571 17.923,8.698 17.881,8.795 17.875,8.861 17.862,8.967 17.9,9.105 17.987,9.278 l -0.491,0.25 C 17.35,9.242 17.295,8.986 17.329,8.759 17.348,8.626 17.414,8.469 17.526,8.285 17.6,8.159 17.642,8.065 17.65,8.002 17.661,7.902 17.625,7.769 17.541,7.606 17.441,7.409 17.321,7.297 17.181,7.272 17.067,7.251 16.912,7.291 16.713,7.392 16.515,7.492 16.39,7.595 16.341,7.699 16.278,7.826 16.297,7.987 16.4,8.186 L 15.904,8.438 C 15.774,8.18 15.728,7.936 15.768,7.706 c 0.055,-0.328 0.286,-0.597 0.694,-0.805 0.41,-0.209 0.763,-0.237 1.06,-0.089 0.211,0.104 0.382,0.284 0.513,0.542 z m 0.453,2.906 -0.491,0.25 -0.251,-0.491 0.492,-0.25 z"/>
    <path d="m 12.629,16.613 h -2.208 v -0.55 h 2.208 z m 0,1.403 h -2.208 v -0.55 h 2.208 z"/>
    <path d="M 8.795,23.432 C 8.427,23.87 8.01,23.944 7.545,23.652 L 7.371,23.86 6.997,23.548 7.172,23.339 C 6.809,22.93 6.811,22.507 7.177,22.071 l 0.374,0.313 c -0.178,0.212 -0.199,0.405 -0.063,0.578 l 0.68,-0.808 C 8.031,21.932 7.951,21.743 7.93,21.582 7.896,21.349 7.965,21.132 8.133,20.931 8.499,20.495 8.915,20.42 9.383,20.706 l 0.16,-0.19 0.373,0.313 -0.163,0.193 c 0.368,0.408 0.37,0.831 0.002,1.269 L 9.381,21.978 C 9.556,21.769 9.577,21.576 9.44,21.396 L 8.773,22.19 c 0.134,0.224 0.212,0.417 0.233,0.582 0.03,0.237 -0.04,0.457 -0.211,0.66 z M 8.501,21.754 9.065,21.083 c -0.198,-0.1 -0.383,-0.045 -0.56,0.161 -0.114,0.137 -0.114,0.307 -0.004,0.51 z m -0.079,1.365 c 0.121,-0.144 0.127,-0.32 0.017,-0.531 l -0.577,0.687 c 0.196,0.108 0.381,0.055 0.56,-0.156 z"/>
    <path d="m 4.122,20.77 -0.33,-0.267 c -0.12,0.148 -0.289,0.154 -0.531,-0.042 l -1.226,-0.991 0.19,-0.235 -0.321,-0.26 -1.572,1.941 0.32,0.26 0.194,-0.239 1.897,1.536 0.353,-0.436 -1.897,-1.536 0.48,-0.591 1.25,1.012 c 0.461,0.373 0.775,0.362 1.193,-0.152 z"/>
    <path d="m 8.663,13.585 -0.503,-0.29 0.245,-0.423 0.502,0.29 z m -1,-0.576 -0.497,-0.288 0.245,-0.423 0.497,0.288 z m 0.195,2.698 C 7.762,15.875 7.621,15.98 7.441,16.019 7.179,16.074 6.853,15.989 6.46,15.764 5.774,15.367 5.556,14.954 5.806,14.522 c 0.097,-0.169 0.237,-0.273 0.417,-0.313 0.262,-0.055 0.59,0.03 0.987,0.26 0.229,0.132 0.398,0.193 0.506,0.184 0.063,-0.004 0.11,-0.038 0.146,-0.101 C 7.9,14.488 7.906,14.427 7.877,14.37 7.832,14.272 7.695,14.156 7.466,14.023 7.232,13.889 7.062,13.826 6.954,13.837 6.891,13.841 6.842,13.875 6.804,13.942 L 6.307,13.653 C 6.555,13.221 7.024,13.204 7.71,13.6 c 0.393,0.226 0.63,0.467 0.714,0.721 0.055,0.176 0.034,0.349 -0.063,0.517 z M 7.361,15.418 7.526,15.134 C 7.354,15.092 7.166,15.013 6.963,14.895 6.73,14.761 6.561,14.698 6.455,14.706 6.392,14.709 6.343,14.744 6.305,14.81 6.267,14.874 6.261,14.935 6.29,14.992 c 0.045,0.099 0.184,0.214 0.417,0.349 0.23,0.132 0.398,0.193 0.506,0.184 0.061,-0.006 0.11,-0.04 0.148,-0.107 z"/>
    <path d="m 5.267,22.837 -0.544,-0.086 0.44,-2.781 0.544,0.086 z m -0.17,1.08 -0.545,-0.085 0.086,-0.544 0.544,0.085 z"/>
    <path d="m 12.394,14.272 -0.698,-0.895 0.698,-0.899 -0.302,-0.239 -0.639,0.831 -0.647,-0.825 -0.296,0.233 0.692,0.899 -0.692,0.895 0.296,0.236 0.647,-0.83 0.639,0.83 z"/>
    <path d="M 3.813,13.054 V 12.836 H 3.325 L 3.509,12.074 H 3.152 L 2.963,12.836 H 2.38 L 2.564,12.074 H 2.208 l -0.19,0.762 h -0.54 v 0.218 h 0.493 l -0.12,0.486 h -0.54 v 0.218 H 1.798 L 1.595,14.582 H 1.952 L 2.155,13.754 H 2.743 L 2.54,14.582 H 2.896 L 3.099,13.754 H 3.64 V 13.538 H 3.152 l 0.12,-0.485 h 0.541 z m -0.905,0 -0.12,0.486 H 2.206 l 0.119,-0.486 z"/>
    <path d="M 18.71,2.785 18.488,2.4 16.989,2.641 17.945,1.462 17.724,1.077 l -1.167,1.588 0.195,0.34 z"/>
    <path d="M 12.856,8.186 12.316,7.318 12.856,6.444 12.57,6.195 c -0.059,0.095 -0.647,1.026 -0.704,1.123 0.059,0.095 0.647,1.031 0.704,1.122 z m -0.889,0 -0.535,-0.868 0.535,-0.874 -0.281,-0.249 c -0.063,0.095 -0.645,1.026 -0.704,1.123 0.059,0.095 0.641,1.031 0.704,1.122 z"/>
    <path d="m 13.073,10.186 -0.181,0.212 c -0.204,0.241 -0.434,0.361 -0.688,0.361 -0.173,0 -0.393,-0.071 -0.662,-0.213 -0.197,-0.102 -0.334,-0.153 -0.408,-0.153 -0.089,0 -0.18,0.057 -0.275,0.168 l -0.174,0.213 -0.423,-0.36 0.18,-0.207 c 0.208,-0.241 0.44,-0.36 0.694,-0.36 0.173,0 0.393,0.07 0.662,0.212 0.193,0.102 0.328,0.154 0.402,0.154 0.089,0 0.18,-0.057 0.275,-0.169 l 0.18,-0.212 z"/>
    <path d="m 2.012,17.654 h -0.73 v 0.729 H 0.73 V 17.654 H 0 v -0.55 h 0.73 v -0.732 h 0.552 v 0.732 h 0.73 z"/>
    <path d="M 2.613,8.76 2.29,9.205 5.905,11.83 6.229,11.385 Z"/>
    <path d="M 6.113,19.009 6.62,18.793 7.007,19.697 7.966,19.921 7.839,20.457 6.608,20.171 Z"/>
    <path d="m 10.64,14.533 -0.17,0.522 0.528,0.172 0.17,-0.523 z"/>
    <path d="m 11.596,14.844 -0.17,0.523 0.529,0.171 0.17,-0.523 z"/>
    <path d="m 12.553,15.153 -0.17,0.523 0.529,0.172 0.17,-0.523 z"/>
    <path d="M 22.429,2.618 H 21.504 L 21.97,3.422 21.489,3.697 21.028,2.893 20.561,3.697 20.085,3.422 20.546,2.618 H 19.618 V 2.066 h 0.928 l -0.461,-0.803 0.476,-0.275 0.467,0.804 0.461,-0.804 0.481,0.275 -0.466,0.803 h 0.925 z"/>
    <path d="m 24.489,4.834 c 0.141,0.277 0.194,0.529 0.16,0.757 -0.017,0.127 -0.082,0.28 -0.194,0.46 -0.078,0.127 -0.119,0.224 -0.125,0.29 -0.013,0.107 0.025,0.245 0.112,0.417 L 23.951,7.009 C 23.805,6.722 23.75,6.467 23.784,6.239 23.803,6.106 23.869,5.949 23.981,5.765 24.055,5.64 24.097,5.545 24.104,5.483 24.116,5.382 24.08,5.249 23.996,5.086 23.896,4.889 23.774,4.777 23.636,4.753 23.522,4.732 23.366,4.772 23.167,4.872 22.97,4.973 22.845,5.075 22.795,5.179 22.733,5.306 22.752,5.467 22.854,5.667 L 22.359,5.919 C 22.228,5.661 22.183,5.416 22.223,5.187 22.278,4.859 22.509,4.59 22.917,4.381 c 0.41,-0.208 0.762,-0.237 1.06,-0.089 0.213,0.104 0.381,0.284 0.512,0.542 z m 0.454,2.905 -0.492,0.25 -0.25,-0.491 0.491,-0.25 z"/>
    <path d="m 19.083,14.093 h -2.207 v -0.549 h 2.207 z m 0,1.401 h -2.207 v -0.549 h 2.207 z"/>
    <path d="m 14.905,18.7 c -0.368,0.438 -0.785,0.512 -1.25,0.22 l -0.175,0.209 -0.373,-0.313 0.174,-0.209 c -0.362,-0.409 -0.36,-0.832 0.006,-1.268 l 0.374,0.313 c -0.179,0.212 -0.2,0.405 -0.063,0.578 l 0.679,-0.808 C 14.14,17.201 14.061,17.011 14.04,16.85 c -0.034,-0.233 0.034,-0.45 0.203,-0.65 0.366,-0.436 0.781,-0.512 1.25,-0.226 l 0.159,-0.19 0.374,0.313 -0.163,0.194 c 0.368,0.407 0.37,0.83 0.002,1.268 l -0.374,-0.313 c 0.175,-0.209 0.195,-0.402 0.059,-0.582 l -0.666,0.794 c 0.135,0.224 0.212,0.417 0.233,0.582 0.029,0.235 -0.041,0.455 -0.212,0.66 z m -0.294,-1.68 0.563,-0.671 c -0.197,-0.1 -0.383,-0.045 -0.559,0.161 -0.114,0.137 -0.116,0.308 -0.004,0.51 z m -0.082,1.365 c 0.122,-0.144 0.127,-0.32 0.017,-0.53 l -0.576,0.686 c 0.197,0.108 0.383,0.057 0.559,-0.156 z"/>
    <path d="m 10.576,18.251 -0.33,-0.268 C 10.127,18.131 9.958,18.137 9.715,17.942 L 8.49,16.95 l 0.19,-0.235 -0.321,-0.26 -1.572,1.942 0.32,0.259 0.194,-0.238 1.896,1.535 0.353,-0.436 -1.896,-1.535 0.479,-0.592 1.25,1.012 c 0.461,0.372 0.776,0.363 1.193,-0.151 z"/>
    <path d="m 15.793,12.163 -0.503,-0.29 0.245,-0.422 0.502,0.29 z m -1,-0.576 -0.497,-0.288 0.245,-0.423 0.497,0.288 z m 0.197,2.698 c -0.096,0.169 -0.237,0.273 -0.417,0.313 -0.262,0.055 -0.588,-0.031 -0.981,-0.256 -0.686,-0.397 -0.904,-0.81 -0.654,-1.242 0.097,-0.169 0.237,-0.273 0.417,-0.313 0.262,-0.055 0.59,0.03 0.987,0.26 0.229,0.133 0.398,0.193 0.506,0.184 0.063,-0.004 0.11,-0.038 0.146,-0.101 0.038,-0.064 0.044,-0.125 0.015,-0.182 -0.045,-0.098 -0.182,-0.214 -0.411,-0.347 -0.234,-0.134 -0.404,-0.197 -0.513,-0.185 -0.062,0.003 -0.111,0.037 -0.149,0.104 l -0.497,-0.286 c 0.248,-0.433 0.717,-0.45 1.403,-0.054 0.393,0.226 0.63,0.467 0.713,0.721 0.055,0.176 0.035,0.349 -0.062,0.517 z m -0.499,-0.288 0.165,-0.285 c -0.172,-0.041 -0.36,-0.121 -0.563,-0.239 -0.233,-0.134 -0.402,-0.197 -0.508,-0.189 -0.063,0.004 -0.112,0.038 -0.15,0.104 -0.038,0.065 -0.044,0.125 -0.015,0.182 0.045,0.099 0.184,0.214 0.417,0.349 0.23,0.133 0.398,0.193 0.506,0.184 0.061,-0.006 0.11,-0.04 0.148,-0.106 z"/>
    <path d="m 11.724,20.315 -0.544,-0.085 0.44,-2.781 0.544,0.085 z m -0.173,1.083 -0.544,-0.086 0.085,-0.544 0.545,0.086 z"/>
    <path d="m 19.964,12.865 -0.698,-0.893 0.698,-0.901 -0.302,-0.238 -0.641,0.832 -0.645,-0.827 -0.296,0.233 0.692,0.901 -0.692,0.893 0.296,0.239 0.645,-0.831 0.641,0.831 z"/>
    <path d="M 10.267,10.535 V 10.317 H 9.778 L 9.962,9.555 H 9.607 L 9.418,10.317 H 8.835 L 9.019,9.555 H 8.663 l -0.19,0.762 H 7.932 v 0.218 H 8.425 L 8.306,11.02 H 7.765 v 0.218 H 8.253 L 8.05,12.063 h 0.357 l 0.202,-0.829 h 0.588 l -0.202,0.829 h 0.356 l 0.203,-0.829 h 0.541 V 11.018 H 9.607 l 0.12,-0.485 h 0.54 z m -0.904,0 -0.12,0.485 H 8.661 L 8.78,10.535 Z"/>
    <path d="M 26.5,1.708 26.278,1.323 24.78,1.566 25.736,0.385 25.512,0 24.347,1.589 24.542,1.928 Z"/>
    <path d="m 19.311,5.665 -0.54,-0.869 0.54,-0.874 -0.286,-0.248 c -0.059,0.095 -0.647,1.026 -0.704,1.122 0.059,0.095 0.647,1.032 0.704,1.123 z m -0.889,0 -0.535,-0.869 0.535,-0.874 -0.281,-0.248 c -0.063,0.095 -0.645,1.026 -0.704,1.122 0.059,0.095 0.641,1.032 0.704,1.123 z"/>
    <path d="m 15.857,0.535 -0.002,0.278 c -0.002,0.315 -0.1,0.554 -0.296,0.719 -0.132,0.112 -0.347,0.199 -0.643,0.263 -0.218,0.05 -0.354,0.097 -0.411,0.144 -0.069,0.057 -0.103,0.16 -0.103,0.308 l 0.002,0.274 -0.556,-0.003 0.006,-0.273 c 0.006,-0.317 0.104,-0.558 0.3,-0.721 0.133,-0.112 0.347,-0.199 0.643,-0.263 0.214,-0.046 0.351,-0.093 0.408,-0.141 0.068,-0.056 0.102,-0.159 0.102,-0.307 l 0.002,-0.278 z"/>
    <path d="M 5.468,15.572 H 4.736 v 0.73 h -0.55 v -0.73 h -0.73 v -0.55 h 0.73 v -0.73 h 0.55 v 0.73 h 0.732 z"/>
  </g>
</svg>
