<svg width="72" height="35" viewBox="0 0 72 35">
   <g fill="#000000">
      <path d="m 14.772256,10.397765 c 0.282073,-0.7138176 0.77874,-1.5924806 2.6208,-1.5784806 1.84206,0.014 2.26598,2.2224806 2.26598,2.2224806 l 1.472006,13.4925 c 0,0 0.07568,1.466533 -1.352556,1.6695 -1.428231,0.202967 -1.67577,-1.3475 -1.67577,-1.3475 v 0 l -1.24717,-11.438 -4.44412,11.193 c 0,0 -0.364361,0.9625 -1.35604,0.9625 -0.991678,0 -1.3560405,-0.9625 -1.3560405,-0.9625 l -4.44412,-11.193 -1.24717,11.438 v 0 c 0,0 -0.247539,1.550467 -1.67577,1.3475 -1.42823598,-0.202967 -1.35255598,-1.6695 -1.35255598,-1.6695 l 1.47200598,-13.4925 c 0,0 0.42392,-2.2084796 2.26598,-2.2224796 1.84206,-0.014 2.338727,0.864661 2.6208,1.5784796 l 3.7168705,9.5305 z"/>
      <path d="m 23.595113,9.1078654 c -1.170859,0 -1.267579,1.2636716 -1.267579,1.2636716 v 14.386719 c 1e-6,1.141608 1.289063,1.203124 1.289063,1.203124 h 7.587891 c 2.217993,0 4.921875,-1.660808 4.921875,-4.595703 0,-2.934895 -2.728516,-4.109375 -2.728516,-4.109375 1.746194,-1.542052 1.271484,-4.224609 1.271484,-4.224609 C 33.634116,8.9883564 29.915425,9.1078654 29.915425,9.1078654 Z m 6.205078,2.4081966 c 0.572699,0.01031 2.291015,0.344444 2.291015,2.283203 0,1.938759 -1.947265,2.285156 -1.947265,2.285156 h -2.410157 c 1e-6,0 -1.330078,0.06298 -1.330078,1.316407 0,1.253428 1.330078,1.326172 1.330078,1.326172 l 3.365235,0.0078 c 0,0 2.369141,0.107342 2.369141,2.357422 -10e-7,2.25008 -2.369141,2.359375 -2.369141,2.359375 H 24.944722 V 11.516068 Z" />
   </g>
   <g fill="#d6040f">
      <path d="m 3.8050151,32.1195 c -1.1641,0 -1.1733,-1.169 -1.1733,-1.169 v -1.407 c 0,0 -0.21323,-0.905133 -1.219455,-0.905133 -1.00622491,0 -1.26784491,0.66176 -1.26784491,0.905133 v 1.407 c 0,0 -0.159307,4.0495 3.13369991,4.0495 H 33.8663 C 37.159307,35 37,30.9505 37,30.9505 v -1.407 c 0,-0.243373 -0.26162,-0.905133 -1.267845,-0.905133 -1.006225,0 -1.219455,0.905133 -1.219455,0.905133 v 1.407 c 0,0 -0.0092,1.169 -1.1733,1.169 z"/>
      <path d="m 30.64029,0 c 3.23324,0 3.23324,2.9130049 3.23324,4.0495 v 0.825581 c 0,0.2505344 -0.13442,1.3444365 -1.367378,1.3444365 -1.342184,0 -1.367654,-1.3444369 -1.367654,-1.3444369 V 4.0495 c 0,0 0,-1.1696179 -1.025108,-1.169 -7.742262,0.010254 -15.484518,0.00467 -23.2267801,0 -1.025108,-6.179e-4 -1.025108,1.169 -1.025108,1.169 v 0.8255806 c 0,0 -0.025469,1.3444369 -1.3676543,1.3444369 -1.2329576,0 -1.3673777,-1.0939021 -1.3673777,-1.3444365 V 4.0495 c 0,-1.1364951 0,-4.0495 3.23324,-4.0495 z"/>
      <path d="m 47.15516,21.973582 c -0.128355,0.344301 -0.41915,0.973806 -1.281096,0.973806 -0.861946,0 -1.0893,-0.9651 -1.0893,-0.9651 0,0 -2.017462,-8.397607 -2.1634,-9.1663 -0.145938,-0.76869 0.7178,-0.8451 0.7178,-0.8451 0,0 0.707983,-0.147656 0.8684,0.6251 0.160417,0.772756 1.807,8.0661 1.807,8.0661 l 1.8372,-7.351 c 0,0 0.181578,-1.095085 0.981433,-1.095085 0.799855,0 0.981433,1.095085 0.981433,1.095085 l 1.8372,7.351 c 0,0 1.646583,-7.293344 1.807,-8.0661 0.160417,-0.772756 0.8684,-0.6251 0.8684,-0.6251 0,0 0.863738,0.07641 0.7178,0.8451 -0.145938,0.768693 -2.1634,9.1663 -2.1634,9.1663 0,0 -0.227354,0.9651 -1.0893,0.9651 -0.861946,0 -1.152741,-0.629505 -1.281096,-0.973806 -0.128355,-0.3443 -1.67557,-6.102094 -1.67557,-6.102094 0,0 -1.552149,5.757794 -1.680504,6.102094 z"/>
      <path d="m 59.820202,11.951669 c -0.221652,0.01311 -0.692396,0.09419 -0.90625,0.529297 -0.285139,0.580142 -3.433594,9.525391 -3.433594,9.525391 0,0 -0.219343,0.770457 0.550781,0.925781 0.770124,0.155325 1.011719,-0.619141 1.011719,-0.619141 l 0.722656,-2.351562 c 0,0 -0.01696,-0.138672 0.179688,-0.138672 h 3.990234 c 0.19665,0 0.179687,0.138672 0.179687,0.138672 l 0.722657,2.351562 c 0,0 0.243547,0.774466 1.013672,0.619141 0.770124,-0.155324 0.548828,-0.925781 0.548828,-0.925781 0,0 -3.148455,-8.945249 -3.433594,-9.525391 -0.285139,-0.580142 -1.025391,-0.529297 -1.025391,-0.529297 0,0 -0.04721,-0.0044 -0.121093,0 z m 0.121093,1.964844 1.607422,4.349609 H 58.33192 Z" />
      <path d="m 68.969164,22.061888 c 0,0 0.0041,-2.981114 0.005,-3.2105 9.3e-4,-0.22939 0.0904,-0.315 0.0904,-0.315 0,0 2.729447,-5.191014 2.8712,-5.5258 0.141753,-0.334786 0.06901,-0.790899 -0.422082,-1.001238 -0.491094,-0.210339 -0.928218,0.256138 -0.928218,0.256138 l -2.4345,4.9207 -2.4345,-4.9207 c 0,0 -0.437124,-0.466477 -0.928218,-0.256138 -0.491094,0.210339 -0.563835,0.666452 -0.422082,1.001238 0.141753,0.334786 2.8712,5.5258 2.8712,5.5258 0,0 0.08947,0.08561 0.0904,0.315 9.26e-4,0.229386 0.005,3.2105 0.005,3.2105 0,0 -0.02149,0.876987 0.8182,0.8851 0.83969,-0.0081 0.8182,-0.8851 0.8182,-0.8851 z"/>
  </g>
</svg>
