<svg width="158" height="24" viewBox="0 0 158 24">
   <g fill="#000000">
      <path d="m 16.0575,5.31 -5.45,13.59 H 6.97754 L 4.24754,8.03 C 4.1389343,7.4932914 3.84754,7.09 3.44754,6.88 2.40008,6.32694 1.27346,5.93904 0.107544,5.73 l 0.1,-0.42 H 5.96754 c 0.8,0 1.4,0.63 1.51,1.36 l 1.41,7.83 3.63996,-9.19 z"/>
      <path d="m 30.0975,14.4 c 0,-3.55 -4.75,-3.76 -4.75,-5.33 0.1,-0.73 0.7,-1.15 1.41,-1.15 1.11,-0.1 2.33,0.1 3.34,0.63 l 0.6,-2.92 C 29.7044,5.22087 28.6417,5.00697 27.5675,5 c -3.33,0 -5.75,1.88 -5.75,4.5 0,1.98 1.71,3.02 2.92,3.65 1.32,0.62 1.82,1.04 1.72,1.67 0,0.94 -1,1.36 -2.02,1.36 -1.2239,-0.0185 -2.4289,-0.3052 -3.53,-0.84 l -0.6,2.92 c 1.2,0.53 2.52,0.74 3.73,0.74 3.73,0.1 6.06,-1.78 6.06,-4.6 z"/>
      <path d="m 36.457031,5.3105469 c -0.609999,0 -1.219922,0.4188287 -1.419922,1.0488281 l -5.048828,12.53125 h 3.539063 l 0.699218,-1.980469 h 4.351563 l 0.398437,1.980469 h 3.13086 L 39.376953,5.3105469 Z m 0.5,3.6601562 1.009766,5.1191409 h -2.830078 z" />
      <path d="m 20.9075,5.31 -2.83,13.59 h -3.43 l 2.83,-13.58 h 3.43 z"/>
      <path d="m 155.59766,8 v 2.613281 c -0.376,-0.485599 -0.96413,-0.7583216 -1.57813,-0.7324216 -1.401,0 -2.50586,1.0989016 -2.50586,2.6249996 0,1.526099 1.09886,2.623047 2.50586,2.623047 0.614,0.0259 1.20213,-0.246922 1.57813,-0.732422 v 0.605469 h 1.08789 V 8 Z m -1.43946,2.908203 c 0.899,0 1.50586,0.69151 1.50586,1.599609 0,0.9081 -0.60686,1.59961 -1.50586,1.59961 -0.942,0 -1.51562,-0.72281 -1.51562,-1.59961 0,-0.878899 0.57362,-1.599609 1.51562,-1.599609 z" />
      <path d="m 129.42383,9.8808594 0.006,0.00195 c -1.461,0 -2.48828,1.0676016 -2.48828,2.6249996 0,1.588699 1.0675,2.623047 2.5625,2.623047 0.746,0.0262 1.47482,-0.223272 2.04882,-0.701171 L 131.02148,13.625 c -0.415,0.3322 -0.93089,0.515584 -1.46289,0.521484 -0.701,0 -1.33814,-0.32491 -1.49414,-1.224609 h 3.71289 c 0.01,-0.1357 0.0195,-0.269816 0.0195,-0.416016 0,-1.557398 -0.97205,-2.6249996 -2.37305,-2.6249996 z m -0.0156,0.9746096 h 0.002 c 0.70088,8.04e-4 1.14877,0.439102 1.26367,1.21289 h -2.5918 c 0.1149,-0.721672 0.55343,-1.21204 1.32617,-1.21289 z" />
      <path d="m 144.04688,9.875 c -0.0381,-6.954e-4 -0.0749,3.338e-4 -0.11329,0.00195 -1.40099,0 -2.50586,1.098902 -2.50586,2.625 0,1.526099 1.09887,2.623047 2.50586,2.623047 0.614,0.0259 1.20213,-0.246922 1.57813,-0.732422 v 0.605469 h 1.08789 V 10.00195 h -1.08789 v 0.607422 c -0.3525,-0.45525 -0.89295,-0.7239445 -1.46484,-0.7343751 z m 0.0215,1.033203 c 0.9,0 1.50586,0.69151 1.50586,1.599609 0,0.9081 -0.60586,1.59961 -1.50586,1.59961 -0.942,0 -1.51563,-0.72281 -1.51563,-1.59961 0,-0.878899 0.57363,-1.599609 1.51563,-1.599609 z" />
      <path d="m 113.375,9.8808594 c -0.0379,-7.069e-4 -0.0752,3.7e-4 -0.11328,0.00195 -1.401,0 -2.50586,1.0989016 -2.50586,2.6249996 0,1.526099 1.09886,2.623047 2.50586,2.623047 0.614,0.0259 1.20212,-0.246822 1.57812,-0.732421 v 0.605468 h 1.08789 c -0.006,-1.667361 -0.006,-3.334584 -0.006,-5.001953 h -1.08985 v 0.607422 c -0.3525,-0.451312 -0.88865,-0.7179126 -1.45703,-0.7285157 z m 0.0156,1.0273436 c 0.9,0 1.50586,0.69151 1.50586,1.599609 0,0.9081 -0.60586,1.59961 -1.50586,1.59961 -0.94099,0 -1.51562,-0.72071 -1.51562,-1.59961 0,-0.878899 0.57463,-1.599609 1.51562,-1.599609 z" />
      <path d="m 136.415,12.5073 c 0,1.5157 1.057,2.6242 2.666,2.6242 0.653,0.0323 1.294,-0.1807 1.798,-0.5971 l -0.522,-0.8789 c -0.376,0.2864 -0.834,0.4438 -1.307,0.4489 -0.868,0 -1.505,-0.6388 -1.505,-1.5992 0,-0.9603 0.639,-1.5887 1.505,-1.5991 0.473,0.0051 0.931,0.1625 1.307,0.4488 l 0.522,-0.8789 c -0.504,-0.4164 -1.145,-0.62938 -1.798,-0.59709 -1.609,0 -2.666,1.10859 -2.666,2.62419 z"/>
      <path d="m 150.422,9.88309 c -0.541,-0.01575 -1.046,0.26551 -1.318,0.73281 v -0.6075 h -1.077 v 4.9979 h 1.088 v -2.8017 c 0,-0.8351 0.355,-1.286 1.067,-1.286 0.233,-0.0034 0.464,0.0392 0.68,0.1252 l 0.334,-1.025 c -0.248,-0.08892 -0.51,-0.13481 -0.774,-0.13571 z"/>
      <path d="m 121.294,10.405 c -0.615,-0.3658 -1.323,-0.54701 -2.039,-0.52191 -1.265,0 -2.088,0.60751 -2.088,1.59921 0,0.8162 0.605,1.3173 1.724,1.4739 l 0.512,0.073 c 0.595,0.0835 0.879,0.2401 0.879,0.5219 0,0.3863 -0.397,0.6076 -1.14,0.6076 -0.6,0.019 -1.188,-0.1649 -1.67,-0.522 l -0.495,0.8456 c 0.633,0.4428 1.392,0.6704 2.165,0.6492 1.443,0 2.28,-0.6806 2.28,-1.6305 0,-0.8789 -0.66,-1.3382 -1.746,-1.4947 l -0.511,-0.0731 c -0.47,-0.0626 -0.848,-0.1566 -0.848,-0.4906 0,-0.3654 0.355,-0.5846 0.952,-0.5846 0.547,0.0081 1.083,0.1554 1.558,0.428 z"/>
      <path d="M 135.317,9.88309 C 134.777,9.86734 134.272,10.1486 134,10.6159 v -0.6075 h -1.077 v 4.9979 h 1.087 v -2.8017 c 0,-0.8351 0.355,-1.286 1.067,-1.286 0.233,-0.0034 0.464,0.0392 0.681,0.1252 l 0.334,-1.025 c -0.249,-0.08892 -0.511,-0.13481 -0.775,-0.13571 z"/>
      <path d="m 126.042,10.0084 h -1.777 V 8.49269 h -1.098 v 1.51571 h -1.015 v 0.9937 h 1.015 v 2.2776 c 0,1.1608 0.449,1.8518 1.735,1.8518 0.48,0.0016 0.951,-0.1323 1.359,-0.3862 l -0.313,-0.9311 c -0.292,0.1738 -0.623,0.2708 -0.963,0.2818 -0.542,0 -0.722,-0.334 -0.722,-0.835 v -2.2589 h 1.777 z"/>
      <path d="m 109.793,15.0063 v -3.1316 c 0,-1.1816 -0.753,-1.977 -1.966,-1.98743 -0.704,-0.04549 -1.376,0.29523 -1.756,0.88933 -0.346,-0.5766 -0.98,-0.91783 -1.651,-0.88933 -0.585,-0.02822 -1.14,0.25443 -1.462,0.74323 v -0.6263 h -1.087 v 5.0021 h 1.098 v -2.7704 c 0,-0.8685 0.48,-1.3278 1.223,-1.3278 0.743,0 1.088,0.4698 1.088,1.3174 v 2.7808 h 1.092 v -2.7704 c 0,-0.8685 0.501,-1.3278 1.223,-1.3278 0.722,0 1.098,0.4698 1.098,1.3174 v 2.7808 z"/>
   </g>
   <path fill="#b2b2b2" d="M54.1075 19.4617L59.6054 4.2617L60.3423 4.53827L54.8445 19.7383L54.1075 19.4617Z"/>
   <path fill="#eb001b" d="M 81.833,12.0177 C 81.8311,9.71182 82.8896,7.53319 84.7035,6.10952 81.6221,3.68782 77.197,4.04056 74.5381,6.91985 c -2.6589,2.87928 -2.6589,7.31845 0,10.19775 2.6589,2.8793 7.084,3.232 10.1654,0.8103 -1.8145,-1.4241 -2.873,-3.6037 -2.8705,-5.9102 z"/>
   <path fill="#ff5f00" d="m 81.833,12.0177 c -0.0019,-2.30588 1.0566,-4.48451 2.87055,-5.90924 1.81315,1.42382 2.87175,3.60216 2.87175,5.90814 0,2.306 -1.0586,4.4843 -2.87175,5.91025 C 82.889,16.5038 81.8305,14.3242 81.833,12.0177 Z" />
   <path fill="#f79e1b" d="m 96.8644,12.0176 c 0,2.8776 -1.6432,5.5025 -4.2314,6.7599 -2.5882,1.2575 -5.6673,0.9268 -7.9294,-0.8517 1.8131,-1.4249 2.8717,-3.6032 2.8717,-5.9092 0,-2.30598 -1.0586,-4.48432 -2.8717,-5.9092 2.2624,-1.7787 5.3419,-2.10928 7.9303,-0.85129 2.5884,1.25798 4.2312,3.88361 4.2305,6.76149 z"/>
</svg>
