<svg width="446" height="139" viewBox="0 0 118.00416 36.777083">
    <g id="face">
      <path d="m 29.517565,11.582921 c 1.500159,1.599139 3.015875,3.494991 5.136099,5.157473 1.349031,1.057943 5.760609,1.265754 4.397131,3.040475 l -1.849084,2.407043 c -0.246693,0.323384 0.851201,2.692643 0.486718,2.908233 -2.655836,1.559132 -5.610593,2.477053 -8.664249,2.864892 -2.639168,0.336719 6.908508,2.142557 8.959836,0.608984 1.140121,-0.853467 -0.935654,6.977757 -7.594136,7.919015 -6.263996,0.477853 -11.118954,-2.540397 -14.48931,-6.528798 -0.606731,0.352277 -1.02233,0.606762 -1.757964,0.606762 -1.533495,0 -2.94031,-1.15018 -2.94031,-2.681531 0,-0.512302 0.09556,-0.862357 0.255582,-1.342432"
         style="fill:none;stroke:#50596a;stroke-width:0.476688"/>
      <path d="m 27.023968,19.65196 c 1.142343,0 2.073553,-1.086836 2.073553,-2.418155 0,-1.332431 -0.93121,-2.419267 -2.073553,-2.419267 -1.142343,0 -2.074663,1.086836 -2.074663,2.419267 0,1.331319 0.93232,2.418155 2.074663,2.418155 z"
         style="fill:none;stroke:#50596a;stroke-width:0.476688"/>
      <path d="m 27.618476,16.394785 c 0.306699,0 0.555614,-0.23337 0.555614,-0.522304 0,-0.288934 -0.250027,-0.522304 -0.555614,-0.522304 -0.307811,0 -0.556726,0.23337 -0.556726,0.522304 -0.0022,0.288934 0.248915,0.522304 0.556726,0.522304 z"
         style="fill:#50596a;stroke-width:0.238345"/>
      <g id="head">
        <path d="m 31.561115,7.8956785 c 0,-1.428001 -0.893428,-1.9758644 -1.399037,-2.1636715 l -0.21669,0.4534042 c 0.410044,0.1711379 0.898984,0.6467678 0.958991,1.2346374 -0.988994,-0.288934 -1.606837,0.5878697 -1.606837,1.4224446 0,0.5645326 0.282252,1.0334948 0.906763,1.0334948 0.926764,0.00222 1.35681,-0.9723742 1.35681,-1.9803095 z m -0.600064,-0.058898 c 0,0.8301298 -0.236691,1.5635777 -0.693406,1.5635777 -0.270029,0 -0.364483,-0.2400375 -0.364483,-0.6234307 0,-0.526749 0.347814,-1.1635152 1.057889,-0.940147 z"/>
        <path d="m 23.635832,9.0925322 c 0,-1.4280009 -0.893427,-1.9758643 -1.399036,-2.1636715 l -0.21669,0.4534042 c 0.411155,0.1700266 0.900095,0.6467678 0.95899,1.2346374 -0.988993,-0.288934 -1.606836,0.5878697 -1.606836,1.4213337 0,0.565644 0.283363,1.034606 0.906762,1.034606 0.928987,0.0022 1.35681,-0.973486 1.35681,-1.9803098 z m -0.597841,-0.058898 c 0,0.8301298 -0.236691,1.5635778 -0.693406,1.5635778 -0.270029,0 -0.364483,-0.240038 -0.364483,-0.6234308 -0.0022,-0.526749 0.345592,-1.1635152 1.057889,-0.940147 z"/>
        <path d="M 4.6516029,18.95074 4.4626941,19.531942 5.050534,19.721971 5.2394428,19.140769 Z"/>
        <path d="m 5.7150487,19.296349 -0.1889089,0.581202 0.5867287,0.19003 0.1889089,-0.580091 z"/>
        <path d="M 6.7796057,19.64307 6.5895856,20.223161 7.1774255,20.414302 7.3663344,19.8331 Z"/>
        <path fill="red" d="M 9.1309654,6.4843468 C 9.5121168,6.7032699 9.7699219,6.9799798 9.9043805,7.3089201 10.028838,7.6156347 10.022171,7.8901221 9.8832672,8.127937 9.761032,8.3401924 9.5754568,8.4546548 9.3243192,8.4691015 9.3265416,8.6691327 9.2532006,8.9013912 9.1009622,9.1647657 8.7453691,9.7793062 8.3408819,9.9571118 7.8852781,9.6937373 7.7085928,9.5903878 7.5919138,9.4525885 7.5396861,9.2825619 7.4652337,9.0336341 7.5307962,8.732476 7.7352623,8.3768648 7.8530525,8.1701658 7.9063915,8.0156973 7.8875006,7.9145703 7.8786108,7.8556723 7.840829,7.8101096 7.7752665,7.7701033 7.7063703,7.7300971 7.6452528,7.7212068 7.5896913,7.7423212 7.4930144,7.7778823 7.3852253,7.8979011 7.2652126,8.1046 7.1451999,8.3135216 7.0929722,8.4691015 7.111863,8.5702284 7.119643,8.6291264 7.157423,8.678023 7.2274308,8.7180293 L 6.970737,9.1647657 C 6.5151333,8.9013912 6.4640168,8.4624338 6.8207211,7.8478933 7.0251872,7.495616 7.2529891,7.288917 7.505238,7.2277963 7.6808121,7.1877901 7.8574974,7.2200173 8.0364052,7.3233668 L 8.9520576,7.8523384 C 9.1998616,7.9956941 9.362101,8.0012506 9.4409982,7.8712302 9.5043382,7.761213 9.4910035,7.6223024 9.4032164,7.4500533 9.3009834,7.2489108 9.124298,7.0766616 8.8753828,6.9333059 8.4397812,6.6821555 7.9775101,6.6210348 7.490792,6.7521664 7.0018514,6.8832981 6.6329235,7.1655644 6.3817858,7.601188 6.1317594,8.0368117 6.0706418,8.4991062 6.2006556,8.9858489 6.3317806,9.4737029 6.6140326,9.8426495 7.0507455,10.0938 7.4863471,10.343839 7.9486182,10.40496 8.4353363,10.274939 8.9242769,10.143808 9.2932048,9.8615413 9.5443424,9.4259177 L 9.6721337,9.2025494 10.118848,9.4592562 9.9910563,9.6826245 C 9.6688,10.240489 9.192083,10.60388 8.5642388,10.771684 7.9397283,10.938376 7.349666,10.860586 6.790718,10.538314 6.2328812,10.216041 5.8706207,9.7437451 5.7017139,9.1203144 5.5328072,8.4924384 5.6105932,7.8979011 5.9328495,7.3400361 6.256217,6.7821711 6.7296004,6.418781 7.3563333,6.2554221 7.9797326,6.0865068 8.5720174,6.1620742 9.1309654,6.4843468 Z M 8.6898077,8.2990749 8.6820291,8.2946297 8.3886647,8.1257145 C 8.3597728,8.2835169 8.2897654,8.4546548 8.1841986,8.6380168 8.064186,8.845827 8.0119582,9.0025182 8.0264042,9.1014225 c 0.00889,0.058898 0.046672,0.1077946 0.1155678,0.1478009 0.070007,0.040006 0.1311249,0.047785 0.1855751,0.026671 C 8.424224,9.2403331 8.5342356,9.1180918 8.6542483,8.9091702 8.7720386,8.7035826 8.8253775,8.549114 8.8064867,8.447987 8.7975968,8.3868664 8.7598151,8.3368586 8.6898077,8.2990749 Z"/>
        <path d="M 20.044341,12.747548 C 19.1298,12.603081 18.181922,12.250804 17.355168,11.559584 16.535082,10.87281 16.019471,9.9948955 15.721662,9.1247595 L 15.36718,9.2336654 c 0.35226,1.3924396 0.791195,2.1681166 1.571278,2.8215526 0.778971,0.652324 1.624616,0.955704 3.058101,1.059054 z"/>
        <path d="M 17.751877,5.7097813 H 16.722879 L 17.239601,6.602143 16.703988,6.9099689 16.193934,6.0142733 15.674991,6.9099689 15.146046,6.602143 15.658322,5.7097813 H 14.628213 V 5.0985747 h 1.030109 l -0.512276,-0.893473 0.528945,-0.3078259 0.518943,0.8956955 0.510054,-0.8956955 0.535613,0.3078259 -0.516722,0.893473 h 1.028998 z"/>
        <path d="m 20.041008,8.1723884 c 0.155572,0.3078259 0.214467,0.5878697 0.176685,0.8401313 -0.01889,0.1411332 -0.09112,0.3122711 -0.215578,0.5123023 -0.08556,0.1411332 -0.132236,0.2489278 -0.138904,0.3222726 -0.01445,0.1177962 0.02778,0.2711534 0.124458,0.4634054 l -0.545613,0.277822 C 19.279816,10.270494 19.218699,9.9860052 19.25648,9.7337436 19.27759,9.5859427 19.35093,9.411471 19.475392,9.2069946 19.557622,9.0669727 19.604295,8.9625119 19.613185,8.892501 19.625405,8.7813725 19.585405,8.6335716 19.492061,8.4524322 19.380938,8.2335091 19.247591,8.1090452 19.092019,8.0812631 c -0.12668,-0.023337 -0.298921,0.021114 -0.520055,0.1333541 -0.220024,0.1111285 -0.358927,0.2255909 -0.413377,0.3411645 -0.07001,0.1411331 -0.0489,0.32005 0.06556,0.5411957 L 17.67298,9.3770211 C 17.52852,9.0903097 17.477403,8.8191562 17.521853,8.5635607 c 0.06112,-0.3645014 0.317811,-0.6634371 0.771192,-0.8945843 0.455604,-0.2322585 0.847868,-0.2633745 1.177903,-0.098904 0.234469,0.1155736 0.424489,0.3156048 0.57006,0.602316 z m 0.503386,3.2293936 -0.545613,0.277821 -0.278918,-0.545641 0.546724,-0.277821 z"/>
        <path d="m 14.033706,18.461774 h -2.453593 v -0.611206 h 2.453593 z m 0,1.559133 H 11.580113 V 19.4097 h 2.453593 z"/>
        <path d="M 9.7732555,26.039625 C 9.3643234,26.526368 8.9009411,26.608603 8.3842198,26.284108 L 8.190866,26.515255 7.7752665,26.168534 7.9697315,25.936276 C 7.5663555,25.48176 7.568578,25.011687 7.9752877,24.527167 l 0.4155995,0.347832 c -0.1977987,0.235592 -0.2211345,0.45007 -0.070007,0.642323 l 0.755635,-0.897919 C 8.9242769,24.372698 8.8353786,24.162665 8.8120428,23.983749 8.774261,23.724819 8.8509358,23.48367 9.0376222,23.260302 9.4443319,22.775782 9.906603,22.692436 10.426658,23.010263 l 0.177797,-0.211144 0.414488,0.347832 -0.18113,0.214478 c 0.408932,0.453404 0.411154,0.923478 0.0022,1.41022 l -0.4156,-0.347832 c 0.194466,-0.232258 0.217801,-0.446736 0.06556,-0.646767 l -0.7411895,0.88236 c 0.1489046,0.248928 0.2355805,0.463405 0.2589165,0.646767 0.03334,0.263375 -0.044449,0.507858 -0.2344695,0.733448 z M 9.4465543,24.17489 10.073287,23.429217 c -0.220023,-0.111128 -0.4256003,-0.05001 -0.6222878,0.178917 -0.12668,0.152246 -0.12668,0.341165 -0.00444,0.566756 z m -0.087787,1.516903 c 0.1344586,-0.160025 0.141126,-0.355611 0.018891,-0.590092 l -0.6411789,0.763453 c 0.2178008,0.120018 0.423378,0.06112 0.6222879,-0.173361 z"/>
        <path d="M 4.5804843,23.081385 4.2137789,22.784672 C 4.0804314,22.949142 3.8926338,22.95581 3.6237165,22.737998 L 2.2613502,21.636715 2.4724836,21.375563 2.1157793,21.086629 0.3689279,23.243633 0.72452105,23.532567 0.9400994,23.26697 3.0481,24.973903 3.4403637,24.489383 1.3323631,22.78245 1.8657528,22.12568 3.2547886,23.250301 c 0.5122764,0.414509 0.8612021,0.402285 1.3256957,-0.168916 z"/>
        <path d="m 9.6265734,15.096804 -0.558948,-0.322273 0.272251,-0.470073 0.5578367,0.322273 z m -1.1112286,-0.6401 -0.5522807,-0.32005 0.2722511,-0.470074 0.5522806,0.32005 z M 8.7320343,17.45495 C 8.6253564,17.641646 8.4686732,17.758331 8.268652,17.801671 7.9775101,17.862792 7.6152496,17.768333 7.1785368,17.518294 6.4162339,17.077114 6.1739861,16.618153 6.4517933,16.138078 c 0.1077891,-0.187807 0.2633611,-0.303381 0.4633823,-0.347832 0.2911419,-0.06112 0.6556249,0.03334 1.0967826,0.288934 0.2544714,0.146689 0.442269,0.214478 0.5622817,0.204476 0.070007,-0.0044 0.1222351,-0.04223 0.1622394,-0.11224 0.042227,-0.07112 0.048894,-0.13891 0.016668,-0.202253 -0.050005,-0.108906 -0.2022436,-0.237815 -0.456715,-0.385616 -0.2600275,-0.148912 -0.4489363,-0.218923 -0.568949,-0.206699 -0.070007,0.0044 -0.1244576,0.04223 -0.1666843,0.116685 L 7.0085188,15.172371 c 0.2755847,-0.480075 0.7967509,-0.498967 1.5590537,-0.0589 0.4367128,0.251151 0.700074,0.51897 0.7934172,0.801237 0.061118,0.195586 0.037782,0.387838 -0.070007,0.574534 z M 8.1797537,17.133789 8.3631064,16.818184 C 8.1719751,16.77151 7.9630641,16.683719 7.7374847,16.552587 7.4785685,16.403675 7.2907708,16.333664 7.1729806,16.342554 c -0.070007,0.0033 -0.1244576,0.04223 -0.1666843,0.115574 -0.042227,0.07112 -0.048894,0.13891 -0.016668,0.202254 0.050005,0.110017 0.2044661,0.237815 0.4633823,0.387838 0.2555826,0.14669 0.442269,0.214478 0.5622817,0.204477 0.067785,-0.0067 0.1222351,-0.04445 0.1644614,-0.118908 z"/>
        <path d="m 5.852841,25.378411 -0.6045083,-0.09557 0.4889406,-3.090483 0.6045083,0.09557 z M 5.6639322,26.578599 5.0583126,26.484139 5.1538786,25.8796 5.758387,25.97406 Z"/>
        <path d="m 13.772567,15.860257 -0.775637,-0.9946 0.775637,-0.999045 -0.335591,-0.265597 -0.710075,0.923477 -0.718965,-0.91681 -0.328923,0.25893 0.76897,0.999045 -0.76897,0.9946 0.328923,0.262263 0.718965,-0.922367 0.710075,0.922367 z"/>
        <path d="m 4.2371147,14.506712 v -0.24226 H 3.6948351 L 3.8993012,13.417653 H 3.5025925 L 3.2925703,14.264452 H 2.6447241 l 0.204466,-0.846799 H 2.4535927 L 2.2424593,14.264452 H 1.6423959 v 0.24226 H 2.1902316 L 2.0568841,15.046796 H 1.4568207 v 0.24226 H 1.997989 L 1.7724096,16.204755 H 2.1691182 L 2.3946976,15.284611 H 3.0481 L 2.8225206,16.204755 H 3.218118 L 3.4436974,15.284611 H 4.0448721 V 15.044574 H 3.5025925 L 3.63594,14.5056 h 0.6011747 z m -1.0056619,0 -0.1333475,0.540084 h -0.646735 l 0.1322362,-0.540084 z"/>
        <path d="M 20.791087,3.0949282 20.544394,2.6670835 18.878663,2.9349032 19.940997,1.6246984 19.695416,1.1968537 18.398612,2.961574 l 0.21669,0.3778368 z"/>
        <path d="m 14.285955,9.0969774 -0.600064,-0.9645952 0.600064,-0.9712629 -0.317811,-0.27671 c -0.06556,0.1055721 -0.718965,1.1401782 -0.782305,1.2479729 0.06556,0.105572 0.718964,1.1457346 0.782305,1.2468615 z m -0.987882,0 -0.594508,-0.9645952 0.594508,-0.9712629 -0.312256,-0.27671 c -0.07001,0.1055721 -0.716742,1.1401782 -0.782305,1.2479729 0.06556,0.105572 0.712298,1.1457346 0.782305,1.2468615 z"/>
        <path d="m 14.527091,11.319547 -0.201132,0.235592 c -0.226691,0.26782 -0.482273,0.401174 -0.764525,0.401174 -0.192243,0 -0.436713,-0.0789 -0.735633,-0.236703 -0.218913,-0.113352 -0.371151,-0.170027 -0.453382,-0.170027 -0.0989,0 -0.200021,0.06334 -0.305588,0.186696 l -0.193353,0.236703 -0.47005,-0.400062 0.200021,-0.230036 c 0.231136,-0.26782 0.488941,-0.400063 0.771193,-0.400063 0.192242,0 0.436713,0.07779 0.735633,0.235593 0.214467,0.113351 0.364483,0.171138 0.446714,0.171138 0.0989,0 0.200021,-0.06334 0.305588,-0.187807 l 0.200021,-0.235593 z"/>
        <path d="M 2.2357919,19.618622 H 1.4245951 v 0.810126 H 0.81119688 V 19.618622 H 0 v -0.611207 h 0.81119688 v -0.81346 H 1.4245951 v 0.81346 h 0.8111968 z"/>
        <path d="m 2.9036403,9.7348548 -0.3589268,0.4945222 4.0170914,2.917122 0.360038,-0.494522 z"/>
        <path d="M 6.7929404,21.124413 7.3563333,20.884375 7.7863788,21.888977 8.852047,22.137905 8.710921,22.733553 7.3429986,22.415726 Z"/>
        <path d="m 11.823472,16.150302 -0.188909,0.580091 0.586729,0.191141 0.188909,-0.581202 z"/>
        <path d="m 12.885807,16.495912 -0.188909,0.581202 0.58784,0.190029 0.188909,-0.581202 z"/>
        <path d="m 13.949253,16.839299 -0.188909,0.581202 0.58784,0.191141 0.188909,-0.581202 z"/>
        <path d="M 24.923746,2.9093436 H 23.89586 l 0.517832,0.893473 -0.534501,0.3056033 -0.512276,-0.893473 -0.518944,0.893473 -0.528945,-0.3056033 0.512277,-0.893473 h -1.03122 V 2.2959144 h 1.03122 l -0.512277,-0.8923617 0.528945,-0.3056033 0.518944,0.893473 0.512276,-0.893473 0.534501,0.3056033 -0.517832,0.8923617 h 1.027886 z"/>
        <path d="m 27.212877,5.3719507 c 0.156683,0.3078259 0.215579,0.5878697 0.177797,0.8412426 -0.01889,0.1411332 -0.09112,0.3111598 -0.215579,0.511191 -0.08667,0.1411332 -0.132236,0.2489278 -0.138903,0.3222726 -0.01445,0.1189075 0.02778,0.2722648 0.124457,0.4634058 L 26.615036,7.7889952 C 26.452797,7.4700564 26.391679,7.1866788 26.429461,6.9333059 c 0.02111,-0.1478009 0.09445,-0.3222726 0.218912,-0.526749 0.08223,-0.1389106 0.128903,-0.2444827 0.136681,-0.3133823 0.01334,-0.1122398 -0.02667,-0.2600407 -0.120013,-0.4411801 -0.111122,-0.2189231 -0.246692,-0.343387 -0.400042,-0.3700578 -0.12668,-0.023337 -0.300032,0.021114 -0.521166,0.1322428 -0.218912,0.1122398 -0.357816,0.2255909 -0.413377,0.3411645 -0.0689,0.1411331 -0.04778,0.32005 0.06556,0.542307 L 24.84596,6.5776947 C 24.700389,6.2909833 24.650384,6.0187185 24.694833,5.7642343 24.755951,5.3997328 25.012645,5.1007972 25.466026,4.8685387 25.92163,4.6373915 26.312782,4.6051642 26.643928,4.7696344 26.88062,4.885208 27.067306,5.0852392 27.212877,5.3719507 Z M 27.717375,8.6002331 27.17065,8.8780543 26.892843,8.3324134 27.438457,8.0545922 Z"/>
        <path d="m 21.205575,15.661337 h -2.452481 v -0.610096 h 2.452481 z m 0,1.55691 h -2.452481 v -0.610096 h 2.452481 z"/>
        <path d="m 16.562862,20.781026 c -0.408932,0.486743 -0.872314,0.568978 -1.389035,0.244482 l -0.194465,0.232259 -0.414489,-0.347832 0.193354,-0.232259 c -0.402265,-0.454515 -0.400042,-0.924589 0.0067,-1.409109 l 0.4156,0.347832 c -0.19891,0.235593 -0.222246,0.450071 -0.07001,0.642323 l 0.754524,-0.897918 c -0.152239,-0.245594 -0.240026,-0.456738 -0.263361,-0.635655 -0.03778,-0.258929 0.03778,-0.500078 0.225579,-0.722335 0.40671,-0.48452 0.867869,-0.568978 1.389036,-0.251151 l 0.176685,-0.211144 0.4156,0.347832 -0.181131,0.21559 c 0.408932,0.452293 0.411155,0.922366 0.0022,1.409109 l -0.4156,-0.347832 c 0.194465,-0.232259 0.21669,-0.446737 0.06556,-0.646768 l -0.740079,0.88236 c 0.150016,0.248928 0.235581,0.463406 0.258917,0.646768 0.03223,0.261152 -0.04556,0.505634 -0.235581,0.733448 z m -0.326701,-1.866959 0.625622,-0.745672 c -0.218912,-0.111128 -0.425601,-0.05001 -0.621177,0.178917 -0.12668,0.152246 -0.128903,0.342276 -0.0044,0.566755 z m -0.09112,1.516904 c 0.13557,-0.160025 0.141126,-0.355611 0.01889,-0.588981 l -0.640067,0.762341 c 0.218912,0.120019 0.4256,0.06334 0.621176,-0.17336 z"/>
        <path d="m 11.752354,20.282059 -0.366706,-0.297824 c -0.132236,0.16447 -0.320034,0.171137 -0.590062,-0.04556 L 9.4343308,18.836277 9.6454642,18.575125 9.2887599,18.286191 7.5419085,20.444306 7.8975017,20.732129 8.11308,20.467643 l 2.106889,1.705823 0.392264,-0.484521 -2.1068893,-1.705822 0.5322785,-0.65788 1.3890358,1.12462 c 0.512276,0.413398 0.862313,0.403396 1.325696,-0.167804 z"/>
        <path d="m 17.549633,13.516557 -0.558948,-0.322273 0.272251,-0.468962 0.557837,0.322273 z m -1.111228,-0.6401 -0.552281,-0.32005 0.272251,-0.470074 0.552281,0.320051 z m 0.218912,2.998246 c -0.106678,0.187807 -0.263361,0.303381 -0.463383,0.347833 -0.291142,0.06112 -0.653402,-0.03445 -1.090115,-0.284489 -0.762303,-0.44118 -1.004551,-0.900141 -0.726743,-1.380216 0.107789,-0.187807 0.263361,-0.303381 0.463382,-0.347832 0.291142,-0.06112 0.655625,0.03334 1.096783,0.288934 0.254471,0.147801 0.442269,0.214478 0.562281,0.204476 0.07001,-0.0044 0.122235,-0.04223 0.16224,-0.11224 0.04223,-0.07112 0.04889,-0.13891 0.01667,-0.202253 -0.05,-0.108906 -0.202244,-0.237815 -0.456715,-0.385616 -0.260027,-0.148912 -0.448936,-0.218923 -0.57006,-0.205588 -0.0689,0.0033 -0.123347,0.04112 -0.165573,0.115574 l -0.552281,-0.317828 c 0.275585,-0.481186 0.796751,-0.500078 1.559054,-0.06001 0.436713,0.25115 0.700074,0.51897 0.792306,0.801236 0.06112,0.195586 0.03889,0.387839 -0.0689,0.574534 z m -0.554503,-0.32005 0.183352,-0.316716 c -0.191131,-0.04556 -0.400042,-0.134465 -0.625621,-0.265597 -0.258917,-0.148912 -0.446714,-0.218923 -0.564504,-0.210033 -0.07001,0.0044 -0.124458,0.04223 -0.166685,0.115574 -0.04223,0.07223 -0.04889,0.138911 -0.01667,0.202254 0.05001,0.110017 0.204466,0.237815 0.463382,0.387838 0.255583,0.147801 0.442269,0.214478 0.562282,0.204477 0.06778,-0.0067 0.122235,-0.04445 0.164462,-0.117797 z"/>
        <path d="m 13.028044,22.575751 -0.604508,-0.09446 0.48894,-3.090484 0.604509,0.09446 z m -0.192242,1.203521 -0.604509,-0.09557 0.09445,-0.604539 0.605619,0.09557 z"/>
        <path d="m 22.184568,14.296679 -0.775638,-0.992377 0.775638,-1.001268 -0.335591,-0.264486 -0.712298,0.924589 -0.716742,-0.919032 -0.328924,0.258929 0.76897,1.001268 -0.76897,0.992377 0.328924,0.265597 0.716742,-0.923478 0.712298,0.923478 z"/>
        <path d="m 11.408984,11.707385 v -0.24226 h -0.543391 l 0.204466,-0.846799 h -0.394486 l -0.210022,0.846799 H 9.8177047 L 10.022171,10.618326 H 9.6265734 L 9.4154399,11.465125 H 8.8142653 v 0.24226 H 9.362101 L 9.2298648,12.246358 H 8.6286901 v 0.242261 h 0.5422795 l -0.2255794,0.91681 H 9.3420988 L 9.566567,12.484173 h 0.653402 l -0.2244677,0.921256 h 0.3955977 l 0.225579,-0.921256 h 0.601175 v -0.240037 h -0.54228 l 0.133348,-0.538973 h 0.600063 z m -1.004551,0 -0.133347,0.538973 H 9.6243509 l 0.1322362,-0.538973 z"/>
        <path d="M 29.447558,1.8980744 29.200865,1.4702298 27.536245,1.740272 28.598579,0.42784465 28.349664,0 27.055083,1.7658315 27.271772,2.1425571 Z"/>
        <path d="M 21.458935,6.2954284 20.858872,5.3297219 21.458935,4.358459 21.141124,4.0828604 c -0.06556,0.105572 -0.718965,1.1401782 -0.782305,1.2468615 0.06556,0.1055721 0.718965,1.1468459 0.782305,1.2479728 z m -0.987882,0 L 19.876546,5.3297219 20.471053,4.358459 20.158798,4.0828604 c -0.07001,0.105572 -0.716742,1.1401782 -0.782305,1.2468615 0.06556,0.1055721 0.712298,1.1468459 0.782305,1.2479728 z"/>
        <path d="m 17.620752,0.59453737 -0.0022,0.30893717 c -0.0022,0.35005476 -0.111122,0.61565176 -0.328923,0.79901376 -0.146682,0.1244639 -0.385597,0.2211457 -0.71452,0.2922679 -0.242248,0.055564 -0.393375,0.1077946 -0.456715,0.160025 -0.07667,0.063343 -0.114457,0.1778056 -0.114457,0.3422757 l 0.0022,0.3044921 -0.617843,-0.00333 0.0067,-0.3033807 c 0.0067,-0.3522773 0.115568,-0.6200969 0.333369,-0.8012364 0.147793,-0.1244639 0.385596,-0.2211456 0.71452,-0.2922679 0.237803,-0.051119 0.390041,-0.1033495 0.453381,-0.1566911 0.07556,-0.062232 0.113345,-0.1766943 0.113345,-0.34116446 l 0.0022,-0.30893717 z"/>
        <path d="M 6.076198,17.304927 H 5.2627786 v 0.811238 H 4.6516029 V 17.304927 H 3.840406 V 16.69372 H 4.6516029 V 15.882482 H 5.2627786 V 16.69372 H 6.076198 Z"/>
      </g>
    </g>
    <g id="lettering" fill="fill:#50596a">
      <g id="bottom">
        <g id="lingua">
          <path d="m 97.582151,27.004648 -0.411026,-0.722712 1.343568,-0.785168 0.414341,0.721596 z"/>
          <path d="m 96.059588,32.179618 c -1.538032,0 -2.307048,-0.560993 -2.307048,-1.681865 v -4.789079 h 0.9005 v 4.789079 c 0,0.240904 0.08176,0.418235 0.241975,0.535342 0.213247,0.158371 0.602175,0.237557 1.161258,0.237557 v 0.908966 z"/>
          <rect x="96.683861" y="27.529951" width="0.90049994" height="4.6496668"/>
          <path d="m 102.84704,32.179618 h -0.9005 v -2.318699 c 0,-0.47177 -0.0785,-0.814166 -0.23645,-1.022726 -0.19115,-0.26321 -0.52704,-0.392584 -1.00768,-0.392584 -0.47953,0 -0.818736,0.129374 -1.0132,0.392584 -0.156897,0.20856 -0.235345,0.550956 -0.235345,1.022726 v 2.318699 H 98.55226 v -2.318699 c 0,-1.551376 0.71598,-2.327621 2.15015,-2.327621 1.42865,0 2.14463,0.776245 2.14463,2.327621 z"/>
          <path d="m 108.0611,32.310108 c 0,1.129794 -0.71488,1.697479 -2.14352,1.697479 h -1.70156 v -0.908965 h 1.70156 c 0.53698,0 0.9005,-0.09592 1.08281,-0.288862 0.10386,-0.104838 0.15689,-0.272132 0.15689,-0.499652 v -0.13049 h -1.2397 c -1.43528,0 -2.15015,-0.7729 -2.15015,-2.318699 0,-1.551376 0.71487,-2.327621 2.15015,-2.327621 1.42864,0 2.14352,0.776245 2.14352,2.327621 z m -0.90382,-1.042801 v -1.409734 c 0,-0.47177 -0.0785,-0.81305 -0.23534,-1.022726 -0.19115,-0.263209 -0.52704,-0.392584 -1.00768,-0.392584 -0.48063,0 -0.81984,0.129375 -1.0143,0.392584 -0.1569,0.209676 -0.23535,0.550956 -0.23535,1.022726 0,0.466194 0.0785,0.808589 0.23535,1.023841 0.19777,0.256518 0.53367,0.385893 1.0143,0.385893 z"/>
          <path d="m 113.34477,29.857573 c 0,1.5458 -0.71488,2.318699 -2.15015,2.318699 -1.42865,0 -2.14352,-0.772899 -2.14352,-2.318699 v -2.327621 h 0.90049 v 2.327621 c 0,0.472885 0.0785,0.814166 0.23535,1.023841 0.19115,0.256518 0.52704,0.385893 1.00768,0.385893 0.48063,0 0.81652,-0.129375 1.00767,-0.385893 0.1569,-0.209675 0.23535,-0.550956 0.23535,-1.023841 v -2.327621 h 0.91044 v 2.327621 z"/>
          <path d="m 118.00416,30.786614 c 0,0.927926 -0.62206,1.389658 -1.86508,1.389658 -0.71267,0 -1.22424,-0.167294 -1.53472,-0.499652 -0.21325,-0.235327 -0.32042,-0.533111 -0.32042,-0.893352 0,-0.361355 0.10717,-0.659139 0.32042,-0.893351 0.31048,-0.332358 0.82537,-0.500768 1.53472,-0.500768 0.42097,0 0.70383,-0.05688 0.84194,-0.173986 0.0818,-0.06357 0.12264,-0.165064 0.12264,-0.297784 0,-0.139412 -0.0409,-0.240904 -0.12264,-0.306706 -0.13811,-0.118221 -0.42097,-0.175101 -0.84194,-0.175101 -0.41766,0 -0.69388,0.05688 -0.832,0.175101 -0.0818,0.06246 -0.12264,0.167294 -0.12264,0.306706 h -0.9005 c 0,-0.361356 0.10717,-0.659139 0.32042,-0.893351 0.31048,-0.332359 0.82537,-0.500768 1.53472,-0.500768 1.24302,0 1.86508,0.462847 1.86508,1.390773 z m -0.9005,0 v -0.612297 c -0.26738,0.09257 -0.58781,0.139412 -0.96458,0.139412 -0.41766,0 -0.69388,0.058 -0.832,0.16841 -0.0818,0.06357 -0.12264,0.167294 -0.12264,0.306706 0,0.139412 0.0409,0.240904 0.12264,0.307821 0.13812,0.117106 0.41766,0.173986 0.832,0.173986 0.42097,0 0.70383,-0.05688 0.84194,-0.173986 0.0818,-0.06692 0.12264,-0.168409 0.12264,-0.310052 z"/>
        </g>
        <g id="na" >
          <path d="m 46.717716,32.179618 h -0.901605 v -2.318699 c 0,-0.47177 -0.07845,-0.814166 -0.235345,-1.022726 -0.191149,-0.26321 -0.527041,-0.392584 -1.007676,-0.392584 -0.480635,0 -0.818737,0.129374 -1.014306,0.392584 -0.156897,0.20856 -0.235345,0.550956 -0.235345,1.022726 v 2.318699 h -0.9005 v -2.318699 c 0,-1.551376 0.71598,-2.327621 2.150151,-2.327621 1.428646,0 2.144626,0.776245 2.144626,2.327621 z"/>
          <path d="m 51.376008,30.786614 c 0,0.927926 -0.620959,1.389658 -1.86398,1.389658 -0.712666,0 -1.225343,-0.167294 -1.535822,-0.499652 -0.213247,-0.235327 -0.320423,-0.533111 -0.320423,-0.893352 0,-0.361355 0.107176,-0.659139 0.320423,-0.893351 0.310479,-0.332358 0.825366,-0.500768 1.535822,-0.500768 0.419865,0 0.702721,-0.05688 0.840835,-0.173986 0.08176,-0.06357 0.122645,-0.165064 0.122645,-0.297784 0,-0.139412 -0.04088,-0.240904 -0.122645,-0.306706 -0.138114,-0.118221 -0.42097,-0.175101 -0.840835,-0.175101 -0.417655,0 -0.693882,0.05688 -0.831996,0.175101 -0.08176,0.06246 -0.122645,0.167294 -0.122645,0.306706 h -0.901604 c 0,-0.361356 0.107176,-0.659139 0.320423,-0.893351 0.310479,-0.332359 0.825366,-0.500768 1.535822,-0.500768 1.243021,0 1.86398,0.462847 1.86398,1.390773 z m -0.9005,0 v -0.612297 c -0.267388,0.09257 -0.586706,0.139412 -0.96348,0.139412 -0.417655,0 -0.693882,0.058 -0.831996,0.16841 -0.08176,0.06357 -0.122645,0.167294 -0.122645,0.306706 0,0.139412 0.04088,0.240904 0.122645,0.307821 0.138114,0.117106 0.416551,0.173986 0.831996,0.173986 0.419865,0 0.702721,-0.05688 0.840835,-0.173986 0.08176,-0.06692 0.122645,-0.168409 0.122645,-0.310052 z"/>
        </g>
        <g id="ponta">
          <path d="m 59.385485,29.857573 c 0,1.5458 -0.71598,2.318699 -2.151256,2.318699 h -1.239706 v 1.831315 h -0.901605 v -4.150014 c 0,-1.551376 0.71598,-2.327621 2.144626,-2.327621 1.428646,0 2.147941,0.776245 2.147941,2.327621 z m -0.90492,0 c 0,-0.47177 -0.07845,-0.81305 -0.235345,-1.022726 -0.197779,-0.263209 -0.533671,-0.392584 -1.014306,-0.392584 -0.47953,0 -0.815422,0.129375 -1.007676,0.392584 -0.156896,0.209676 -0.235345,0.550956 -0.235345,1.022726 v 1.409734 h 1.240812 c 0.47953,0 0.818736,-0.129375 1.0132,-0.385893 0.163527,-0.213021 0.23866,-0.554301 0.23866,-1.023841 z"/>
          <path d="m 64.468061,29.857573 c 0,1.5458 -0.71598,2.318699 -2.144626,2.318699 -1.43417,0 -2.150151,-0.772899 -2.150151,-2.318699 0,-1.551376 0.715981,-2.327621 2.150151,-2.327621 1.431961,0 2.144626,0.776245 2.144626,2.327621 z m -0.901605,0 c 0,-0.47177 -0.07845,-0.81305 -0.235345,-1.022726 -0.191149,-0.263209 -0.527041,-0.392584 -1.007676,-0.392584 -0.480635,0 -0.816527,0.129375 -1.007676,0.392584 -0.156897,0.209676 -0.235345,0.550956 -0.235345,1.022726 0,0.472885 0.07845,0.814166 0.235345,1.023841 0.191149,0.256518 0.527041,0.385893 1.007676,0.385893 0.480635,0 0.816527,-0.129375 1.007676,-0.385893 0.156897,-0.206329 0.235345,-0.548725 0.235345,-1.023841 z"/>
          <path d="m 69.692066,32.179618 h -0.901605 v -2.318699 c 0,-0.47177 -0.07845,-0.814166 -0.235345,-1.022726 -0.19115,-0.26321 -0.527042,-0.392584 -1.007676,-0.392584 -0.480635,0 -0.819842,0.129374 -1.014306,0.392584 -0.156897,0.20856 -0.235345,0.550956 -0.235345,1.022726 v 2.318699 h -0.9005 v -2.318699 c 0,-1.551376 0.71598,-2.327621 2.150151,-2.327621 1.428645,0 2.144626,0.776245 2.144626,2.327621 z"/>
          <path d="m 72.962593,32.189656 c -1.531402,0 -2.298208,-0.56434 -2.298208,-1.688557 V 25.71202 h 0.901605 v 1.831315 h 1.396603 v 0.908966 H 71.56599 v 2.048798 c 0,0.244249 0.07845,0.423812 0.235345,0.542033 0.213247,0.158372 0.60328,0.237558 1.161258,0.237558 z"/>
          <path d="m 77.449624,30.786614 c 0,0.927926 -0.622063,1.389658 -1.865084,1.389658 -0.712666,0 -1.224238,-0.167294 -1.535822,-0.499652 -0.213248,-0.235327 -0.319319,-0.533111 -0.319319,-0.893352 0,-0.361355 0.106071,-0.659139 0.319319,-0.893351 0.311584,-0.332358 0.826471,-0.500768 1.535822,-0.500768 0.42097,0 0.702721,-0.05688 0.840835,-0.173986 0.08176,-0.06357 0.122644,-0.165064 0.122644,-0.297784 0,-0.139412 -0.04088,-0.240904 -0.122644,-0.306706 -0.138114,-0.118221 -0.419865,-0.175101 -0.840835,-0.175101 -0.417656,0 -0.693883,0.05688 -0.831996,0.175101 -0.08176,0.06246 -0.122645,0.167294 -0.122645,0.306706 h -0.903814 c 0,-0.361356 0.106071,-0.659139 0.320423,-0.893351 0.310479,-0.332359 0.825366,-0.500768 1.534717,-0.500768 1.243021,0 1.865084,0.462847 1.865084,1.390773 v 1.872581 z m -0.901605,0 v -0.612297 c -0.266282,0.09257 -0.586706,0.139412 -0.963479,0.139412 -0.417656,0 -0.693883,0.058 -0.831996,0.16841 -0.08176,0.06357 -0.122645,0.167294 -0.122645,0.306706 0,0.139412 0.04088,0.240904 0.122645,0.307821 0.138113,0.117106 0.417655,0.173986 0.831996,0.173986 0.42097,0 0.702721,-0.05688 0.840835,-0.173986 0.08176,-0.06692 0.122644,-0.168409 0.122644,-0.310052 z"/>
        </g>
        <g id="da" >
          <path d="m 85.369604,29.857573 c 0,1.552491 -0.71598,2.328737 -2.143521,2.328737 -1.435276,0 -2.151256,-0.776246 -2.151256,-2.328737 0,-1.544684 0.71598,-2.317584 2.151256,-2.317584 h 1.239706 v -1.831315 h 0.9005 v 4.148899 z m -0.9005,0 v -1.408618 h -1.239707 c -0.480635,0 -0.816527,0.129374 -1.008781,0.385892 -0.156896,0.209676 -0.235345,0.550956 -0.235345,1.022726 0,0.472885 0.07845,0.814166 0.235345,1.023841 0.192254,0.262095 0.528146,0.392584 1.008781,0.392584 0.47953,0 0.815422,-0.130489 1.007676,-0.392584 0.153583,-0.206329 0.232031,-0.548725 0.232031,-1.023841 z"/>
          <path d="m 90.03784,30.786614 c 0,0.927926 -0.620958,1.389658 -1.86398,1.389658 -0.712665,0 -1.225343,-0.167294 -1.535822,-0.499652 -0.213247,-0.235327 -0.320423,-0.533111 -0.320423,-0.893352 0,-0.361355 0.107176,-0.659139 0.320423,-0.893351 0.310479,-0.332358 0.825366,-0.500768 1.535822,-0.500768 0.419865,0 0.702722,-0.05688 0.840835,-0.173986 0.08176,-0.06357 0.122645,-0.165064 0.122645,-0.297784 0,-0.139412 -0.04088,-0.240904 -0.122645,-0.306706 -0.138113,-0.118221 -0.42097,-0.175101 -0.840835,-0.175101 -0.417655,0 -0.693882,0.05688 -0.831995,0.175101 -0.08176,0.06246 -0.122645,0.167294 -0.122645,0.306706 h -0.901605 c 0,-0.361356 0.107176,-0.659139 0.320423,-0.893351 0.310479,-0.332359 0.825366,-0.500768 1.535822,-0.500768 1.243022,0 1.86398,0.462847 1.86398,1.390773 z m -0.9005,0 v -0.612297 c -0.267388,0.09257 -0.586706,0.139412 -0.96348,0.139412 -0.417655,0 -0.693882,0.058 -0.831995,0.16841 -0.08176,0.06357 -0.122645,0.167294 -0.122645,0.306706 0,0.139412 0.04088,0.240904 0.122645,0.307821 0.138113,0.117106 0.417655,0.173986 0.831995,0.173986 0.419865,0 0.702722,-0.05688 0.840835,-0.173986 0.08176,-0.06692 0.122645,-0.168409 0.122645,-0.310052 z"/>
        </g>
      </g>
      <g id="top">
        <g id="centro">
          <path d="m 45.072508,22.265757 c -0.148058,0.568801 -0.557979,0.847625 -1.222028,0.847625 -0.854094,0 -1.282798,-0.467309 -1.282798,-1.39635 0,-0.923465 0.428704,-1.390773 1.282798,-1.390773 0.664049,0 1.07397,0.2844 1.222028,0.847624 h -0.572342 c -0.104967,-0.202984 -0.320424,-0.30336 -0.649686,-0.30336 -0.286171,0 -0.48616,0.07696 -0.60107,0.230866 -0.09502,0.124913 -0.138114,0.332358 -0.138114,0.611182 0,0.2844 0.04751,0.486269 0.138114,0.611182 0.11491,0.158372 0.314899,0.236442 0.60107,0.236442 0.324843,0 0.544719,-0.101492 0.649686,-0.30336 h 0.572342 z"/>
          <path d="m 48.092221,23.117843 h -1.282798 c -0.859618,0 -1.288322,-0.461732 -1.288322,-1.390773 0,-0.929041 0.428704,-1.39635 1.288322,-1.39635 0.854094,0 1.282798,0.467309 1.282798,1.39635 v 0.274362 h -2.017562 c 0.05635,0.380316 0.300535,0.572147 0.734764,0.572147 h 1.282798 z m -0.557978,-1.660675 c -0.05745,-0.384777 -0.296116,-0.577723 -0.72482,-0.577723 -0.434229,0 -0.678413,0.192946 -0.734764,0.577723 z" />
          <path d="M 51.298664,23.117843 H 50.749525 V 21.72707 c 0,-0.284401 -0.04751,-0.486269 -0.138114,-0.611182 -0.113805,-0.159487 -0.314898,-0.236443 -0.60107,-0.236443 -0.286171,0 -0.491684,0.07696 -0.605489,0.236443 -0.09613,0.124913 -0.139219,0.332358 -0.139219,0.611182 v 1.390773 h -0.53809 V 21.72707 c 0,-0.929041 0.428705,-1.39635 1.287218,-1.39635 0.854094,0 1.283903,0.467309 1.283903,1.39635 z" />
          <path d="m 53.302967,23.12342 c -0.915969,0 -1.378925,-0.337935 -1.378925,-1.011573 v -2.86854 h 0.539195 v 1.097451 h 0.834205 v 0.544264 h -0.834205 v 1.226825 c 0,0.144988 0.04751,0.255402 0.138113,0.327896 0.129275,0.09592 0.36241,0.139412 0.696092,0.139412 v 0.544265 z"/>
          <path d="m 55.221087,20.879445 c -0.334787,0 -0.567923,0.04796 -0.697197,0.139412 -0.09502,0.07249 -0.138113,0.178447 -0.138113,0.327897 v 1.771089 h -0.539195 v -1.771089 c 0,-0.673638 0.458536,-1.010458 1.378925,-1.010458 v 0.543149 z"/>
          <path d="m 58.250744,21.72707 c 0,0.92458 -0.429809,1.390773 -1.283902,1.390773 -0.858514,0 -1.288323,-0.461732 -1.288323,-1.390773 0,-0.929041 0.429809,-1.39635 1.288323,-1.39635 0.854093,0.0056 1.283902,0.467309 1.283902,1.39635 z m -0.544719,0 c 0,-0.284401 -0.04751,-0.486269 -0.138114,-0.611182 -0.113805,-0.159487 -0.314898,-0.236443 -0.601069,-0.236443 -0.286172,0 -0.48616,0.07696 -0.60107,0.236443 -0.09502,0.124913 -0.138114,0.332358 -0.138114,0.611182 0,0.2844 0.04751,0.486268 0.138114,0.611182 0.11491,0.15391 0.314898,0.230866 0.60107,0.230866 0.286171,0 0.487264,-0.07696 0.601069,-0.230866 0.0906,-0.120452 0.138114,-0.326782 0.138114,-0.611182 z"/>
        </g>
        <g id="de" >
          <path d="m 63.097975,21.72707 c 0,0.929041 -0.429809,1.39635 -1.283903,1.39635 -0.858513,0 -1.288322,-0.467309 -1.288322,-1.39635 0,-0.92458 0.429809,-1.390774 1.288322,-1.390774 h 0.744708 v -1.09745 h 0.539195 z m -0.543614,0 v -0.842048 h -0.744708 c -0.286171,0 -0.48616,0.07696 -0.60107,0.230866 -0.09502,0.124913 -0.138114,0.332358 -0.138114,0.611182 0,0.2844 0.04751,0.486268 0.138114,0.611182 0.11491,0.158372 0.314899,0.235327 0.60107,0.235327 0.286171,0 0.486159,-0.07695 0.60107,-0.235327 0.100546,-0.120452 0.143638,-0.326782 0.143638,-0.611182 z"/>
          <path d="m 66.271271,23.117843 h -1.283903 c -0.858513,0 -1.288323,-0.461732 -1.288323,-1.390773 0,-0.929041 0.42981,-1.39635 1.288323,-1.39635 0.854094,0 1.283903,0.467309 1.283903,1.39635 v 0.274362 h -2.018667 c 0.05745,0.380316 0.300535,0.572147 0.734764,0.572147 h 1.283903 z m -0.559083,-1.660675 c -0.05635,-0.384777 -0.295011,-0.577723 -0.72482,-0.577723 -0.434229,0 -0.677309,0.192946 -0.734764,0.577723 z"/>
        </g>
        <g id="estudo">
          <path d="m 71.141705,23.117843 h -1.282798 c -0.858514,0 -1.288323,-0.461732 -1.288323,-1.390773 0,-0.929041 0.429809,-1.39635 1.288323,-1.39635 0.854094,0 1.282798,0.467309 1.282798,1.39635 v 0.274362 h -2.017562 c 0.05745,0.380316 0.300535,0.572147 0.734764,0.572147 h 1.282798 z m -0.552454,-1.660675 c -0.05746,-0.384777 -0.296115,-0.577723 -0.725924,-0.577723 -0.434229,0 -0.677309,0.192946 -0.734764,0.577723 z"/>
          <path d="m 74.000102,21.168307 h -0.539195 c 0,-0.08142 -0.02431,-0.143873 -0.07182,-0.182909 -0.08066,-0.07249 -0.2475,-0.105953 -0.500524,-0.105953 -0.248604,0 -0.415445,0.03346 -0.501628,0.105953 -0.04751,0.03904 -0.07071,0.101492 -0.07071,0.182909 0,0.105953 0.03315,0.173986 0.09944,0.211906 0.07182,0.03346 0.23424,0.06246 0.491684,0.07695 0.314899,0.01896 0.549139,0.06803 0.701616,0.139412 0.257444,0.134951 0.391138,0.365817 0.391138,0.693714 0,0.553186 -0.372354,0.833126 -1.111538,0.833126 -0.739183,0 -1.111537,-0.27994 -1.111537,-0.833126 h 0.539195 c 0,0.08142 0.0232,0.143873 0.07071,0.182908 0.08176,0.07249 0.248604,0.105953 0.501628,0.105953 0.2475,0 0.415446,-0.03346 0.500524,-0.105953 0.04751,-0.03904 0.07182,-0.101492 0.07182,-0.182908 0,-0.101492 -0.03315,-0.16841 -0.09502,-0.201869 -0.07182,-0.03904 -0.238661,-0.06803 -0.491684,-0.08253 -0.319319,-0.01896 -0.553559,-0.06692 -0.701617,-0.139412 -0.261863,-0.129375 -0.395557,-0.361356 -0.395557,-0.692599 0,-0.554302 0.372354,-0.833125 1.111537,-0.833125 0.744708,-0.0045 1.111538,0.269901 1.111538,0.827549 z"/>
          <path d="m 75.946949,23.12342 c -0.915968,0 -1.378925,-0.337935 -1.378925,-1.011573 v -2.86854 h 0.539195 v 1.097451 h 0.835311 v 0.544264 h -0.835311 v 1.226825 c 0,0.144988 0.04751,0.255402 0.138114,0.327896 0.129274,0.09592 0.36241,0.139412 0.697197,0.139412 v 0.544265 z"/>
          <path d="m 79.06279,21.72707 c 0,0.92458 -0.429809,1.390773 -1.288323,1.390773 -0.854094,0 -1.283903,-0.461732 -1.283903,-1.390773 v -1.39635 h 0.539195 v 1.39635 c 0,0.2844 0.04751,0.486268 0.138114,0.611182 0.11491,0.15391 0.314898,0.230866 0.60107,0.230866 0.287276,0 0.487264,-0.07696 0.602174,-0.230866 0.09502,-0.124914 0.138114,-0.332358 0.138114,-0.611182 v -1.39635 h 0.543615 v 1.39635 z"/>
          <path d="m 82.226141,21.72707 c 0,0.929041 -0.429809,1.39635 -1.283903,1.39635 -0.858513,0 -1.288323,-0.467309 -1.288323,-1.39635 0,-0.92458 0.42981,-1.390774 1.288323,-1.390774 h 0.744708 v -1.09745 h 0.539195 z m -0.539195,0 v -0.842048 h -0.744708 c -0.286171,0 -0.486159,0.07696 -0.60107,0.230866 -0.09502,0.124913 -0.138113,0.332358 -0.138113,0.611182 0,0.2844 0.04751,0.486268 0.138113,0.611182 0.114911,0.158372 0.314899,0.235327 0.60107,0.235327 0.286171,0 0.48616,-0.07695 0.60107,-0.235327 0.09502,-0.120452 0.143638,-0.326782 0.143638,-0.611182 z" />
          <path d="m 85.369604,21.72707 c 0,0.92458 -0.428704,1.390773 -1.282798,1.390773 -0.859618,0 -1.288323,-0.461732 -1.288323,-1.390773 0,-0.929041 0.428705,-1.39635 1.288323,-1.39635 0.858513,0.0056 1.282798,0.467309 1.282798,1.39635 z m -0.539195,0 c 0,-0.284401 -0.04751,-0.486269 -0.138114,-0.611182 -0.11491,-0.159487 -0.314898,-0.236443 -0.601069,-0.236443 -0.286172,0 -0.48616,0.07696 -0.60107,0.236443 -0.09502,0.124913 -0.138114,0.332358 -0.138114,0.611182 0,0.2844 0.04751,0.486268 0.138114,0.611182 0.11491,0.15391 0.314898,0.230866 0.60107,0.230866 0.286171,0 0.486159,-0.07696 0.601069,-0.230866 0.0906,-0.120452 0.138114,-0.326782 0.138114,-0.611182 z" />
        </g>
      </g>
    </g>
</svg>
