<?xml version="1.0" encoding="UTF-8" standalone="no"?>
<svg width="100%" height="100%" viewBox="0 0 32 32" version="1.1" xml:space="preserve" style="fill-rule:evenodd;clip-rule:evenodd;stroke-linejoin:round;stroke-miterlimit:2;" id="svg1" xmlns="http://www.w3.org/2000/svg" xmlns:svg="http://www.w3.org/2000/svg">
  <rect x="0" y="0" width="32" height="32" style="fill:#009fc1;"/>
  <path style="fill:#ffffff;stroke-width:0.999996" d="M 16.343472,4.0038939 C 15.337925,4.0287915 14.315304,4.1763901 13.276581,4.4458476 9.9415209,5.2866838 7.4149334,7.141085 5.6964049,9.998728 c -1.7176714,2.857643 -2.1337248,5.898598 -1.2354614,9.111947 0.8982632,3.191921 2.8314128,5.607122 5.8073385,7.25708 2.975926,1.649959 6.118638,2.048938 9.443412,1.196959 3.346203,-0.862264 5.885085,-2.717001 7.603613,-5.574644 L 28,20.846682 25.619477,19.530866 24.934784,20.674253 c -1.336252,2.231944 -3.302134,3.677323 -5.907783,4.345879 -2.59365,0.668554 -5.052243,0.356534 -7.377614,-0.927434 C 9.3248739,22.809588 7.8195498,20.922897 7.12271,18.420959 6.4267274,15.930164 6.7523943,13.568252 8.0886467,11.336308 9.4248991,9.1043633 11.39078,7.6589843 13.996429,6.9904295 c 2.59365,-0.6685548 5.053101,-0.3556777 7.377614,0.9274332 1.32511,0.7328388 2.268282,1.6174176 2.807411,2.6416783 0.472273,0.884549 0.539411,1.597315 0.202562,2.157872 -0.415705,0.668554 -1.281413,0.635743 -2.606523,-0.0971 L 16.904284,9.9133506 C 15.949451,9.3853637 15.007659,9.2230191 14.07511,9.4278711 12.727716,9.7407205 11.513371,10.797742 10.42397,12.598554 8.5263033,15.746761 8.7968465,17.990096 11.2225,19.338348 l 1.369388,-2.286776 c -0.370277,-0.205709 -0.572304,-0.453297 -0.617732,-0.755004 -0.10114,-0.517701 0.180023,-1.315081 0.820294,-2.382198 0.640269,-1.056831 1.212466,-1.671441 1.729311,-1.854865 0.291421,-0.107998 0.617423,-0.0659 0.9877,0.138947 0.348848,0.204852 0.55054,0.443253 0.595967,0.74496 0.101141,0.517701 -0.180304,1.30446 -0.808574,2.360434 -1.089402,1.823098 -1.438037,3.365198 -1.044618,4.637166 0.281135,0.873407 0.897783,1.574642 1.841474,2.102628 2.425653,1.348253 4.581789,0.442915 6.480313,-2.705292 0.808266,-1.348252 1.201405,-2.534807 1.190262,-3.559066 1.336252,-0.07543 2.325079,-0.658325 2.976491,-1.747727 0.740553,-1.218827 0.774718,-2.619005 0.112162,-4.1935374 C 26.135813,8.1563452 24.766477,6.7430147 22.733386,5.6210427 20.687436,4.4872852 18.555673,3.9491193 16.343472,4.0038939 Z m 2.435768,10.0176171 1.561904,0.862145 0.0452,0.02176 c 0.370276,0.19371 0.57316,0.4522 0.61773,0.765049 0.101141,0.517702 -0.179447,1.305278 -0.808575,2.362109 -0.640269,1.067973 -1.224185,1.693205 -1.741029,1.876629 -0.291421,0.107997 -0.616566,0.06423 -0.987699,-0.140622 -0.370277,-0.204852 -0.573161,-0.453297 -0.617732,-0.755004 -0.07886,-0.506559 0.201787,-1.304179 0.842056,-2.372153 0.561415,-0.937691 0.931291,-1.810793 1.088144,-2.619915 z" />
</svg>
