<?xml version="1.0" encoding="UTF-8" standalone="no"?><!DOCTYPE svg PUBLIC "-//W3C//DTD SVG 1.1//EN" "http://www.w3.org/Graphics/SVG/1.1/DTD/svg11.dtd"><svg width="100%" height="100%" viewBox="0 0 64 64" version="1.1" xmlns="http://www.w3.org/2000/svg" xmlns:xlink="http://www.w3.org/1999/xlink" xml:space="preserve" xmlns:serif="http://www.serif.com/" style="fill-rule:evenodd;clip-rule:evenodd;stroke-linejoin:round;stroke-miterlimit:2;"><rect id="Artboard2" x="0" y="0" width="64" height="64" style="fill:none;"/><path d="M43.274,22.833c-0.006,3.816 -0.852,6.875 -2.493,9.177c-0.905,1.305 -2.478,2.616 -4.711,3.962c-1.565,0.967 -2.568,1.782 -2.997,2.486c-0.75,1.091 -1.117,2.818 -1.122,5.204l-6.784,-0.017c0.003,-3.964 0.831,-7.076 2.486,-9.383c0.95,-1.349 2.573,-2.692 4.82,-4.087c1.525,-0.953 2.514,-1.764 2.947,-2.41c0.682,-1.025 1.039,-2.689 1.043,-4.94c0,-2.726 -0.685,-4.62 -2.087,-5.688c-1.126,-0.858 -3.054,-1.294 -5.803,-1.317c-2.726,0.001 -4.662,0.417 -5.801,1.275c-1.391,1.045 -2.095,2.926 -2.086,5.679l-6.843,-0.013c0.013,-3.565 0.885,-6.498 2.615,-8.799c2.445,-3.276 6.496,-4.94 12.132,-4.925c5.663,0.006 9.687,1.673 12.121,4.97c1.716,2.321 2.576,5.262 2.563,8.826Zm-11.353,34.41l-6.784,-0.017l0.013,-6.798l6.784,0.017l-0.013,6.798Z" style="fill-opacity:0.2;"/></svg>