<svg width="64" height="64" viewBox="0 0 64 64" >
  <path fill="var(--color-b)" d="m 48.400584,37.834875 c -0.193761,-0.316475 -0.697537,-0.503777 -1.45966,-0.884838 -0.762123,-0.374603 -4.508153,-2.208866 -5.205689,-2.454295 -0.697537,-0.251888 -1.207772,-0.381061 -1.711548,0.374603 -0.503776,0.755664 -1.969895,2.454295 -2.409085,2.96453 -0.445648,0.503777 -0.891296,0.568363 -1.653419,0.19376 -0.762123,-0.374603 -3.216419,-1.175478 -6.122821,-3.752488 -2.260535,-2.002188 -3.791241,-4.475859 -4.236889,-5.231523 -0.445648,-0.755666 -0.04521,-1.162562 0.335851,-1.543624 0.34231,-0.33585 0.762124,-0.884837 1.143185,-1.324027 0.381062,-0.43919 0.510235,-0.755664 0.762124,-1.259441 0.258347,-0.503777 0.129173,-0.942966 -0.06459,-1.324027 -0.187301,-0.374604 -1.711547,-4.094799 -2.350956,-5.612586 -0.63295,-1.51133 -1.2659,-1.259441 -1.711548,-1.259441 -0.445648,0 -0.949425,-0.06459 -1.45966,-0.06459 -0.510234,0 -1.330486,0.187302 -2.034481,0.942966 -0.697537,0.755664 -2.667432,2.583468 -2.667432,6.303663 0,3.720195 2.72556,7.311216 3.106622,7.814993 0.381062,0.503777 5.270275,8.383356 13.007764,11.406014 7.743948,3.022658 7.743948,2.015106 9.13902,1.892391 1.395073,-0.129174 4.508153,-1.827805 5.141103,-3.591021 0.645867,-1.763218 0.645867,-3.274547 0.452106,-3.591022 z"/>
  <path stroke="var(--color-b)" stroke-width="var(--stroke-width)" d="M 7.9776903,45.580498 C 5.4667875,41.288423 4.0274822,36.294006 4.0274822,30.966252 c 0,-16.009107 12.9971598,-29.0062668 29.0062668,-29.0062668 16.009106,0 29.006265,12.9971598 29.006265,29.0062668 0,16.009106 -12.997159,29.006524 -29.006265,29.006524 -5.327756,0 -10.322171,-1.439564 -14.614247,-3.950467 L 1.8380326,62.161967 Z"/>
</svg>
