<svg width="100%" height="100%" viewBox="0 0 64 64" fill="none">
  <path stroke="var(--color-b)" stroke-width="var(--stroke-width)" d="M 32,6e-5 C 23.309731,6e-5 22.219447,0.03663136 18.806882,0.19205964 15.398888,0.34748792 13.074321,0.88920119 11.040039,1.6800568 8.9029004,2.4846268 6.9691898,3.744053 5.3714785,5.3691928 3.744053,6.9691898 2.4846268,8.9051862 1.6800568,11.037754 0.88691548,13.074321 0.34748792,15.401174 0.19434535,18.806882 0.03663136,22.219447 6e-5,23.309731 6e-5,32 c 0,8.690269 0.03657136,9.780553 0.19428535,13.193118 0.15314257,3.407994 0.69485584,5.732561 1.48571145,7.766843 0.80457,2.137139 2.0639962,4.070849 3.6914217,5.66856 1.5977113,1.627426 3.5314219,2.886852 5.6685605,3.691422 2.034282,0.790856 4.358849,1.332569 7.766843,1.485712 3.412565,0.155428 4.502849,0.194285 13.193118,0.194285 8.690269,0 9.782839,-0.03886 13.193118,-0.194285 3.407994,-0.153143 5.732561,-0.694856 7.769128,-1.485712 4.294849,-1.661711 7.695986,-5.062848 9.357697,-9.359982 0.793142,-2.034282 1.332569,-4.358849 1.487997,-7.766843 0.155429,-3.412565 0.192,-4.502849 0.192,-13.193118 0,-8.690269 -0.03657,-9.780553 -0.192,-13.193118 C 63.652512,15.398888 63.113085,13.074321 62.319943,11.037754 61.515373,8.9029004 60.255947,6.9691898 58.630807,5.3714785 57.03081,3.7417673 55.0971,2.4846268 52.959961,1.6800568 50.925679,0.88691548 48.601112,0.34748792 45.193118,0.19434535 41.780553,0.03663136 40.690269,6e-5 32,6e-5 Z"/>
  <path stroke="var(--color-b)" stroke-width="var(--stroke-width)" d="m 32.00006,18.000058 c -7.680624,0 -14.000002,6.319378 -14.000002,14.000002 0,7.680624 6.319378,14.000002 14.000002,14.000002 7.680624,0 14.000002,-6.319378 14.000002,-14.000002 0,-7.680624 -6.319378,-14.000002 -14.000002,-14.000002 z"/>
  <path fill="var(--color-b)" d="m 52.921101,14.918889 a 3.8399928,3.8399928 0 0 1 -3.839993,3.839993 3.8399928,3.8399928 0 0 1 -3.839993,-3.839993 3.8399928,3.8399928 0 0 1 3.839993,-3.839993 3.8399928,3.8399928 0 0 1 3.839993,3.839993 z" />
</svg>
