<svg x="0px" y="0px"
   viewBox="0 0 4352 1752"
   width="4352"
   height="1752">
<style
   type="text/css"
   id="style1674">
	.st0{fill-rule:evenodd;clip-rule:evenodd;fill:none;stroke:#6D6E71;stroke-width:36.4945;stroke-miterlimit:22.9256;}
	.st1{fill-rule:evenodd;clip-rule:evenodd;fill:#6D6E71;}
	.st2{fill-rule:evenodd;clip-rule:evenodd;fill:none;stroke:#6D6E71;stroke-width:36.4945;stroke-miterlimit:3.8637;}
	.st3{fill-rule:evenodd;clip-rule:evenodd;fill:#009FC2;}
	.st4{fill-rule:evenodd;clip-rule:evenodd;fill:none;}
	.st5{fill-rule:evenodd;clip-rule:evenodd;fill:none;stroke:#000000;stroke-width:11.691;stroke-miterlimit:3.8637;}
	.st6{fill:#6D6E71;}
</style>
<path
   class="st0"
   d="m 1400.4322,549.55555 c 71.2016,75.86625 143.1033,165.82623 243.7056,244.69118 64.0014,50.17765 273.3063,60.07323 208.6048,144.23578 l -87.702,114.24929 c -11.7003,15.2931 40.4009,127.7431 23.1005,137.9386 -126.0029,73.9671 -266.2061,117.5477 -411.1095,135.9395 -125.2028,15.9929 327.8076,101.6548 425.1098,28.8871 54.1013,-40.482 -44.401,331.0528 -360.3083,375.733 -297.2068,22.6898 -539.51237,-109.2515 -699.41604,-298.4673"
   id="path1676" /><path
   class="st0"
   d="m 1282.1295,932.38528 c 54.2012,0 98.4022,-51.57705 98.4022,-114.74897 0,-63.17193 -44.201,-114.74897 -98.4022,-114.74897 -54.2013,0 -98.4023,51.57704 -98.4023,114.74897 0,63.17192 44.201,114.74897 98.4023,114.74897 z"
   id="path1678" /><path
   class="st1"
   d="m 1310.3301,777.85396 c 14.6003,0 26.4006,-11.09505 26.4006,-24.78898 0,-13.69386 -11.9003,-24.78893 -26.4006,-24.78893 -14.6003,0 -26.4006,11.09507 -26.4006,24.78893 -0.1,13.69393 11.8003,24.78898 26.4006,24.78898 z"
   id="path1680"
   style="stroke-width:0.999787" /><path
   class="st2"
   d="m 754.41733,1421.4677 c -28.80066,16.6925 -48.50111,28.7872 -83.40191,28.7872 -72.80167,0 -139.50321,-54.5758 -139.50321,-127.2434 0,-24.2892 4.50011,-40.8819 12.10028,-63.6716"
   id="path1682" /><path
   class="st3"
   d="m 1497.4344,374.63335 c 0,-67.76985 -42.401,-93.75829 -66.4015,-102.65434 l -10.3003,21.49045 c 19.5005,8.0964 42.701,30.68635 45.5011,58.57394 -46.9011,-13.69391 -76.2018,27.8876 -76.2018,67.46999 0,26.78808 13.4003,49.07817 43.001,49.07817 44.001,0.1 64.4015,-46.17946 64.4015,-93.95821 z m -28.5006,-2.79875 c 0,39.38249 -11.2003,74.16701 -32.9008,74.16701 -12.8003,0 -17.3004,-11.39494 -17.3004,-29.58684 0,-24.98888 16.5004,-55.17545 50.2012,-44.58017 z"
   id="path1684"
   style="stroke-width:0.999787" /><path
   class="st3"
   d="m 1121.4258,431.4081 c 0,-67.76986 -42.401,-93.75829 -66.4016,-102.65434 l -10.3002,21.49044 c 19.5005,8.0964 42.701,30.68635 45.5011,58.57395 -46.9011,-13.69391 -76.2018,27.8876 -76.2018,67.46999 0,26.78809 13.4003,49.07817 43.001,49.07817 44.101,0.1 64.4015,-46.17947 64.4015,-93.95821 z m -28.4007,-2.79875 c 0,39.38248 -11.2002,74.167 -32.9007,74.167 -12.8003,0 -17.3004,-11.39492 -17.3004,-29.58683 -0.1,-24.98889 16.4003,-55.17546 50.2011,-44.58017 z"
   id="path1690"
   style="stroke-width:0.999787" /><path
   id="rect1696"
   style="clip-rule:evenodd;fill:#009fc2;fill-rule:evenodd;stroke-width:0.999729"
   d="m 211.73622,926.66952 8.96121,-27.5668 27.86494,9.04968 -8.96121,27.5668 z"
   class="st3" /><path
   id="rect1700"
   style="clip-rule:evenodd;fill:#009fc2;fill-rule:evenodd;stroke-width:0.999729"
   d="m 262.16662,943.07878 8.96118,-27.5667 27.86495,9.04969 -8.96118,27.56668 z"
   class="st3" /><path
   id="rect1704"
   style="clip-rule:evenodd;fill:#009fc2;fill-rule:evenodd;stroke-width:0.99976"
   d="m 312.668,959.50762 8.96411,-27.56678 27.86494,9.05258 -8.96411,27.56678 z"
   class="st3" /><path
   class="st3"
   d="m 433.20995,307.66315 c 18.10042,10.39537 30.3007,23.48954 36.70085,39.08261 5.90013,14.59351 5.60013,27.58773 -1.00003,38.8827 -5.80013,10.09551 -14.60033,15.49311 -26.5006,16.1928 0.1,9.49578 -3.40008,20.49089 -10.60025,32.98532 -16.90039,29.18703 -36.10083,37.58329 -57.70132,25.08885 -8.4002,-4.89782 -13.90032,-11.39493 -16.40038,-19.49133 -3.50008,-11.79475 -0.40001,-26.0884 9.30021,-42.98089 5.60013,-9.79563 8.10019,-17.09239 7.20017,-21.89026 -0.40001,-2.79875 -2.20005,-4.99777 -5.30012,-6.89692 -3.30008,-1.89916 -6.20015,-2.29899 -8.80021,-1.29943 -4.6001,1.69924 -9.70022,7.39671 -15.40035,17.19235 -5.70013,9.8956 -8.20019,17.29231 -7.30017,22.09017 0.40001,2.79877 2.20005,5.09774 5.50013,6.99689 l -12.20028,21.19057 c -21.6005,-12.49443 -24.00055,-33.28518 -7.10016,-62.4722 9.70022,-16.69258 20.50047,-26.48822 32.50074,-29.38694 8.30019,-1.89915 16.70039,-0.39981 25.20058,4.498 l 43.401,25.08885 c 11.80027,6.79697 19.50045,7.09684 23.20053,0.8996 3.00007,-5.19769 2.40006,-11.79476 -1.80004,-19.99111 -4.80011,-9.49578 -13.2003,-17.69214 -25.00057,-24.48911 -20.70048,-11.89471 -42.60098,-14.79341 -65.70151,-8.59617 -23.20054,6.19724 -40.70094,19.59128 -52.60121,40.28208 -11.90028,20.6908 -14.80034,42.58106 -8.6002,65.67079 6.20014,23.18969 19.60045,40.6819 40.30093,52.57661 20.70047,11.89471 42.60098,14.79342 65.70151,8.59617 23.20053,-6.19723 40.70093,-19.59128 52.6012,-40.28208 l 6.10014,-10.59529 21.20049,12.19459 -6.10014,10.59529 c -15.30035,26.48821 -37.90087,43.68057 -67.70155,51.677 -29.60068,7.89649 -57.60133,4.19814 -84.10194,-11.09506 -26.50061,-15.2932 -43.701,-37.68324 -51.70118,-67.27008 -8.00019,-29.78675 -4.3001,-57.97421 11.00025,-84.46243 15.30035,-26.48822 37.80087,-43.68057 67.50155,-51.4771 29.60068,-7.99644 57.70133,-4.39804 84.20193,10.89516 z m -20.90048,86.06171 -0.40001,-0.19991 -13.90031,-7.99644 c -1.40004,7.49667 -4.70011,15.59306 -9.70023,24.28919 -5.70013,9.8956 -8.20019,17.29231 -7.50017,21.99022 0.40001,2.79875 2.20005,5.09774 5.50013,6.99689 3.30007,1.89916 6.20014,2.29897 8.8002,1.29942 4.6001,-1.69925 9.80022,-7.49666 15.50035,-17.39226 5.60013,-9.79565 8.10019,-17.0924 7.20017,-21.89027 -0.40001,-2.8987 -2.20005,-5.29764 -5.50013,-7.09684 z"
   id="path1708"
   style="stroke-width:0.999787" /><path
   class="st3"
   d="m 951.02186,604.83096 c -43.401,-6.89693 -88.40204,-23.5895 -127.60294,-56.37492 -38.90089,-32.58551 -63.40146,-74.26697 -77.50178,-115.54861 l -16.80039,5.19769 c 16.70039,66.07061 37.50087,102.85425 74.50172,133.84046 37.00085,30.98622 77.10177,45.37982 145.10329,50.27765 z"
   id="path1710"
   style="stroke-width:0.999787" /><path
   id="polygon1716"
   style="clip-rule:evenodd;fill:#009fc2;fill-rule:evenodd;stroke-width:0.999787"
   d="m 793.41823,270.8795 24.50056,42.38116 -25.40058,14.5935 -24.20056,-42.4811 -24.60056,42.4811 -25.10058,-14.5935 24.30056,-42.38116 h -48.90112 v -28.9871 h 48.90112 l -24.30056,-42.38115 25.10058,-14.59351 24.60056,42.4811 24.20056,-42.4811 25.40058,14.59351 -24.50056,42.38115 h 48.80112 v 28.9871 z"
   class="st3" /><path
   class="st3"
   d="m 950.82176,387.72753 c 7.4002,14.59351 10.2003,27.88759 8.4002,39.88226 -0.9,6.69702 -4.3001,14.79342 -10.2002,24.28919 -4.1001,6.69703 -6.3001,11.79476 -6.6001,15.2932 -0.7001,5.59751 1.3,12.89426 5.9001,21.99022 l -25.90056,13.19413 c -7.7002,-15.09329 -10.6002,-28.58728 -8.8002,-40.58195 1,-6.99689 4.5001,-15.2932 10.4002,-24.98888 3.9001,-6.59707 6.1002,-11.59484 6.5002,-14.89338 0.6,-5.29764 -1.3,-12.29452 -5.7001,-20.89071 -5.3002,-10.39537 -11.6003,-16.29275 -19.00049,-17.59217 -6.00013,-1.09951 -14.20032,0.99956 -24.70056,6.2972 -10.40024,5.29765 -17.00039,10.69525 -19.60045,16.1928 -3.30008,6.69702 -2.30006,15.19324 3.10007,25.68857 l -26.1006,13.29409 c -6.90016,-13.59395 -9.30022,-26.48822 -7.20017,-38.58284 2.90007,-17.29231 15.10035,-31.486 36.60084,-42.48111 21.6005,-10.99511 40.20093,-12.49443 55.90126,-4.69791 11.1003,5.49756 20.10046,14.99334 27.00056,28.58729 z m 23.9006,153.23184 -25.9006,13.19413 -13.20026,-25.88849 25.90056,-13.19412 z"
   id="path1722"
   style="stroke-width:0.999787" /><path
   class="st3"
   d="M 665.7153,875.91037 H 549.41262 V 846.92329 H 665.8153 v 28.98708 z m 0,73.96708 H 549.41262 V 920.89037 H 665.8153 v 28.98708 z"
   id="path1728"
   style="stroke-width:0.999787" /><path
   class="st3"
   d="m 463.71066,1235.4505 c -19.40045,23.0896 -41.40096,26.988 -65.90152,11.5948 l -9.20021,10.9951 -19.70045,-16.4926 9.20021,-10.9952 c -19.10044,-21.5903 -19.00044,-43.8805 0.30001,-66.8702 l 19.70045,16.4926 c -9.40022,11.195 -10.50024,21.3905 -3.30008,30.4865 l 35.80082,-42.5811 c -7.20016,-11.6948 -11.40026,-21.6904 -12.50028,-30.1865 -1.80004,-12.2946 1.80004,-23.6895 10.70024,-34.2848 19.30045,-22.9898 41.20095,-26.988 65.90152,-11.8947 l 8.40019,-9.9956 19.70045,16.4927 -8.60019,10.1954 c 19.40044,21.4905 19.50044,43.7806 0.1,66.8704 l -19.70045,-16.4928 c 9.20021,-10.9951 10.30023,-21.1905 3.10007,-30.6863 l -35.20081,41.8813 c 7.10016,11.7948 11.20025,21.9903 12.30028,30.6864 1.60004,12.4945 -2.10005,24.0893 -11.10025,34.7846 z m -15.50036,-88.4607 29.70068,-35.3843 c -10.40024,-5.2976 -20.20046,-2.3989 -29.50068,8.4963 -6.00013,7.1967 -6.00013,16.1927 -0.2,26.888 z m -4.2001,71.968 c 6.40015,-7.5967 6.70016,-16.8925 0.90002,-27.9875 l -30.4007,36.1838 c 10.30024,5.6975 20.10047,2.8988 29.50068,-8.1963 z"
   id="path1730"
   style="stroke-width:0.999787" /><path
   class="st3"
   d="m 217.30499,1095.1129 -17.4004,-14.0938 c -6.30014,7.7966 -15.20035,8.0964 -28.00064,-2.199 l -64.60148,-52.2767 10.00023,-12.3945 -16.90039,-13.6939 -82.90191,102.3544 16.90039,13.694 10.20023,-12.5945 100.0023,80.964 18.60043,-22.9898 -100.0023,-80.9639 25.30058,-31.1862 65.90152,53.3763 c 24.30056,19.6912 40.90094,19.0915 62.90144,-7.9964 z"
   id="path1732"
   style="stroke-width:0.999787" /><path
   class="st3"
   d="m 456.71049,716.28138 -26.5006,-15.29319 12.90029,-22.29008 26.50061,15.29319 z m -52.70121,-30.38647 -26.2006,-15.19325 12.9003,-22.29008 26.2006,15.19324 z m 10.30024,142.23676 c -5.10012,8.89604 -12.50029,14.39358 -22.00051,16.49263 -13.80031,2.89867 -31.00071,-1.59933 -51.70118,-13.49399 -36.20084,-20.89067 -47.7011,-42.68102 -34.5008,-65.47091 5.10012,-8.89604 12.50029,-14.39358 22.00051,-16.49263 13.80032,-2.89867 31.10071,1.59933 52.00119,13.69392 12.10028,6.99691 21.00049,10.19548 26.70062,9.69565 3.30007,-0.19993 5.80013,-1.99909 7.70017,-5.29761 2.00005,-3.39849 2.30006,-6.59705 0.80002,-9.59579 -2.40005,-5.19765 -9.60022,-11.29498 -21.7005,-18.29182 -12.30028,-7.09685 -21.30049,-10.39538 -27.00062,-9.79565 -3.30007,0.19991 -5.90013,1.99911 -7.90018,5.49756 l -26.2006,-15.19325 c 13.1003,-22.78986 37.80087,-23.68946 74.0017,-2.79875 20.70048,11.89471 33.20076,24.58906 37.60086,37.98314 2.90007,9.29579 1.80005,18.39175 -3.30007,27.28779 z m -26.2006,-15.19329 8.7002,-14.99327 c -9.10021,-2.19912 -19.00044,-6.39722 -29.70068,-12.59442 -12.30029,-7.09687 -21.20049,-10.3954 -26.80062,-9.99554 -3.30008,0.19983 -5.90014,1.99909 -7.90018,5.49754 -2.00005,3.39849 -2.30005,6.59706 -0.80002,9.59569 2.40005,5.19775 9.70022,11.29498 22.00051,18.39186 12.10027,6.99691 21.00048,10.19547 26.70061,9.69565 3.20007,-0.2999 5.80013,-2.09906 7.80018,-5.59751 z"
   id="path1738"
   style="stroke-width:0.999787" /><path
   class="st3"
   d="m 277.70638,1204.0644 -28.70066,-4.498 23.20053,-146.6348 28.70066,4.498 z m -9.00021,56.9746 -28.70066,-4.498 4.50011,-28.6871 28.70066,4.498 z"
   id="path1740"
   style="stroke-width:0.999787" /><path
   id="polygon1746"
   style="clip-rule:evenodd;fill:#009fc2;fill-rule:evenodd;stroke-width:0.999787"
   d="m 590.61357,705.28628 -36.50084,47.17901 15.60036,12.49446 34.10078,-43.78054 33.70078,43.78054 15.90036,-12.49446 -36.80084,-47.17901 36.80084,-47.37893 -15.90036,-12.5944 -33.70078,43.78053 -34.10078,-43.48066 -15.60036,12.29453 z"
   class="st3" /><path
   class="st3"
   d="m 201.00462,688.29383 v -11.49488 h -25.70059 l 9.70022,-40.18212 h -18.80043 l -10.00023,40.18212 h -30.70071 l 9.70023,-40.18212 h -18.80044 l -10.00023,40.18212 H 77.90179 v 11.49488 h 26.0006 l -6.30015,25.58863 H 69.10159 v 11.49488 h 25.70059 l -10.70025,43.48062 h 18.80043 l 10.70025,-43.68053 h 31.00071 l -10.70024,43.68053 h 18.80043 l 10.70024,-43.68053 h 28.50066 v -11.39494 h -25.70059 l 6.30014,-25.58861 h 28.50066 z m -47.7011,0 -6.30014,25.58863 h -30.70071 l 6.30015,-25.58863 z"
   id="path1752"
   style="stroke-width:0.999787" /><path
   id="polygon1754"
   style="clip-rule:evenodd;fill:#009fc2;fill-rule:evenodd;stroke-width:0.999787"
   d="m 872.92006,140.53748 10.30023,17.89204 103.20237,-11.59484 -11.7003,-20.29098 -79.00178,12.69436 50.40108,-62.172344 -11.70016,-20.290981 z"
   class="st3" /><path
   class="st3"
   d="m 677.81557,431.60801 -28.50065,-45.77963 28.50065,-46.07951 -15.10034,-13.09418 c -3.10007,4.99778 -34.10079,54.07595 -37.10085,59.17369 3.10007,4.99777 34.10078,54.3758 37.10085,59.17368 z m -46.90107,0 -28.20065,-45.77963 28.20065,-46.07951 -14.80034,-13.09418 c -3.30008,4.99778 -34.00078,54.07595 -37.10086,59.17369 3.10008,4.99777 33.80078,54.3758 37.10086,59.17368 z"
   id="path1760"
   style="stroke-width:0.999787" /><path
   class="st3"
   d="m 689.21584,537.06111 -9.50022,11.19501 c -10.80025,12.69436 -22.90053,18.99156 -36.30084,18.99156 -9.1002,0 -20.70047,-3.69836 -34.9008,-11.19502 -10.40024,-5.3976 -17.6004,-8.0964 -21.50049,-8.0964 -4.70011,0 -9.50022,2.99866 -14.50033,8.89604 l -9.20022,11.19502 -22.30051,-18.99155 9.50022,-10.89516 c 11.00025,-12.69435 23.20053,-18.99155 36.60084,-18.99155 9.10021,0 20.70048,3.69835 34.9008,11.19503 10.20024,5.3976 17.3004,8.0964 21.20049,8.0964 4.70011,0 9.50022,-2.99868 14.50033,-8.89605 l 9.50022,-11.19503 z"
   id="path1762"
   style="stroke-width:0.999787" /><path
   id="polygon1768"
   style="clip-rule:evenodd;fill:#009fc2;fill-rule:evenodd;stroke-width:0.999787"
   d="m 38.50088,901.79886 v -38.58287 h 29.10067 v 38.58287 h 38.50089 v 28.98709 H 67.60155 v 38.4829 H 38.50088 v -38.4829 H 0 v -28.98709 z"
   class="st3" /><path
   id="rect1774"
   style="clip-rule:evenodd;fill:#009fc2;fill-rule:evenodd;stroke-width:0.999787"
   d="m 120.74134,485.31298 17.0466,-23.45057 190.60479,138.42411 -17.0466,23.45057 z"
   class="st3" /><path
   id="polygon1780"
   style="clip-rule:evenodd;fill:#009fc2;fill-rule:evenodd;stroke-width:0.999787"
   d="m 349.00802,990.85927 20.40047,47.67873 50.60116,11.7948 -6.70015,28.2874 -64.90149,-15.0933 -26.1006,-61.2727 z"
   class="st3" /><path
   id="rect1786"
   style="clip-rule:evenodd;fill:#009fc2;fill-rule:evenodd;stroke-width:0.999729"
   d="m 551.98431,793.79279 8.9612,-27.56669 27.86494,9.04968 -8.96121,27.56669 z"
   class="st3" /><path
   id="rect1790"
   style="clip-rule:evenodd;fill:#009fc2;fill-rule:evenodd;stroke-width:0.999729"
   d="m 602.41314,810.20475 8.96121,-27.56679 27.86492,9.04968 -8.96121,27.56679 z"
   class="st3" /><path
   id="rect1794"
   style="clip-rule:evenodd;fill:#009fc2;fill-rule:evenodd;stroke-width:0.999729"
   d="m 652.87272,826.52194 8.96121,-27.56669 27.86496,9.04968 -8.9612,27.5667 z"
   class="st3" /><path
   id="polygon1798"
   style="clip-rule:evenodd;fill:#009fc2;fill-rule:evenodd;stroke-width:0.999787"
   d="m 1133.7261,138.03859 24.6005,42.38116 -25.4006,14.49354 -24.3005,-42.38114 -24.6006,42.38114 -25.1006,-14.49354 24.3006,-42.38116 h -48.9011 v -29.08706 h 48.9011 l -24.3006,-42.38115 25.1006,-14.493554 24.6006,42.381152 24.3005,-42.381152 25.4006,14.493554 -24.6005,42.38115 h 48.8011 v 29.08706 z"
   class="st3" /><path
   class="st3"
   d="m 1291.1297,254.88661 c 7.4001,14.59352 10.2002,27.8876 8.4002,39.88226 -0.9001,6.69703 -4.3001,14.79343 -10.2003,24.2892 -4.1001,6.69702 -6.3001,11.79476 -6.6001,15.2932 -0.7,5.59751 1.3,12.89427 5.9001,21.99022 l -25.9006,13.19414 c -7.7002,-15.0933 -10.6002,-28.58729 -8.8002,-40.58196 1,-6.99689 4.5001,-15.2932 10.4003,-24.98889 3.9,-6.59706 6.1001,-11.59483 6.5001,-14.89337 0.6,-5.29764 -1.3,-12.29452 -5.7001,-20.89071 -5.3002,-10.39537 -11.7003,-16.29275 -19.0005,-17.59217 -6.0001,-1.09951 -14.2003,0.99956 -24.7005,6.2972 -10.4003,5.29765 -17.0004,10.69524 -19.6005,16.1928 -3.3001,6.69702 -2.3,15.19324 3.1001,25.68857 l -26.1006,13.29408 c -6.9002,-13.59395 -9.3002,-26.48821 -7.2002,-38.58283 2.9001,-17.29231 15.1004,-31.486 36.6009,-42.48111 21.6005,-10.99511 40.2009,-12.49444 55.9012,-4.69791 11.2003,5.49756 20.1005,14.99334 27.0007,28.58728 z m 23.9005,153.13189 -25.9006,13.19414 -13.2003,-25.88849 25.9006,-13.19413 z"
   id="path1804"
   style="stroke-width:0.999787" /><path
   class="st3"
   d="M 1006.0231,743.06947 H 889.72044 v -28.9871 h 116.40266 v 28.9871 z m 0,73.86718 H 889.72044 v -28.98718 h 116.40266 v 28.98718 z"
   id="path1810"
   style="stroke-width:0.999787" /><path
   class="st3"
   d="m 785.81806,985.96141 c -19.40045,23.08979 -41.40095,26.98799 -65.90152,11.59488 l -9.20021,10.99511 -19.70045,-16.49266 9.20021,-10.99519 c -19.10044,-21.59031 -19.00044,-43.88037 0.30001,-66.8702 l 19.70045,16.49264 c -9.40022,11.19501 -10.50024,21.39048 -3.30008,30.48644 l 35.80083,-42.58104 c -7.20017,-11.69484 -11.40027,-21.69038 -12.50029,-30.18656 -1.80004,-12.29453 1.80004,-23.68947 10.70024,-34.2848 19.30045,-22.98972 41.20095,-26.9879 65.90152,-11.89467 l 8.40019,-9.99555 19.70045,16.49264 -8.60019,10.19547 c 19.40044,21.49045 19.50044,43.78052 0.1,66.87031 L 816.71877,909.2955 c 9.20021,-10.99509 10.30023,-21.19056 3.10007,-30.68629 l -35.10081,41.8813 c 7.10016,11.79481 11.20026,21.99028 12.30028,30.68638 1.50004,12.39449 -2.20005,23.98936 -11.20025,34.78452 z m -15.50036,-88.56058 29.70068,-35.38431 c -10.40024,-5.29762 -20.20046,-2.39885 -29.50068,8.49627 -6.00013,7.19674 -6.10014,16.19274 -0.2,26.88804 z m -4.3001,71.96798 c 6.40015,-7.59659 6.70016,-16.89249 0.90002,-27.98753 l -30.4007,36.18392 c 10.40024,5.69747 20.20047,2.99863 29.50068,-8.19639 z"
   id="path1812"
   style="stroke-width:0.999787" /><path
   class="st3"
   d="m 557.61281,962.27194 -17.4004,-14.09369 c -6.30014,7.79653 -15.20035,8.09642 -28.00064,-2.199 l -64.60148,-52.27681 10.00022,-12.39449 -16.90038,-13.69392 -82.90191,102.35447 16.90039,13.69393 10.20023,-12.59442 100.0023,80.96399 18.60043,-22.9897 -100.0023,-80.96401 25.30058,-31.1861 65.90152,53.3762 c 24.30056,19.59133 40.90094,19.09151 62.90144,-7.99645 z"
   id="path1814"
   style="stroke-width:0.999787" /><path
   class="st3"
   d="m 832.61913,641.31474 -26.50061,-15.2932 12.9003,-22.29009 26.50061,15.2932 z m -52.70121,-30.38649 -26.2006,-15.19324 12.9003,-22.29009 26.2006,15.19325 z m 10.40024,142.23669 c -5.10012,8.89604 -12.50029,14.39368 -22.00051,16.49274 -13.80031,2.89866 -31.00071,-1.59934 -51.70118,-13.494 -36.20084,-20.89074 -47.7011,-42.68105 -34.5008,-65.47091 5.10012,-8.89605 12.50029,-14.3936 22.00051,-16.49266 13.80032,-2.89871 31.10071,1.59929 52.00119,13.6939 12.10028,6.99689 21.00049,10.19547 26.70062,9.69569 3.30007,-0.19991 5.80013,-1.99911 7.70017,-5.29764 2.00005,-3.39849 2.30006,-6.59706 0.80002,-9.59574 -2.40005,-5.19768 -9.60022,-11.29497 -21.7005,-18.29186 -12.30028,-7.09684 -21.30049,-10.39537 -27.00062,-9.79564 -3.30007,0.19991 -5.90013,1.99911 -7.90018,5.49755 l -26.2006,-15.09328 c 13.1003,-22.78986 37.80087,-23.68946 74.0017,-2.79875 20.70048,11.8947 33.20076,24.58906 37.60086,37.9831 2.90007,9.29586 1.80005,18.39182 -3.30007,27.28786 z m -26.3006,-15.1932 8.7002,-14.99333 c -9.10021,-2.19903 -19.00044,-6.39715 -29.70069,-12.5944 -12.30028,-7.09684 -21.20048,-10.39538 -26.80061,-9.99555 -3.30008,0.19991 -5.90014,1.99911 -7.90018,5.49755 -2.00005,3.39849 -2.30006,6.59707 -0.80002,9.59573 2.40005,5.19769 9.70022,11.29498 22.0005,18.39183 12.10028,6.99688 21.00049,10.19541 26.70062,9.69569 3.20007,-0.2999 5.80013,-2.09908 7.80018,-5.59752 z"
   id="path1820"
   style="stroke-width:0.999787" /><path
   class="st3"
   d="m 618.1142,1071.1235 -28.70066,-4.498 23.20054,-146.63471 28.70066,4.498 z m -9.10021,57.0746 -28.70066,-4.498 4.50011,-28.6872 28.70066,4.498 z"
   id="path1822"
   style="stroke-width:0.999787" /><path
   id="polygon1828"
   style="clip-rule:evenodd;fill:#009fc2;fill-rule:evenodd;stroke-width:0.999787"
   d="m 989.72266,631.21923 -36.5008,47.07905 15.6004,12.5944 34.00074,-43.78053 33.8008,43.78053 15.9004,-12.5944 -36.8009,-47.07905 36.8009,-47.47889 -15.9004,-12.59439 -33.8008,43.88048 -34.00074,-43.58062 -15.6004,12.29453 z"
   class="st3" /><path
   class="st3"
   d="m 541.31244,555.45292 v -11.49488 h -25.80059 l 9.70022,-40.18213 h -18.70043 l -10.00023,40.18213 H 465.8107 l 9.70023,-40.18213 h -18.80044 l -10.00023,40.18213 h -28.50065 v 11.49488 h 26.0006 l -6.30015,25.58862 h -28.50065 v 11.49489 H 435.11 l -10.70025,43.48066 h 18.80043 l 10.70025,-43.68057 h 31.00071 l -10.70024,43.68057 h 18.80043 l 10.70024,-43.68057 h 28.50066 v -11.39494 h -25.70059 l 6.30014,-25.58861 h 28.50066 z m -47.7011,0 -6.30014,25.58862 h -30.70071 l 6.30015,-25.58862 z"
   id="path1834"
   style="stroke-width:0.999787" /><path
   id="polygon1836"
   style="clip-rule:evenodd;fill:#009fc2;fill-rule:evenodd;stroke-width:0.999787"
   d="M 1283.6295,83.762733 1293.9297,101.65478 1397.1321,90.059933 1385.4318,69.768962 1306.43,82.56327 1356.8312,20.290963 1345.0309,-8.5324692e-6 Z"
   class="st3" /><path
   class="st3"
   d="m 1018.1234,298.66715 -28.50074,-45.77965 28.50074,-46.07949 -15.1004,-13.09418 c -3.10004,4.99778 -34.10074,54.07595 -37.10084,59.17367 3.1001,4.99779 34.10084,54.37582 37.10084,59.17368 z m -46.90114,0 -28.2006,-45.77965 28.2006,-46.07949 -14.8003,-13.09418 c -3.3001,4.99778 -34.00076,54.07595 -37.10086,59.17367 3.1001,4.99779 33.80076,54.37582 37.10086,59.17368 z"
   id="path1842"
   style="stroke-width:0.999787" /><path
   class="st3"
   d="m 836.01921,28.187453 -0.1,14.693463 c -0.1,16.592619 -5.30012,29.187018 -15.60036,37.883154 -7.00016,5.897372 -18.30042,10.495326 -33.90078,13.893817 -11.50026,2.598846 -18.70043,5.097737 -21.7005,7.596623 -3.60008,2.99867 -5.40012,8.39627 -5.40012,16.19279 l 0.1,14.49356 -29.30067,-0.19991 0.3,-14.3936 c 0.30001,-16.69257 5.50013,-29.386926 15.80037,-37.983107 7.00016,-5.897372 18.30042,-10.495327 33.90078,-13.893817 11.30026,-2.398927 18.50042,-4.897818 21.50049,-7.396709 3.60008,-2.998663 5.40012,-8.396263 5.40012,-16.192801 l 0.10001,-14.693463 z"
   id="path1844"
   style="stroke-width:0.999787" /><path
   id="polygon1850"
   style="clip-rule:evenodd;fill:#009fc2;fill-rule:evenodd;stroke-width:0.999787"
   d="M 220.70507,792.04771 V 753.5648 h 29.00067 v 38.48291 h 38.60088 v 28.98709 h -38.60088 v 38.48291 H 220.70507 V 821.0348 h -38.50088 v -28.98709 z"
   class="st3" /><path
   class="st4"
   d="M 486.61118,1457.0519"
   id="path1856"
   style="stroke-width:0.999787" /><path
   class="st5"
   d="M 486.61118,1457.0519"
   id="path1858" /><path
   id="polygon1860"
   style="fill:#6d6e71;stroke-width:0.999787"
   d="m 3744.386,1272.9338 -42.9009,24.789 -13.1003,-22.7899 42.8009,-24.789 z"
   class="st6" /><path
   class="st1"
   d="m 2081.2478,1461.0501 h -28.7006 v -73.1675 c 0,-14.8934 -2.5001,-25.6885 -7.5002,-32.2856 -6.1001,-8.2963 -16.8004,-12.3945 -32.1007,-12.3945 -15.3004,0 -26.1006,4.0982 -32.3008,12.3945 -5.0001,6.5971 -7.5002,17.3922 -7.5002,32.2856 v 73.1675 h -28.7006 v -73.1675 c 0,-48.9782 22.8005,-73.4672 68.5016,-73.4672 45.501,0 68.3015,24.489 68.3015,73.4672 z"
   id="path1862"
   style="stroke-width:0.999787" /><path
   class="st1"
   d="m 2229.6512,1417.0696 c 0,29.287 -19.8004,43.8805 -59.4013,43.8805 -22.7006,0 -39.0009,-5.2976 -48.9012,-15.793 -6.8001,-7.3966 -10.2002,-16.7925 -10.2002,-28.1874 0,-11.395 3.4001,-20.7907 10.2002,-28.1875 9.9003,-10.4953 26.3006,-15.793 48.9012,-15.793 13.4003,0 22.4005,-1.7991 26.8006,-5.4975 2.6,-1.9991 3.9001,-5.1977 3.9001,-9.3958 0,-4.398 -1.3001,-7.5966 -3.9001,-9.6957 -4.4001,-3.6983 -13.4003,-5.4976 -26.8006,-5.4976 -13.3003,0 -22.1005,1.7993 -26.5006,5.4976 -2.6001,1.9992 -3.9001,5.2977 -3.9001,9.6957 h -28.7007 c 0,-11.3949 3.4001,-20.7908 10.2002,-28.1875 9.9003,-10.4953 26.3006,-15.7929 48.9012,-15.7929 39.6009,0 59.4013,14.5935 59.4013,43.8805 z m -28.7006,0 v -19.2914 c -8.5002,2.8988 -18.7005,4.3981 -30.7007,4.3981 -13.3003,0 -22.1005,1.7992 -26.5006,5.2977 -2.6001,1.999 -3.9001,5.2976 -3.9001,9.6956 0,4.398 1.3,7.5966 3.9001,9.6958 4.4001,3.6982 13.3003,5.4975 26.5006,5.4975 13.4003,0 22.4005,-1.7993 26.8006,-5.4975 2.6,-2.0992 3.9001,-5.2978 3.9001,-9.7958 z"
   id="path1866"
   style="stroke-width:0.999787" /><path
   class="st1"
   d="m 2484.7571,1387.7827 c 0,48.7783 -22.8005,73.1674 -68.5016,73.1674 h -39.5009 v 57.7744 h -28.7006 v -130.9418 c 0,-48.9782 22.8005,-73.4673 68.3015,-73.4673 45.5011,0 68.4016,24.4891 68.4016,73.4673 z m -28.8007,0 c 0,-14.8933 -2.5,-25.6886 -7.5001,-32.2857 -6.3002,-8.2963 -17.0004,-12.3944 -32.3008,-12.3944 -15.3003,0 -26.0006,4.0981 -32.1007,12.3944 -5.0001,6.5971 -7.5002,17.3924 -7.5002,32.2857 v 44.4802 h 39.5009 c 15.3004,0 26.1006,-4.0982 32.3008,-12.1945 5.2001,-6.697 7.6001,-17.4923 7.6001,-32.2857 z"
   id="path1870"
   style="stroke-width:0.999787" /><path
   class="st1"
   d="m 2646.6608,1387.7827 c 0,48.7783 -22.8005,73.1674 -68.3016,73.1674 -45.701,0 -68.5015,-24.3891 -68.5015,-73.1674 0,-48.9782 22.8005,-73.4673 68.5015,-73.4673 45.6011,0 68.3016,24.4891 68.3016,73.4673 z m -28.7006,0 c 0,-14.8933 -2.5001,-25.6886 -7.5002,-32.2857 -6.1002,-8.2963 -16.8004,-12.3944 -32.1008,-12.3944 -15.3003,0 -26.0006,4.0981 -32.1007,12.3944 -5.0001,6.5971 -7.5002,17.3924 -7.5002,32.2857 0,14.8934 2.5001,25.6885 7.5002,32.2857 6.1001,8.0963 16.8004,12.1945 32.1007,12.1945 15.3004,0 26.0006,-4.0982 32.1008,-12.1945 5.0001,-6.4972 7.5002,-17.2924 7.5002,-32.2857 z"
   id="path1874"
   style="stroke-width:0.999787" /><path
   class="st1"
   d="m 2813.0646,1461.0501 h -28.7006 v -73.1675 c 0,-14.8934 -2.5001,-25.6885 -7.5002,-32.2856 -6.1001,-8.2963 -16.8004,-12.3945 -32.1007,-12.3945 -15.3004,0 -26.1006,4.0982 -32.3008,12.3945 -5.0001,6.5971 -7.5001,17.3922 -7.5001,32.2856 v 73.1675 h -28.7007 v -73.1675 c 0,-48.9782 22.8005,-73.4672 68.5016,-73.4672 45.501,0 68.3015,24.489 68.3015,73.4672 z"
   id="path1878"
   style="stroke-width:0.999787" /><path
   class="st1"
   d="m 2917.267,1461.35 c -48.8011,0 -73.2016,-17.7921 -73.2016,-53.2764 v -151.1327 h 28.7006 v 57.7743 h 44.501 v 28.6872 h -44.501 v 64.6712 c 0,7.6966 2.5001,13.3941 7.5002,17.0925 6.8001,4.9978 19.2004,7.4966 37.0008,7.4966 z"
   id="path1882"
   style="stroke-width:0.999787" /><path
   class="st1"
   d="m 3060.1703,1417.0696 c 0,29.287 -19.8004,43.8805 -59.4013,43.8805 -22.7006,0 -39.0009,-5.2976 -48.9012,-15.793 -6.8001,-7.3966 -10.2002,-16.7925 -10.2002,-28.1874 0,-11.395 3.4001,-20.7907 10.2002,-28.1875 9.9003,-10.4953 26.3006,-15.793 48.9012,-15.793 13.4003,0 22.4005,-1.7991 26.8006,-5.4975 2.6,-1.9991 3.9001,-5.1977 3.9001,-9.3958 0,-4.398 -1.3001,-7.5966 -3.9001,-9.6957 -4.4001,-3.6983 -13.4003,-5.4976 -26.8006,-5.4976 -13.3004,0 -22.1006,1.7993 -26.5007,5.4976 -2.6,1.9992 -3.9,5.2977 -3.9,9.6957 h -28.8007 c 0,-11.3949 3.4001,-20.7908 10.2002,-28.1875 9.9003,-10.4953 26.3006,-15.7929 48.9011,-15.7929 39.601,0 59.4014,14.5935 59.4014,43.8805 v 59.0736 z m -28.7006,0 v -19.2914 c -8.5002,2.8988 -18.7005,4.3981 -30.7007,4.3981 -13.3004,0 -22.1006,1.7992 -26.5007,5.2977 -2.6,1.999 -3.9,5.2976 -3.9,9.6956 0,4.398 1.3,7.5966 3.9,9.6958 4.4001,3.6982 13.3003,5.4975 26.5007,5.4975 13.4003,0 22.4005,-1.7993 26.8006,-5.4975 2.6,-2.0992 3.9001,-5.2978 3.9001,-9.7958 z"
   id="path1886"
   style="stroke-width:0.999787" /><path
   class="st1"
   d="m 3312.4761,1387.7827 c 0,48.9782 -22.8005,73.4673 -68.3016,73.4673 -45.701,0 -68.5015,-24.4891 -68.5015,-73.4673 0,-48.7783 22.8005,-73.1675 68.5015,-73.1675 h 39.501 v -57.7743 h 28.7006 v 130.9418 z m -28.7006,0 v -44.4802 h -39.501 c -15.3003,0 -26.0006,4.0981 -32.1007,12.1945 -5.0001,6.5971 -7.5002,17.3924 -7.5002,32.2857 0,14.8934 2.5001,25.6885 7.5002,32.2857 6.1001,8.2962 16.8004,12.3945 32.1007,12.3945 15.3004,0 26.0006,-4.0983 32.1008,-12.3945 4.9001,-6.4972 7.4002,-17.2924 7.4002,-32.2857 z"
   id="path1890"
   style="stroke-width:0.999787" /><path
   class="st1"
   d="m 3461.1795,1417.0696 c 0,29.287 -19.8004,43.8805 -59.4013,43.8805 -22.7006,0 -39.0009,-5.2976 -48.9012,-15.793 -6.8001,-7.3966 -10.2002,-16.7925 -10.2002,-28.1874 0,-11.395 3.4001,-20.7907 10.2002,-28.1875 9.9003,-10.4953 26.3006,-15.793 48.9012,-15.793 13.4003,0 22.4005,-1.7991 26.8006,-5.4975 2.6,-1.9991 3.9001,-5.1977 3.9001,-9.3958 0,-4.398 -1.3001,-7.5966 -3.9001,-9.6957 -4.4001,-3.6983 -13.4003,-5.4976 -26.8006,-5.4976 -13.3003,0 -22.1005,1.7993 -26.5006,5.4976 -2.6001,1.9992 -3.9001,5.2977 -3.9001,9.6957 h -28.7007 c 0,-11.3949 3.4001,-20.7908 10.2002,-28.1875 9.9003,-10.4953 26.3006,-15.7929 48.9012,-15.7929 39.6009,0 59.4013,14.5935 59.4013,43.8805 z m -28.7006,0 v -19.2914 c -8.5002,2.8988 -18.7005,4.3981 -30.7007,4.3981 -13.3003,0 -22.1005,1.7992 -26.5006,5.2977 -2.6001,1.999 -3.9001,5.2976 -3.9001,9.6956 0,4.398 1.3,7.5966 3.9001,9.6958 4.4001,3.6982 13.3003,5.4975 26.5006,5.4975 13.4003,0 22.4005,-1.7993 26.8006,-5.4975 2.6,-2.0992 3.9001,-5.2978 3.9001,-9.7958 z"
   id="path1894"
   style="stroke-width:0.999787" /><path
   class="st1"
   d="m 3652.9839,1461.0501 c -49.0011,0 -73.5017,-17.6921 -73.5017,-53.0764 v -151.1328 h 28.7007 v 151.1328 c 0,7.5967 2.6001,13.1942 7.7002,16.8925 6.8001,4.9978 19.2004,7.4967 37.0008,7.4967 v 28.6872 z"
   id="path1898"
   style="stroke-width:0.999787" /><path
   id="rect1902"
   style="clip-rule:evenodd;fill:#6d6e71;fill-rule:evenodd;stroke-width:0.999787"
   d="m 3672.8844,1314.3154 h 28.7007 v 146.7347 h -28.7007 z"
   class="st1" /><path
   class="st1"
   d="m 3869.1889,1461.0501 h -28.7007 v -73.1675 c 0,-14.8934 -2.5,-25.6885 -7.5001,-32.2856 -6.1002,-8.2963 -16.8004,-12.3945 -32.1008,-12.3945 -15.3003,0 -26.1006,4.0982 -32.3007,12.3945 -5.0001,6.5971 -7.5002,17.3922 -7.5002,32.2856 v 73.1675 h -28.7006 v -73.1675 c 0,-48.9782 22.8005,-73.4672 68.5015,-73.4672 45.5011,0 68.3016,24.489 68.3016,73.4672 z"
   id="path1906"
   style="stroke-width:0.999787" /><path
   class="st1"
   d="m 4035.2927,1465.1482 c 0,35.6842 -22.8005,53.5763 -68.3015,53.5763 h -54.2013 v -28.6873 h 54.2013 c 17.1003,0 28.7006,-2.9987 34.5007,-9.096 3.3001,-3.2985 5.0002,-8.5961 5.0002,-15.793 v -4.0981 h -39.5009 c -45.7011,0 -68.5016,-24.3891 -68.5016,-73.1675 0,-48.9782 22.8005,-73.4672 68.5016,-73.4672 45.501,0 68.3015,24.489 68.3015,73.4672 z m -28.8006,-32.8853 v -44.4802 c 0,-14.8933 -2.5001,-25.6886 -7.5002,-32.2857 -6.1002,-8.2963 -16.8004,-12.3944 -32.1007,-12.3944 -15.3004,0 -26.1006,4.0981 -32.3008,12.3944 -5.0001,6.5971 -7.5002,17.3924 -7.5002,32.2857 0,14.6934 2.5001,25.4887 7.5002,32.2857 6.3002,8.0963 17.0004,12.1945 32.3008,12.1945 z"
   id="path1910"
   style="stroke-width:0.999787" /><path
   class="st1"
   d="m 4203.5966,1387.7827 c 0,48.7783 -22.8005,73.1674 -68.5016,73.1674 -45.501,0 -68.3016,-24.3891 -68.3016,-73.1674 v -73.4673 h 28.7007 v 73.4673 c 0,14.8934 2.5001,25.6885 7.5002,32.2857 6.1001,8.0963 16.8004,12.1945 32.1007,12.1945 15.3004,0 26.0006,-4.0982 32.1008,-12.1945 5.0001,-6.5972 7.5001,-17.3923 7.5001,-32.2857 v -73.4673 h 29.0007 v 73.4673 z"
   id="path1914"
   style="stroke-width:0.999787" /><path
   class="st1"
   d="m 4352,1417.0696 c 0,29.287 -19.8005,43.8805 -59.4014,43.8805 -22.7005,0 -39.0009,-5.2976 -48.9011,-15.793 -6.8001,-7.3966 -10.2002,-16.7925 -10.2002,-28.1874 0,-11.395 3.4001,-20.7907 10.2002,-28.1875 9.9002,-10.4953 26.3006,-15.793 48.9011,-15.793 13.4003,0 22.4005,-1.7991 26.8007,-5.4975 2.6,-1.9991 3.9,-5.1977 3.9,-9.3958 0,-4.398 -1.3,-7.5966 -3.9,-9.6957 -4.4002,-3.6983 -13.4004,-5.4976 -26.8007,-5.4976 -13.3003,0 -22.1005,1.7993 -26.5006,5.4976 -2.6,1.9992 -3.9001,5.2977 -3.9001,9.6957 h -28.7006 c 0,-11.3949 3.4001,-20.7908 10.2002,-28.1875 9.9002,-10.4953 26.3006,-15.7929 48.9011,-15.7929 39.6009,0 59.4014,14.5935 59.4014,43.8805 z m -28.7007,0 v -19.2914 c -8.5002,2.8988 -18.7004,4.3981 -30.7007,4.3981 -13.3003,0 -22.1005,1.7992 -26.5006,5.2977 -2.6,1.999 -3.9001,5.2976 -3.9001,9.6956 0,4.398 1.3001,7.5966 3.9001,9.6958 4.4001,3.6982 13.3003,5.4975 26.5006,5.4975 13.4003,0 22.4005,-1.7993 26.8007,-5.4975 2.6,-2.0992 3.9,-5.2978 3.9,-9.7958 z"
   id="path1918"
   style="stroke-width:0.999787" /><path
   class="st1"
   d="m 1994.9458,1208.0626 c -3.1,11.7948 -11.7002,17.5922 -25.6005,17.5922 -17.9005,0 -26.9007,-9.6957 -26.9007,-28.9872 0,-19.1913 9.0002,-28.8871 26.9007,-28.8871 13.9003,0 22.5005,5.8974 25.6005,17.5923 h -12.0002 c -2.2001,-4.1982 -6.7002,-6.2973 -13.6003,-6.2973 -6.0002,0 -10.2003,1.5993 -12.6003,4.7979 -2.0001,2.5989 -2.9001,6.8969 -2.9001,12.6944 0,5.8973 1,10.0955 2.9001,12.6943 2.4,3.2985 6.6001,4.8978 12.6003,4.8978 6.8001,0 11.4002,-2.099 13.6003,-6.2971 h 12.0002 z"
   id="path1924"
   style="stroke-width:0.999787" /><path
   class="st1"
   d="m 2058.2473,1225.7548 h -26.9006 c -18.0004,0 -27.0006,-9.5958 -27.0006,-28.8872 0,-19.2915 9.0002,-28.9871 27.0006,-28.9871 17.9004,0 26.9006,9.6956 26.9006,28.9871 v 5.6975 h -42.301 c 1.2,7.8964 6.3002,11.8947 15.4004,11.8947 h 26.9006 z m -11.7003,-34.4847 c -1.2,-7.9965 -6.2001,-11.9947 -15.2003,-11.9947 -9.1002,0 -14.2004,3.9982 -15.4004,11.9947 z"
   id="path1926"
   style="stroke-width:0.999787" /><path
   class="st1"
   d="m 2125.2488,1225.7548 h -11.3002 v -28.8872 c 0,-5.8973 -1,-10.0955 -2.9001,-12.6943 -2.4,-3.2985 -6.6001,-4.8979 -12.6003,-4.8979 -6.0001,0 -10.3002,1.5994 -12.7003,4.8979 -2,2.5988 -2.9,6.8968 -2.9,12.6943 v 28.8872 h -11.3003 v -28.8872 c 0,-19.2915 9.0002,-28.9871 27.0006,-28.9871 17.9004,0 26.9006,9.6956 26.9006,28.9871 v 28.8872 z"
   id="path1928"
   style="stroke-width:0.999787" /><path
   class="st1"
   d="m 2167.4498,1225.8547 c -19.2004,0 -28.9007,-6.9968 -28.9007,-20.9907 v -59.5735 h 11.3003 v 22.7899 h 17.5004 v 11.295 h -17.5004 v 25.4886 c 0,2.9988 1,5.2976 2.9001,6.797 2.7,1.9991 7.6001,2.8988 14.6003,2.8988 v 11.2949 z"
   id="path1930"
   style="stroke-width:0.999787" /><path
   class="st1"
   d="m 2207.6507,1179.2754 c -7.0001,0 -11.9002,0.9996 -14.6003,2.8987 -2.0001,1.4994 -2.9001,3.6984 -2.9001,6.797 v 36.7837 h -11.3002 v -36.7837 c 0,-13.9937 9.6002,-20.9906 28.9006,-20.9906 v 11.2949 z"
   id="path1932"
   style="stroke-width:0.999787" /><path
   class="st1"
   d="m 2271.1522,1196.8676 c 0,19.1915 -9.0002,28.8872 -26.9006,28.8872 -18.0004,0 -27.0007,-9.5958 -27.0007,-28.8872 0,-19.2915 9.0003,-28.9871 27.0007,-28.9871 17.9004,0.1 26.9006,9.6956 26.9006,28.9871 z m -11.4003,0 c 0,-5.8973 -1,-10.0955 -2.9,-12.6943 -2.4001,-3.2985 -6.6002,-4.8979 -12.6003,-4.8979 -6.0002,0 -10.2003,1.5994 -12.6003,4.8979 -2.0001,2.5988 -2.9001,6.8968 -2.9001,12.6943 0,5.8974 1,10.0955 2.9001,12.6944 2.4,3.1985 6.6001,4.7979 12.6003,4.7979 6.0001,0 10.2002,-1.5994 12.6003,-4.7979 1.9,-2.4989 2.9,-6.797 2.9,-12.6944 z"
   id="path1934"
   style="stroke-width:0.999787" /><path
   class="st1"
   d="m 2372.7545,1196.8676 c 0,19.2914 -9.0002,28.9871 -26.9006,28.9871 -18.0004,0 -27.0006,-9.6957 -27.0006,-28.9871 0,-19.1915 9.0002,-28.8871 27.0006,-28.8871 h 15.6004 v -22.7899 h 11.3002 z m -11.4002,0 v -17.4922 h -15.6004 c -6.0001,0 -10.2002,1.5992 -12.6003,4.7979 -2,2.5988 -2.9001,6.8968 -2.9001,12.6943 0,5.8974 1.0001,10.0955 2.9001,12.6944 2.4001,3.2985 6.6002,4.8978 12.6003,4.8978 6.0001,0 10.2002,-1.5993 12.6003,-4.8978 2.1,-2.4989 3.0001,-6.797 3.0001,-12.6944 z"
   id="path1936"
   style="stroke-width:0.999787" /><path
   class="st1"
   d="m 2439.256,1225.7548 h -26.9006 c -18.0004,0 -27.0006,-9.5958 -27.0006,-28.8872 0,-19.2915 9.0002,-28.9871 27.0006,-28.9871 17.9004,0 26.9006,9.6956 26.9006,28.9871 v 5.6975 h -42.3009 c 1.2,7.8964 6.3001,11.8947 15.4003,11.8947 h 26.9006 z m -11.7002,-34.4847 c -1.2,-7.9965 -6.2002,-11.9947 -15.2004,-11.9947 -9.1002,0 -14.2003,3.9982 -15.4003,11.9947 z"
   id="path1938"
   style="stroke-width:0.999787" /><path
   class="st1"
   d="m 2541.3584,1225.7548 h -26.9006 c -18.0004,0 -27.0006,-9.5958 -27.0006,-28.8872 0,-19.2915 9.0002,-28.9871 27.0006,-28.9871 17.9004,0 26.9006,9.6956 26.9006,28.9871 v 5.6975 h -42.301 c 1.2001,7.8964 6.3002,11.8947 15.4004,11.8947 h 26.9006 z m -11.6003,-34.4847 c -1.2,-7.9965 -6.2001,-11.9947 -15.2003,-11.9947 -9.1002,0 -14.2003,3.9982 -15.4004,11.9947 z"
   id="path1940"
   style="stroke-width:0.999787" /><path
   class="st1"
   d="m 2601.2598,1185.2728 h -11.3003 c 0,-1.6993 -0.5,-2.9987 -1.5,-3.7983 -1.7001,-1.4994 -5.2001,-2.1991 -10.5003,-2.1991 -5.2001,0 -8.7002,0.6997 -10.5002,2.1991 -1,0.7996 -1.5,2.099 -1.5,3.7983 0,2.199 0.7,3.5983 2.1,4.398 1.5,0.6997 4.9001,1.2995 10.3002,1.5993 6.6002,0.3998 11.5003,1.3994 14.7004,2.8987 5.4001,2.7987 8.2002,7.5966 8.2002,14.3936 0,11.4949 -7.8002,17.2923 -23.3006,17.2923 -15.5003,0 -23.3005,-5.7974 -23.3005,-17.2923 h 11.3003 c 0,1.6992 0.5,2.9987 1.5,3.7984 1.7,1.4992 5.2001,2.199 10.5002,2.199 5.2002,0 8.7002,-0.6998 10.5003,-2.199 1,-0.7997 1.5,-2.0992 1.5,-3.7984 0,-2.099 -0.7,-3.4984 -2,-4.1981 -1.5001,-0.7997 -5.0001,-1.3994 -10.3003,-1.6993 -6.7001,-0.3997 -11.6002,-1.3994 -14.7003,-2.8987 -5.5001,-2.6988 -8.3002,-7.4967 -8.3002,-14.3935 0,-11.4949 7.8002,-17.2924 23.3005,-17.2924 15.6004,-0.1 23.3006,5.5975 23.3006,17.1924 z"
   id="path1942"
   style="stroke-width:0.999787" /><path
   class="st1"
   d="m 2642.0607,1225.8547 c -19.2004,0 -28.9007,-6.9968 -28.9007,-20.9907 v -59.5735 h 11.3003 v 22.7899 h 17.5004 v 11.295 h -17.5004 v 25.4886 c 0,2.9988 1,5.2976 2.9001,6.797 2.7,1.9991 7.6001,2.8988 14.6003,2.8988 v 11.2949 z"
   id="path1944"
   style="stroke-width:0.999787" /><path
   class="st1"
   d="m 2707.3622,1196.8676 c 0,19.1915 -9.0002,28.8872 -27.0006,28.8872 -17.9004,0 -26.9006,-9.5958 -26.9006,-28.8872 v -28.9871 h 11.3002 v 28.9871 c 0,5.8974 1.0001,10.0955 2.9001,12.6944 2.4001,3.1985 6.6001,4.7979 12.6003,4.7979 6.0001,0 10.2002,-1.5994 12.6003,-4.7979 2,-2.5989 2.9,-6.897 2.9,-12.6944 v -28.9871 h 11.4003 v 28.9871 z"
   id="path1946"
   style="stroke-width:0.999787" /><path
   class="st1"
   d="m 2773.6637,1196.8676 c 0,19.2914 -9.0002,28.9871 -26.9006,28.9871 -18.0004,0 -27.0006,-9.6957 -27.0006,-28.9871 0,-19.1915 9.0002,-28.8871 27.0006,-28.8871 h 15.6004 v -22.7899 h 11.3002 z m -11.3002,0 v -17.4922 h -15.6004 c -6.0001,0 -10.2002,1.5992 -12.6003,4.7979 -2,2.5988 -2.9,6.8968 -2.9,12.6943 0,5.8974 1,10.0955 2.9,12.6944 2.4001,3.2985 6.6002,4.8978 12.6003,4.8978 6.0002,0 10.2002,-1.5993 12.6003,-4.8978 2.0001,-2.4989 3.0001,-6.797 3.0001,-12.6944 z"
   id="path1948"
   style="stroke-width:0.999787" /><path
   class="st1"
   d="m 2839.5652,1196.8676 c 0,19.1915 -9.0002,28.8872 -26.9006,28.8872 -18.0004,0 -27.0006,-9.5958 -27.0006,-28.8872 0,-19.2915 9.0002,-28.9871 27.0006,-28.9871 18.0004,0.1 26.9006,9.6956 26.9006,28.9871 z m -11.3002,0 c 0,-5.8973 -1,-10.0955 -2.9001,-12.6943 -2.4,-3.2985 -6.6001,-4.8979 -12.6003,-4.8979 -6.0001,0 -10.2002,1.5994 -12.6003,4.8979 -2,2.5988 -2.9,6.8968 -2.9,12.6943 0,5.8974 1,10.0955 2.9,12.6944 2.4001,3.1985 6.6002,4.7979 12.6003,4.7979 6.0002,0 10.2003,-1.5994 12.6003,-4.7979 1.9001,-2.4989 2.9001,-6.797 2.9001,-12.6944 z"
   id="path1950"
   style="stroke-width:0.999787" />
</svg>
