<svg width="100%" height="100%" viewBox="0 0 32 32" fill="var(--color-a)"><path
     d="m 31.967709,15.988542 c 0.0063,2.992709 -0.747916,5.445834 -2.230208,7.358334 -1.39375,1.779166 -3.033333,2.672916 -4.915625,2.663541 -1.673959,0.0042 -2.979167,-0.701041 -3.921875,-2.128125 -1.176042,0.692709 -2.796875,1.046875 -4.870834,1.048959 -4.851042,-0.0052 -7.2770834,-1.786459 -7.2729167,-5.363542 0.00625,-1.39375 0.4197917,-2.542708 1.2489587,-3.433333 1.217708,-1.280209 3.220833,-1.920834 6.022917,-1.927084 1.621875,-0.0073 2.711458,-0.220833 3.24375,-0.676042 0.319791,-0.251041 0.464583,-0.63125 0.478125,-1.153125 0,-0.545833 -0.159375,-0.934375 -0.470834,-1.185416 -0.541666,-0.448959 -1.61875,-0.673959 -3.247916,-0.679167 -1.642709,0.0021 -2.743751,0.222917 -3.277084,0.678125 -0.319792,0.25 -0.477083,0.638542 -0.476042,1.184375 l -3.5166664,0.0052 c 0.00313,-3.5770831 2.4208334,-5.3656248 7.2718754,-5.3604164 2.776042,0.00625 4.772917,0.6447916 5.996875,1.9270834 0.833333,0.89375 1.25,2.04375 1.251042,3.451042 l -0.0052,7.186458 c 0.001,1.952084 0.517709,2.929167 1.555209,2.94375 0.863541,0 1.642708,-0.547916 2.361458,-1.65625 0.8375,-1.277083 1.255209,-2.907291 1.253125,-4.859375 -0.0063,-3.422909 -1.2198,-6.3489504 -3.652092,-8.7729088 C 22.354167,4.8052085 19.427084,3.5937501 15.994792,3.6000001 12.561459,3.6062501 9.626042,4.8156252 7.1958336,7.2406252 4.7531252,9.672917 3.5375001,12.590625 3.5437501,16.013542 c 0.00625,3.422917 1.2197917,6.348959 3.6520835,8.771875 2.4395834,2.435417 5.3666664,3.647917 8.7989584,3.641667 l 1.758334,-0.0021 0.0052,3.505208 -1.758333,0.0031 C 11.6,31.933334 7.8343753,30.360418 4.6958335,27.234376 1.5843751,24.126042 0.03229167,20.385417 0.03229167,15.998959 0.03229167,11.6125 1.5843751,7.8718753 4.6947918,4.7572918 7.8302086,1.6291667 11.608334,0.06666667 16.007292,0.06666667 c 4.4,0 8.158334,1.56041673 11.264584,4.68854183 3.123958,3.1010418 4.695833,6.8468755 4.695833,11.2333335 z m -12.222917,3.576042 -0.0042,-0.06354 -0.0031,-2.298958 c -1.034375,0.363542 -2.280209,0.534375 -3.722917,0.5375 -1.641667,0.0021 -2.74375,0.221875 -3.278125,0.645833 -0.319792,0.25 -0.477084,0.638542 -0.476042,1.184375 0,0.545834 0.159375,0.934375 0.470833,1.185417 0.541667,0.448958 1.638542,0.679167 3.280209,0.677083 1.622917,-0.0073 2.711458,-0.219791 3.244792,-0.676041 0.332291,-0.257292 0.502083,-0.652084 0.488541,-1.191667 z"
/><path
     d="M 23.614584,13.273959 C 20.252084,2.3843751 12.132292,0.30520834 7.8239586,0.0625 L 7.2312502,4.0250001 c 3.5427088,0.3364584 8.4010418,2.8197918 10.2364588,7.1614589 -8.235417,0.11875 -10.8916671,8.248958 -8.9281254,14.609375 1.3291667,4.304167 4.5937504,7.222917 9.3625004,5.759375 7.092708,-2.159375 8.083333,-10.604167 5.7125,-18.28125 z m -4.730208,0.959375 c 1.954166,6.328125 1.876041,12.470834 -1.619792,13.54375 -2.0625,0.633334 -3.352084,-0.975 -4.255209,-3.897917 -1.239583,-4.015625 -0.07917,-9.682292 5.875001,-9.645833 z"
/><path
     d="m 25.555209,9.0677086 c -0.04375,2.5229164 -0.611458,4.5510414 -1.703125,6.0843754 -0.595833,0.863542 -1.626042,1.748958 -3.091667,2.657292 -1.023958,0.644791 -1.68125,1.197916 -1.969791,1.660416 -0.490625,0.726042 -0.740625,1.870834 -0.76875,3.441667 l -4.408334,0.05 c 0.03854,-2.611458 0.607292,-4.673958 1.698958,-6.208333 0.631251,-0.897917 1.688542,-1.804167 3.167709,-2.739584 0.990625,-0.644792 1.640625,-1.184375 1.928125,-1.6125 0.45625,-0.690625 0.697917,-1.7875 0.717708,-3.2760417 0.02708,-1.7989584 -0.4125,-3.0520834 -1.298958,-3.7312501 -0.726042,-0.5625 -1.975,-0.8333334 -3.758333,-0.8208334 C 14.298959,4.5937501 13.03125,4.8875002 12.291667,5.4687502 11.375,6.1677085 10.90625,7.4104169 10.885417,9.2302086 l -4.4427085,0.05 c 0.039583,-2.35 0.6322917,-4.2958334 1.7718751,-5.8229168 C 9.8302086,1.2666667 12.472917,0.140625 16.135417,0.09375 c 3.676042,-0.040625 6.276042,1.025 7.828125,3.1770834 1.111459,1.5260418 1.63125,3.4468751 1.591667,5.7968752 z m -7.660417,22.7895844 -4.408333,0.05 0.06667,-4.479167 4.408334,-0.05 z"
/><path
     d="M 29.957293,31.858334 30.017709,24.718751 7.2166669,15.884376 30.146876,7.2968752 30.180209,0.14166667 1.021875,12.679167 0.96458336,18.971876 Z"
/><path
     d="m 32.000001,19.132292 h -10.5375 l 5.3125,9.127084 -5.484375,3.121875 -5.247917,-9.128125 -5.311459,9.128125 -5.4197915,-3.121875 5.2468755,-9.127084 H 0 V 12.867709 H 10.558334 L 5.3114585,3.7406251 10.73125,0.61875002 l 5.311459,9.12812528 5.247917,-9.12812528 5.484375,3.12187508 -5.3125,9.1270839 h 10.5375 z"
/><path
     d="M 29.351043,28.340626 21.648959,16.000001 29.351043,3.5781251 25.269792,0.04791667 C 24.432292,1.3958334 16.054167,14.626042 15.24375,16.000001 c 0.837501,1.346875 9.215626,14.658333 10.026042,15.952083 z m -12.675001,0 -7.621875,-12.340625 7.621875,-12.4218759 -4,-3.53020843 C 11.783334,1.3958334 3.4864584,14.626042 2.6489584,16.000001 c 0.8375,1.346875 9.1343756,14.658333 10.0270836,15.952083 z"
/><path
     d="m 32.000001,16.000001 -2.227083,2.221875 c -2.513542,2.511458 -5.206251,3.645833 -8.093751,3.41875 -1.960416,-0.15625 -4.385416,-1.158334 -7.2875,-2.990625 -2.154167,-1.335417 -3.633333,-2.039584 -4.4697917,-2.111459 -1.003125,-0.08542 -2.090625,0.465625 -3.2645834,1.652084 L 4.4906251,20.412501 0.03020833,15.969792 2.2427084,13.822917 c 2.5593751,-2.495833 5.2666668,-3.645833 8.1395836,-3.403125 1.960417,0.15625 4.384375,1.158333 7.2875,2.989583 2.092709,1.3375 3.572917,2.040625 4.408334,2.1125 1.003125,0.08542 2.091666,-0.465625 3.265625,-1.652083 l 2.227083,-2.222917 z"
/><path
     d="M 32.000001,27.113543 C 25.741667,26.121876 19.252084,23.720834 13.598959,19.005209 7.9895836,14.317709 4.4562501,8.3229169 2.4229167,2.3843751 L 0,3.1322918 c 2.4083334,9.5031252 5.4083335,14.7937502 10.74375,19.2510422 5.335417,4.457292 11.118751,6.527084 20.925001,7.232292 z"
/><path
     d="M 29.262501,28.595834 19.432292,16.053126 29.262501,3.4041668 25.014584,0.04791667 15.986459,11.739584 6.9052086,0.128125 2.7375001,3.4041668 12.4875,16.053126 2.7375001,28.595834 l 4.1677085,3.35625 9.0812504,-11.664583 9.028125,11.664583 z"
/><path
     d="m 23.488542,4.5958335 h -5.315625 l 0.0042,-4.4614585 h 5.315625 z m -10.56875,0.00417 -5.2614584,-0.011458 0.00417,-4.46145846 5.2614584,0.0114583 z M 26.843751,25.041667 c 0.0062,1.776042 -0.629167,3.241667 -1.876042,4.379167 -1.823958,1.630209 -4.803125,2.444792 -8.95,2.452084 -7.2614587,0 -10.8843755,-2.273959 -10.8791672,-6.836459 -0.00521,-1.776042 0.6302084,-3.241667 1.8770834,-4.379167 1.8239584,-1.630208 4.8166668,-2.453125 9.0125008,-2.447916 2.428125,0.0021 4.044791,-0.288542 4.858333,-0.857292 0.479167,-0.315625 0.698958,-0.802083 0.697917,-1.461458 0.0063,-0.683334 -0.227084,-1.189584 -0.713542,-1.509376 -0.8125,-0.571875 -2.425,-0.863541 -4.853125,-0.865625 -2.467709,0 -4.107292,0.284375 -4.913542,0.867709 -0.478125,0.315625 -0.713542,0.811458 -0.710417,1.509375 l -5.2531248,0.0042 c -0.00937,-4.554167 3.6281251,-6.8281257 10.8895838,-6.8281257 4.146875,-0.00729 7.130208,0.8145833 8.95625,2.4437497 1.24375,1.14375 1.86875,2.603125 1.875,4.380209 z m -5.276042,-0.0031 0.0052,-3.003125 c -1.559375,0.458334 -3.413541,0.685417 -5.561458,0.682292 -2.467709,0 -4.092709,0.276042 -4.9,0.820833 -0.479167,0.315625 -0.714584,0.810417 -0.711459,1.509375 -0.0052,0.682292 0.227084,1.188542 0.713542,1.508334 0.8125,0.572917 2.440625,0.855208 4.907292,0.855208 2.429167,0.0021 4.045833,-0.288541 4.859375,-0.857291 0.455208,-0.321875 0.690625,-0.817709 0.6875,-1.515626 z"
/><path
     d="M 32.000001,9.8468753 H 0 V 1.8979167 h 32.000001 z m 0,20.2552087 H 0 v -7.948958 h 32.000001 z"
/><path
     d="M 32.000001,12.505209 V 9.722917 H 25.740626 L 28.093751,0 H 23.557292 L 21.131251,9.722917 H 13.683334 L 16.036459,0 H 11.475 L 9.0489586,9.722917 H 2.1354167 v 2.782292 h 6.3072919 l -1.528125,6.191667 H 0 v 2.78125 H 6.2354169 L 3.6395834,32.000001 H 8.2000003 L 10.795834,21.430209 h 7.520833 l -2.595833,10.569792 h 4.561458 l 2.595834,-10.569792 h 6.914583 v -2.757292 h -6.235417 l 1.528125,-6.192708 h 6.914584 z m -11.572917,0 -1.528125,6.191667 h -7.447917 l 1.528125,-6.191667 z"
/><path
     d="m 24.484376,21.885417 c -0.001,4.578126 -2.185417,7.178126 -6.55,7.778126 l 0.0042,2.177083 -3.9125,0.0042 -0.0031,-2.177084 c -4.3416667,-0.647916 -6.5125001,-3.25 -6.5125001,-7.807292 l 3.9125001,-0.0042 c -10e-4,2.219791 0.869792,3.5125 2.6,3.86875 l 0.0052,-8.445834 C 12.04375,16.620834 10.575,15.867709 9.6145836,14.9875 8.2010419,13.732292 7.5052086,12.05625 7.5062502,9.9552087 c 0,-4.5572919 2.1625001,-7.1593753 6.5208338,-7.813542 V 0.15937501 l 3.9125,-0.004167 -0.0042,2.02500009 c 4.366667,0.6072917 6.560417,3.1906251 6.558334,7.7687503 l -3.911459,0.00417 C 20.578059,7.776045 19.708301,6.4833366 17.938509,6.0812533 l 0.0073,8.2958337 c 1.983333,0.679166 3.459375,1.465625 4.439583,2.369792 1.388542,1.294791 2.091667,3.005208 2.098959,5.138541 z M 14.00625,13.096875 14.00525,6.0833335 c -1.73125,0.3979167 -2.590625,1.6916667 -2.608334,3.8666668 0.0052,1.4218747 0.873959,2.4781247 2.609375,3.1468747 z m 6.544792,8.790626 c 0.0021,-1.508334 -0.872916,-2.61875 -2.635416,-3.34375 l -0.0021,7.175 c 1.770834,-0.352084 2.648959,-1.621875 2.6375,-3.83125 z"
/><g><path
       d="M 0.13,11.794 0,18.327 l 6.621,0.131 0.13,-6.533 z"
/><path
       d="m 12.115,12.039 -0.131,6.533 6.621,0.131 0.13,-6.533 z"
/><path
       d="m 24.099,12.262 -0.13,6.533 6.621,0.131 0.13,-6.533 z"
/></g><path
     d="m 18.391667,22.891667 -4.4625,0.105209 L 13.421875,0.25416667 17.883334,0.15 Z m 0.186459,8.854167 -4.461459,0.104167 -0.105208,-4.447917 4.461458,-0.105208 z"
/><path
     d="M 14.030209,0.04791667 H 17.96875 V 31.951044 h -3.938541 z" />
     <path
     d="M 32.000001,20.360417 H 20.358334 V 31.936459 H 11.611459 V 20.360417 H 0 V 11.639584 H 11.611459 V 0.06354167 h 8.746875 V 11.639584 h 11.641667 z"
/><path
     d="m 29.140626,31.814584 0.08646,-4.634375 c -2.08125,-0.03542 -3.267708,-1.45 -3.215625,-4.85 l 0.313542,-17.2010422 3.30625,0.053125 0.08542,-4.50208344 L 2.3687501,0.18541667 2.2833334,4.6875001 5.6489585,4.7489585 5.1572918,31.380209 l 6.1395832,0.108334 0.491667,-26.6322928 8.3375,0.1572916 -0.327083,17.5531252 c -0.105208,6.461459 2.095833,9.107292 9.341667,9.247917 z"
/><path
     d="m 14.644792,0.29583334 7.169792,2.87083346 -5.1375,12.7770842 7.302083,11.707292 -6.586458,4.053125 -9.3718754,-15.010417 z"
/></svg>
