<?xml version="1.0" encoding="UTF-8" standalone="no"?>
<!DOCTYPE svg PUBLIC "-//W3C//DTD SVG 1.1//EN" "http://www.w3.org/Graphics/SVG/1.1/DTD/svg11.dtd">
<svg width="100%" height="100%" viewBox="0 0 64 64" version="1.1" xmlns="http://www.w3.org/2000/svg" xmlns:xlink="http://www.w3.org/1999/xlink" xml:space="preserve" xmlns:serif="http://www.serif.com/" style="fill-rule:evenodd;clip-rule:evenodd;stroke-linejoin:round;stroke-miterlimit:2;">
    <g transform="matrix(1,0,0,0.64,-2.54796e-14,0)">
        <g id="whatsapp" transform="matrix(2.28571,0,0,3.57143,8.9373e-15,1.5099e-14)">
            <path d="M28,22.114C28,22.472 27.933,22.939 27.801,23.516C27.668,24.092 27.529,24.546 27.383,24.878C27.105,25.54 26.296,26.243 24.958,26.986C23.711,27.662 22.478,28 21.258,28C20.9,28 20.553,27.976 20.214,27.93C19.877,27.884 19.495,27.801 19.071,27.682C18.647,27.563 18.332,27.466 18.127,27.394C17.921,27.32 17.553,27.185 17.023,26.986C16.492,26.787 16.167,26.667 16.048,26.628C14.749,26.164 13.589,25.614 12.569,24.977C10.871,23.929 9.118,22.501 7.308,20.692C5.499,18.882 4.071,17.129 3.023,15.431C2.386,14.411 1.836,13.251 1.372,11.952C1.333,11.833 1.213,11.508 1.014,10.977C0.816,10.447 0.68,10.079 0.606,9.873C0.534,9.668 0.438,9.353 0.319,8.929C0.199,8.505 0.116,8.123 0.07,7.786C0.024,7.447 0,7.1 0,6.742C0,5.522 0.338,4.289 1.014,3.042C1.757,1.704 2.46,0.895 3.122,0.617C3.454,0.471 3.908,0.332 4.484,0.199C5.061,0.066 5.528,-0 5.886,-0C6.072,-0 6.211,0.02 6.304,0.059C6.542,0.139 6.894,0.643 7.358,1.571C7.504,1.823 7.703,2.18 7.955,2.645C8.207,3.109 8.439,3.53 8.65,3.908C8.863,4.286 9.069,4.64 9.267,4.972C9.307,5.024 9.423,5.19 9.615,5.469C9.807,5.747 9.95,5.982 10.042,6.175C10.135,6.367 10.182,6.555 10.182,6.742C10.182,7.007 9.993,7.338 9.615,7.736C9.237,8.133 8.826,8.498 8.383,8.83C7.938,9.161 7.527,9.512 7.149,9.883C6.772,10.255 6.583,10.559 6.583,10.798C6.583,10.917 6.616,11.067 6.682,11.245C6.748,11.425 6.805,11.56 6.851,11.653C6.898,11.746 6.99,11.905 7.13,12.131C7.269,12.356 7.345,12.482 7.358,12.508C8.366,14.325 9.519,15.883 10.818,17.181C12.117,18.481 13.675,19.634 15.492,20.642C15.518,20.655 15.644,20.731 15.869,20.87C16.095,21.01 16.254,21.102 16.347,21.149C16.44,21.195 16.575,21.252 16.755,21.318C16.933,21.384 17.083,21.417 17.202,21.417C17.441,21.417 17.745,21.228 18.117,20.851C18.488,20.473 18.839,20.062 19.17,19.617C19.502,19.174 19.867,18.763 20.264,18.385C20.662,18.007 20.993,17.818 21.258,17.818C21.444,17.818 21.633,17.865 21.825,17.958C22.018,18.05 22.253,18.193 22.531,18.385C22.81,18.577 22.976,18.693 23.028,18.733C23.36,18.931 23.714,19.137 24.092,19.35C24.47,19.561 24.891,19.793 25.355,20.045C25.819,20.297 26.177,20.496 26.429,20.642C27.357,21.106 27.861,21.458 27.941,21.696C27.98,21.789 28,21.928 28,22.114Z" style="fill:rgb(120,147,59);fill-rule:nonzero;"/>
        </g>
    </g>
</svg>
