<?xml version="1.0" encoding="utf-8"?>
<!-- Generator: Adobe Illustrator 21.1.0, SVG Export Plug-In . SVG Version: 6.00 Build 0)  -->
<svg version="1.1" id="Layer_1" xmlns="http://www.w3.org/2000/svg" xmlns:xlink="http://www.w3.org/1999/xlink" x="0px" y="0px"
	 viewBox="0 0 4535.4 2267.7" style="enable-background:new 0 0 4535.4 2267.7;" xml:space="preserve">
<style type="text/css">
	.st0{fill-rule:evenodd;clip-rule:evenodd;fill:none;stroke:#6D6E71;stroke-width:36.4945;stroke-miterlimit:22.9256;}
	.st1{fill-rule:evenodd;clip-rule:evenodd;fill:#6D6E71;}
	.st2{fill-rule:evenodd;clip-rule:evenodd;fill:none;stroke:#6D6E71;stroke-width:36.4945;stroke-miterlimit:3.8637;}
	.st3{fill-rule:evenodd;clip-rule:evenodd;fill:#009FC2;}
	.st4{fill-rule:evenodd;clip-rule:evenodd;fill:none;}
	.st5{fill-rule:evenodd;clip-rule:evenodd;fill:none;stroke:#000000;stroke-width:11.691;stroke-miterlimit:3.8637;}
	.st6{fill:#6D6E71;}
</style>
<g>
	<path class="st0" d="M1491.9,806.3c71.2,75.9,143.1,165.9,243.7,244.8c64,50.2,273.3,60.1,208.6,144.3l-87.7,114.3
		c-11.7,15.3,40.4,127.8,23.1,138c-126,74-266.2,117.6-411.1,136c-125.2,16,327.8,101.7,425.1,28.9
		c54.1-40.5-44.4,331.2-360.3,375.9c-297.2,22.7-539.5-109.3-699.4-298.6"/>
	<path class="st0" d="M1373.6,1189.3c54.2,0,98.4-51.6,98.4-114.8c0-63.2-44.2-114.8-98.4-114.8s-98.4,51.6-98.4,114.8
		C1275.2,1137.7,1319.4,1189.3,1373.6,1189.3z"/>
	<path class="st1" d="M1401.8,1034.7c14.6,0,26.4-11.1,26.4-24.8c0-13.7-11.9-24.8-26.4-24.8c-14.6,0-26.4,11.1-26.4,24.8
		C1375.3,1023.6,1387.2,1034.7,1401.8,1034.7z"/>
	<path class="st2" d="M845.9,1678.6c-28.8,16.7-48.5,28.8-83.4,28.8c-72.8,0-139.5-54.6-139.5-127.3c0-24.3,4.5-40.9,12.1-63.7"/>
	<g>
		<g>
			<path class="st3" d="M1588.9,631.3c0-67.8-42.4-93.8-66.4-102.7l-10.3,21.5c19.5,8.1,42.7,30.7,45.5,58.6
				c-46.9-13.7-76.2,27.9-76.2,67.5c0,26.8,13.4,49.1,43,49.1C1568.5,725.4,1588.9,679.1,1588.9,631.3z M1560.4,628.5
				c0,39.4-11.2,74.2-32.9,74.2c-12.8,0-17.3-11.4-17.3-29.6C1510.2,648.1,1526.7,617.9,1560.4,628.5z"/>
		</g>
	</g>
	<g>
		<g>
			<path class="st3" d="M1212.9,688.1c0-67.8-42.4-93.8-66.4-102.7l-10.3,21.5c19.5,8.1,42.7,30.7,45.5,58.6
				c-46.9-13.7-76.2,27.9-76.2,67.5c0,26.8,13.4,49.1,43,49.1C1192.6,782.2,1212.9,735.9,1212.9,688.1z M1184.5,685.3
				c0,39.4-11.2,74.2-32.9,74.2c-12.8,0-17.3-11.4-17.3-29.6C1134.2,704.9,1150.7,674.7,1184.5,685.3z"/>
		</g>
	</g>
	<g>
		
			<rect x="307.2" y="1159.7" transform="matrix(0.309 -0.951 0.951 0.309 -894.5681 1117.3817)" class="st3" width="29" height="29.3"/>
	</g>
	<g>
		
			<rect x="357.6" y="1176.1" transform="matrix(0.309 -0.951 0.951 0.309 -875.3089 1176.661)" class="st3" width="29" height="29.3"/>
	</g>
	<g>
		
			<rect x="408.1" y="1192.5" transform="matrix(0.3091 -0.951 0.951 0.3091 -856.0504 1235.9357)" class="st3" width="29" height="29.3"/>
	</g>
	<path class="st3" d="M524.7,564.3c18.1,10.4,30.3,23.5,36.7,39.1c5.9,14.6,5.6,27.6-1,38.9c-5.8,10.1-14.6,15.5-26.5,16.2
		c0.1,9.5-3.4,20.5-10.6,33c-16.9,29.2-36.1,37.6-57.7,25.1c-8.4-4.9-13.9-11.4-16.4-19.5c-3.5-11.8-0.4-26.1,9.3-43
		c5.6-9.8,8.1-17.1,7.2-21.9c-0.4-2.8-2.2-5-5.3-6.9c-3.3-1.9-6.2-2.3-8.8-1.3c-4.6,1.7-9.7,7.4-15.4,17.2
		c-5.7,9.9-8.2,17.3-7.3,22.1c0.4,2.8,2.2,5.1,5.5,7l-12.2,21.2c-21.6-12.5-24-33.3-7.1-62.5c9.7-16.7,20.5-26.5,32.5-29.4
		c8.3-1.9,16.7-0.4,25.2,4.5l43.4,25.1c11.8,6.8,19.5,7.1,23.2,0.9c3-5.2,2.4-11.8-1.8-20c-4.8-9.5-13.2-17.7-25-24.5
		c-20.7-11.9-42.6-14.8-65.7-8.6c-23.2,6.2-40.7,19.6-52.6,40.3c-11.9,20.7-14.8,42.6-8.6,65.7c6.2,23.2,19.6,40.7,40.3,52.6
		c20.7,11.9,42.6,14.8,65.7,8.6c23.2-6.2,40.7-19.6,52.6-40.3l6.1-10.6l21.2,12.2l-6.1,10.6c-15.3,26.5-37.9,43.7-67.7,51.7
		c-29.6,7.9-57.6,4.2-84.1-11.1c-26.5-15.3-43.7-37.7-51.7-67.3c-8-29.8-4.3-58,11-84.5c15.3-26.5,37.8-43.7,67.5-51.5
		C470.1,545.4,498.2,549,524.7,564.3z M503.8,650.4l-0.4-0.2l-13.9-8c-1.4,7.5-4.7,15.6-9.7,24.3c-5.7,9.9-8.2,17.3-7.5,22
		c0.4,2.8,2.2,5.1,5.5,7c3.3,1.9,6.2,2.3,8.8,1.3c4.6-1.7,9.8-7.5,15.5-17.4c5.6-9.8,8.1-17.1,7.2-21.9
		C508.9,654.6,507.1,652.2,503.8,650.4z"/>
	<g>
		<g>
			<path class="st3" d="M1042.5,861.6c-43.4-6.9-88.4-23.6-127.6-56.4c-38.9-32.6-63.4-74.3-77.5-115.6l-16.8,5.2
				c16.7,66.1,37.5,102.9,74.5,133.9c37,31,77.1,45.4,145.1,50.3L1042.5,861.6z"/>
		</g>
	</g>
	<g>
		<g>
			<polygon class="st3" points="933.7,527.5 884.9,527.5 909.4,569.9 884,584.5 859.8,542 835.2,584.5 810.1,569.9 834.4,527.5 
				785.5,527.5 785.5,498.5 834.4,498.5 810.1,456.1 835.2,441.5 859.8,484 884,441.5 909.4,456.1 884.9,498.5 933.7,498.5 			"/>
		</g>
	</g>
	<g>
		<g>
			<path class="st3" d="M1042.3,644.4c7.4,14.6,10.2,27.9,8.4,39.9c-0.9,6.7-4.3,14.8-10.2,24.3c-4.1,6.7-6.3,11.8-6.6,15.3
				c-0.7,5.6,1.3,12.9,5.9,22l-25.9,13.2c-7.7-15.1-10.6-28.6-8.8-40.6c1-7,4.5-15.3,10.4-25c3.9-6.6,6.1-11.6,6.5-14.9
				c0.6-5.3-1.3-12.3-5.7-20.9c-5.3-10.4-11.6-16.3-19-17.6c-6-1.1-14.2,1-24.7,6.3c-10.4,5.3-17,10.7-19.6,16.2
				c-3.3,6.7-2.3,15.2,3.1,25.7l-26.1,13.3c-6.9-13.6-9.3-26.5-7.2-38.6c2.9-17.3,15.1-31.5,36.6-42.5c21.6-11,40.2-12.5,55.9-4.7
				C1026.4,621.3,1035.4,630.8,1042.3,644.4z M1066.2,797.7l-25.9,13.2l-13.2-25.9l25.9-13.2L1066.2,797.7z"/>
		</g>
	</g>
	<path class="st3" d="M757.2,1132.8H640.9v-29h116.4V1132.8z M757.2,1206.8H640.9v-29h116.4V1206.8z"/>
	<path class="st3" d="M555.2,1492.5c-19.4,23.1-41.4,27-65.9,11.6l-9.2,11l-19.7-16.5l9.2-11c-19.1-21.6-19-43.9,0.3-66.9l19.7,16.5
		c-9.4,11.2-10.5,21.4-3.3,30.5l35.8-42.6c-7.2-11.7-11.4-21.7-12.5-30.2c-1.8-12.3,1.8-23.7,10.7-34.3c19.3-23,41.2-27,65.9-11.9
		l8.4-10l19.7,16.5l-8.6,10.2c19.4,21.5,19.5,43.8,0.1,66.9l-19.7-16.5c9.2-11,10.3-21.2,3.1-30.7L554,1427
		c7.1,11.8,11.2,22,12.3,30.7C567.9,1470.2,564.2,1481.8,555.2,1492.5z M539.7,1404l29.7-35.4c-10.4-5.3-20.2-2.4-29.5,8.5
		C533.9,1384.3,533.9,1393.3,539.7,1404z M535.5,1476c6.4-7.6,6.7-16.9,0.9-28l-30.4,36.2C516.3,1489.9,526.1,1487.1,535.5,1476z"/>
	<g>
		<g>
			<path class="st3" d="M308.8,1352.1l-17.4-14.1c-6.3,7.8-15.2,8.1-28-2.2l-64.6-52.3l10-12.4l-16.9-13.7l-82.9,102.4l16.9,13.7
				l10.2-12.6l100,81l18.6-23l-100-81l25.3-31.2l65.9,53.4C270.2,1379.8,286.8,1379.2,308.8,1352.1z"/>
		</g>
	</g>
	<path class="st3" d="M548.2,973.1l-26.5-15.3l12.9-22.3l26.5,15.3L548.2,973.1z M495.5,942.7l-26.2-15.2l12.9-22.3l26.2,15.2
		L495.5,942.7z M505.8,1085c-5.1,8.9-12.5,14.4-22,16.5c-13.8,2.9-31-1.6-51.7-13.5c-36.2-20.9-47.7-42.7-34.5-65.5
		c5.1-8.9,12.5-14.4,22-16.5c13.8-2.9,31.1,1.6,52,13.7c12.1,7,21,10.2,26.7,9.7c3.3-0.2,5.8-2,7.7-5.3c2-3.4,2.3-6.6,0.8-9.6
		c-2.4-5.2-9.6-11.3-21.7-18.3c-12.3-7.1-21.3-10.4-27-9.8c-3.3,0.2-5.9,2-7.9,5.5L424,976.7c13.1-22.8,37.8-23.7,74-2.8
		c20.7,11.9,33.2,24.6,37.6,38c2.9,9.3,1.8,18.4-3.3,27.3L505.8,1085z M479.6,1069.8l8.7-15c-9.1-2.2-19-6.4-29.7-12.6
		c-12.3-7.1-21.2-10.4-26.8-10c-3.3,0.2-5.9,2-7.9,5.5c-2,3.4-2.3,6.6-0.8,9.6c2.4,5.2,9.7,11.3,22,18.4c12.1,7,21,10.2,26.7,9.7
		C475,1075.1,477.6,1073.3,479.6,1069.8z"/>
	<g>
		<g>
			<path class="st3" d="M369.2,1461.1l-28.7-4.5l23.2-146.7l28.7,4.5L369.2,1461.1z M360.2,1518.1l-28.7-4.5l4.5-28.7l28.7,4.5
				L360.2,1518.1z"/>
		</g>
	</g>
	<g>
		<g>
			<polygon class="st3" points="744.9,1009.3 708.1,962.1 744.9,914.7 729,902.1 695.3,945.9 661.2,902.4 645.6,914.7 682.1,962.1 
				645.6,1009.3 661.2,1021.8 695.3,978 729,1021.8 			"/>
		</g>
	</g>
	<path class="st3" d="M292.5,945.1v-11.5h-25.7l9.7-40.2h-18.8l-10,40.2h-30.7l9.7-40.2h-18.8l-10,40.2h-28.5v11.5h26l-6.3,25.6
		h-28.5v11.5h25.7l-10.7,43.5h18.8l10.7-43.7h31l-10.7,43.7h18.8l10.7-43.7h28.5v-11.4h-25.7l6.3-25.6H292.5z M244.8,945.1
		l-6.3,25.6h-30.7l6.3-25.6H244.8z"/>
	<g>
		<g>
			<polygon class="st3" points="1077.9,403.4 1066.2,383.1 987.2,395.8 1037.6,333.6 1025.9,313.3 964.4,397.1 974.7,415 			"/>
		</g>
	</g>
	<path class="st3" d="M769.3,688.3l-28.5-45.8l28.5-46.1l-15.1-13.1c-3.1,5-34.1,54.1-37.1,59.2c3.1,5,34.1,54.4,37.1,59.2
		L769.3,688.3z M722.4,688.3l-28.2-45.8l28.2-46.1l-14.8-13.1c-3.3,5-34,54.1-37.1,59.2c3.1,5,33.8,54.4,37.1,59.2L722.4,688.3z"/>
	<g>
		<g>
			<path class="st3" d="M780.7,793.8l-9.5,11.2c-10.8,12.7-22.9,19-36.3,19c-9.1,0-20.7-3.7-34.9-11.2c-10.4-5.4-17.6-8.1-21.5-8.1
				c-4.7,0-9.5,3-14.5,8.9l-9.2,11.2l-22.3-19l9.5-10.9c11-12.7,23.2-19,36.6-19c9.1,0,20.7,3.7,34.9,11.2
				c10.2,5.4,17.3,8.1,21.2,8.1c4.7,0,9.5-3,14.5-8.9l9.5-11.2L780.7,793.8z"/>
		</g>
	</g>
	<g>
		<g>
			<polygon class="st3" points="197.6,1187.7 159.1,1187.7 159.1,1226.2 130,1226.2 130,1187.7 91.5,1187.7 91.5,1158.7 130,1158.7 
				130,1120.1 159.1,1120.1 159.1,1158.7 197.6,1158.7 			"/>
		</g>
	</g>
	<g>
		<g>
			
				<rect x="301.6" y="681.7" transform="matrix(0.5878 -0.809 0.809 0.5878 -516.5372 585.32)" class="st3" width="29" height="235.6"/>
		</g>
	</g>
	<g>
		<g>
			<polygon class="st3" points="413.8,1259.2 440.5,1247.8 460.9,1295.5 511.5,1307.3 504.8,1335.6 439.9,1320.5 			"/>
		</g>
	</g>
	<g>
		
			<rect x="647.5" y="1026.7" transform="matrix(0.309 -0.951 0.951 0.309 -532.9975 1349.1681)" class="st3" width="29" height="29.3"/>
	</g>
	<g>
		
			<rect x="697.9" y="1043.1" transform="matrix(0.309 -0.951 0.951 0.309 -513.7399 1408.4501)" class="st3" width="29" height="29.3"/>
	</g>
	<g>
		
			<rect x="748.4" y="1059.5" transform="matrix(0.309 -0.951 0.951 0.309 -494.4824 1467.7325)" class="st3" width="29" height="29.3"/>
	</g>
	<g>
		<g>
			<polygon class="st3" points="1274,394.6 1225.2,394.6 1249.8,437 1224.4,451.5 1200.1,409.1 1175.5,451.5 1150.4,437 
				1174.7,394.6 1125.8,394.6 1125.8,365.5 1174.7,365.5 1150.4,323.1 1175.5,308.6 1200.1,351 1224.4,308.6 1249.8,323.1 
				1225.2,365.5 1274,365.5 			"/>
		</g>
	</g>
	<g>
		<g>
			<path class="st3" d="M1382.6,511.5c7.4,14.6,10.2,27.9,8.4,39.9c-0.9,6.7-4.3,14.8-10.2,24.3c-4.1,6.7-6.3,11.8-6.6,15.3
				c-0.7,5.6,1.3,12.9,5.9,22l-25.9,13.2c-7.7-15.1-10.6-28.6-8.8-40.6c1-7,4.5-15.3,10.4-25c3.9-6.6,6.1-11.6,6.5-14.9
				c0.6-5.3-1.3-12.3-5.7-20.9c-5.3-10.4-11.7-16.3-19-17.6c-6-1.1-14.2,1-24.7,6.3c-10.4,5.3-17,10.7-19.6,16.2
				c-3.3,6.7-2.3,15.2,3.1,25.7l-26.1,13.3c-6.9-13.6-9.3-26.5-7.2-38.6c2.9-17.3,15.1-31.5,36.6-42.5c21.6-11,40.2-12.5,55.9-4.7
				C1366.8,488.4,1375.7,497.9,1382.6,511.5z M1406.5,664.7l-25.9,13.2l-13.2-25.9l25.9-13.2L1406.5,664.7z"/>
		</g>
	</g>
	<path class="st3" d="M1097.5,999.9H981.2v-29h116.4V999.9z M1097.5,1073.8H981.2v-29h116.4V1073.8z"/>
	<path class="st3" d="M877.3,1242.9c-19.4,23.1-41.4,27-65.9,11.6l-9.2,11l-19.7-16.5l9.2-11c-19.1-21.6-19-43.9,0.3-66.9l19.7,16.5
		c-9.4,11.2-10.5,21.4-3.3,30.5l35.8-42.6c-7.2-11.7-11.4-21.7-12.5-30.2c-1.8-12.3,1.8-23.7,10.7-34.3c19.3-23,41.2-27,65.9-11.9
		l8.4-10l19.7,16.5l-8.6,10.2c19.4,21.5,19.5,43.8,0.1,66.9l-19.7-16.5c9.2-11,10.3-21.2,3.1-30.7l-35.1,41.9
		c7.1,11.8,11.2,22,12.3,30.7C890,1220.5,886.3,1232.1,877.3,1242.9z M861.8,1154.3l29.7-35.4c-10.4-5.3-20.2-2.4-29.5,8.5
		C856,1134.6,855.9,1143.6,861.8,1154.3z M857.5,1226.3c6.4-7.6,6.7-16.9,0.9-28l-30.4,36.2C838.4,1240.2,848.2,1237.5,857.5,1226.3
		z"/>
	<g>
		<g>
			<path class="st3" d="M649.1,1219.2l-17.4-14.1c-6.3,7.8-15.2,8.1-28-2.2l-64.6-52.3l10-12.4l-16.9-13.7l-82.9,102.4l16.9,13.7
				l10.2-12.6l100,81l18.6-23l-100-81l25.3-31.2l65.9,53.4C610.5,1246.8,627.1,1246.3,649.1,1219.2z"/>
		</g>
	</g>
	<path class="st3" d="M924.1,898.1l-26.5-15.3l12.9-22.3l26.5,15.3L924.1,898.1z M871.4,867.7l-26.2-15.2l12.9-22.3l26.2,15.2
		L871.4,867.7z M881.8,1010c-5.1,8.9-12.5,14.4-22,16.5c-13.8,2.9-31-1.6-51.7-13.5c-36.2-20.9-47.7-42.7-34.5-65.5
		c5.1-8.9,12.5-14.4,22-16.5c13.8-2.9,31.1,1.6,52,13.7c12.1,7,21,10.2,26.7,9.7c3.3-0.2,5.8-2,7.7-5.3c2-3.4,2.3-6.6,0.8-9.6
		c-2.4-5.2-9.6-11.3-21.7-18.3c-12.3-7.1-21.3-10.4-27-9.8c-3.3,0.2-5.9,2-7.9,5.5l-26.2-15.1c13.1-22.8,37.8-23.7,74-2.8
		c20.7,11.9,33.2,24.6,37.6,38c2.9,9.3,1.8,18.4-3.3,27.3L881.8,1010z M855.5,994.8l8.7-15c-9.1-2.2-19-6.4-29.7-12.6
		c-12.3-7.1-21.2-10.4-26.8-10c-3.3,0.2-5.9,2-7.9,5.5c-2,3.4-2.3,6.6-0.8,9.6c2.4,5.2,9.7,11.3,22,18.4c12.1,7,21,10.2,26.7,9.7
		C850.9,1000.1,853.5,998.3,855.5,994.8z"/>
	<g>
		<g>
			<path class="st3" d="M709.6,1328.1l-28.7-4.5l23.2-146.7l28.7,4.5L709.6,1328.1z M700.5,1385.2l-28.7-4.5l4.5-28.7l28.7,4.5
				L700.5,1385.2z"/>
		</g>
	</g>
	<g>
		<g>
			<polygon class="st3" points="1144,935.1 1107.2,888 1144,840.5 1128.1,827.9 1094.3,871.8 1060.3,828.2 1044.7,840.5 1081.2,888 
				1044.7,935.1 1060.3,947.7 1094.3,903.9 1128.1,947.7 			"/>
		</g>
	</g>
	<path class="st3" d="M632.8,812.2v-11.5H607l9.7-40.2H598l-10,40.2h-30.7l9.7-40.2h-18.8l-10,40.2h-28.5v11.5h26l-6.3,25.6h-28.5
		v11.5h25.7l-10.7,43.5h18.8l10.7-43.7h31l-10.7,43.7h18.8l10.7-43.7h28.5v-11.4H598l6.3-25.6H632.8z M585.1,812.2l-6.3,25.6h-30.7
		l6.3-25.6H585.1z"/>
	<g>
		<g>
			<polygon class="st3" points="1488.6,346.6 1476.9,326.3 1397.9,339.1 1448.3,276.8 1436.5,256.5 1375.1,340.3 1385.4,358.2 			
				"/>
		</g>
	</g>
	<path class="st3" d="M1109.6,555.3l-28.5-45.8l28.5-46.1l-15.1-13.1c-3.1,5-34.1,54.1-37.1,59.2c3.1,5,34.1,54.4,37.1,59.2
		L1109.6,555.3z M1062.7,555.3l-28.2-45.8l28.2-46.1l-14.8-13.1c-3.3,5-34,54.1-37.1,59.2c3.1,5,33.8,54.4,37.1,59.2L1062.7,555.3z"
		/>
	<g>
		<g>
			<path class="st3" d="M927.5,284.7l-0.1,14.7c-0.1,16.6-5.3,29.2-15.6,37.9c-7,5.9-18.3,10.5-33.9,13.9
				c-11.5,2.6-18.7,5.1-21.7,7.6c-3.6,3-5.4,8.4-5.4,16.2l0.1,14.5l-29.3-0.2l0.3-14.4c0.3-16.7,5.5-29.4,15.8-38
				c7-5.9,18.3-10.5,33.9-13.9c11.3-2.4,18.5-4.9,21.5-7.4c3.6-3,5.4-8.4,5.4-16.2l0.1-14.7L927.5,284.7z"/>
		</g>
	</g>
	<g>
		<g>
			<polygon class="st3" points="379.8,1077.9 341.2,1077.9 341.2,1116.4 312.2,1116.4 312.2,1077.9 273.7,1077.9 273.7,1048.9 
				312.2,1048.9 312.2,1010.4 341.2,1010.4 341.2,1048.9 379.8,1048.9 			"/>
		</g>
	</g>
	<path class="st4" d="M578.1,1714.2"/>
	<path class="st5" d="M578.1,1714.2"/>
	<polygon class="st6" points="3792.9,1554.8 3779.8,1532 3822.6,1507.2 3835.8,1530 3792.9,1554.8 	"/>
	<g>
		<g>
			<path class="st1" d="M2172.7,1718.2h-28.7v-73.2c0-14.9-2.5-25.7-7.5-32.3c-6.1-8.3-16.8-12.4-32.1-12.4
				c-15.3,0-26.1,4.1-32.3,12.4c-5,6.6-7.5,17.4-7.5,32.3v73.2h-28.7v-73.2c0-49,22.8-73.5,68.5-73.5c45.5,0,68.3,24.5,68.3,73.5
				V1718.2z"/>
		</g>
		<g>
			<path class="st1" d="M2321.1,1674.2c0,29.3-19.8,43.9-59.4,43.9c-22.7,0-39-5.3-48.9-15.8c-6.8-7.4-10.2-16.8-10.2-28.2
				s3.4-20.8,10.2-28.2c9.9-10.5,26.3-15.8,48.9-15.8c13.4,0,22.4-1.8,26.8-5.5c2.6-2,3.9-5.2,3.9-9.4c0-4.4-1.3-7.6-3.9-9.7
				c-4.4-3.7-13.4-5.5-26.8-5.5c-13.3,0-22.1,1.8-26.5,5.5c-2.6,2-3.9,5.3-3.9,9.7h-28.7c0-11.4,3.4-20.8,10.2-28.2
				c9.9-10.5,26.3-15.8,48.9-15.8c39.6,0,59.4,14.6,59.4,43.9V1674.2z M2292.4,1674.2v-19.3c-8.5,2.9-18.7,4.4-30.7,4.4
				c-13.3,0-22.1,1.8-26.5,5.3c-2.6,2-3.9,5.3-3.9,9.7c0,4.4,1.3,7.6,3.9,9.7c4.4,3.7,13.3,5.5,26.5,5.5c13.4,0,22.4-1.8,26.8-5.5
				C2291.1,1681.9,2292.4,1678.7,2292.4,1674.2z"/>
		</g>
		<g>
			<path class="st1" d="M2576.2,1644.9c0,48.8-22.8,73.2-68.5,73.2h-39.5v57.8h-28.7v-131c0-49,22.8-73.5,68.3-73.5
				C2553.3,1571.4,2576.2,1595.9,2576.2,1644.9z M2547.4,1644.9c0-14.9-2.5-25.7-7.5-32.3c-6.3-8.3-17-12.4-32.3-12.4
				c-15.3,0-26,4.1-32.1,12.4c-5,6.6-7.5,17.4-7.5,32.3v44.5h39.5c15.3,0,26.1-4.1,32.3-12.2
				C2545,1670.5,2547.4,1659.7,2547.4,1644.9z"/>
		</g>
		<g>
			<path class="st1" d="M2738.1,1644.9c0,48.8-22.8,73.2-68.3,73.2c-45.7,0-68.5-24.4-68.5-73.2c0-49,22.8-73.5,68.5-73.5
				C2715.4,1571.4,2738.1,1595.9,2738.1,1644.9z M2709.4,1644.9c0-14.9-2.5-25.7-7.5-32.3c-6.1-8.3-16.8-12.4-32.1-12.4
				s-26,4.1-32.1,12.4c-5,6.6-7.5,17.4-7.5,32.3c0,14.9,2.5,25.7,7.5,32.3c6.1,8.1,16.8,12.2,32.1,12.2s26-4.1,32.1-12.2
				C2706.9,1670.7,2709.4,1659.9,2709.4,1644.9z"/>
		</g>
		<g>
			<path class="st1" d="M2904.5,1718.2h-28.7v-73.2c0-14.9-2.5-25.7-7.5-32.3c-6.1-8.3-16.8-12.4-32.1-12.4
				c-15.3,0-26.1,4.1-32.3,12.4c-5,6.6-7.5,17.4-7.5,32.3v73.2h-28.7v-73.2c0-49,22.8-73.5,68.5-73.5c45.5,0,68.3,24.5,68.3,73.5
				V1718.2z"/>
		</g>
		<g>
			<path class="st1" d="M3008.7,1718.5c-48.8,0-73.2-17.8-73.2-53.3v-151.2h28.7v57.8h44.5v28.7h-44.5v64.7c0,7.7,2.5,13.4,7.5,17.1
				c6.8,5,19.2,7.5,37,7.5V1718.5z"/>
		</g>
		<g>
			<path class="st1" d="M3151.6,1674.2c0,29.3-19.8,43.9-59.4,43.9c-22.7,0-39-5.3-48.9-15.8c-6.8-7.4-10.2-16.8-10.2-28.2
				s3.4-20.8,10.2-28.2c9.9-10.5,26.3-15.8,48.9-15.8c13.4,0,22.4-1.8,26.8-5.5c2.6-2,3.9-5.2,3.9-9.4c0-4.4-1.3-7.6-3.9-9.7
				c-4.4-3.7-13.4-5.5-26.8-5.5c-13.3,0-22.1,1.8-26.5,5.5c-2.6,2-3.9,5.3-3.9,9.7H3033c0-11.4,3.4-20.8,10.2-28.2
				c9.9-10.5,26.3-15.8,48.9-15.8c39.6,0,59.4,14.6,59.4,43.9V1674.2z M3122.9,1674.2v-19.3c-8.5,2.9-18.7,4.4-30.7,4.4
				c-13.3,0-22.1,1.8-26.5,5.3c-2.6,2-3.9,5.3-3.9,9.7c0,4.4,1.3,7.6,3.9,9.7c4.4,3.7,13.3,5.5,26.5,5.5c13.4,0,22.4-1.8,26.8-5.5
				C3121.6,1681.9,3122.9,1678.7,3122.9,1674.2z"/>
		</g>
		<g>
			<path class="st1" d="M3403.9,1644.9c0,49-22.8,73.5-68.3,73.5c-45.7,0-68.5-24.5-68.5-73.5c0-48.8,22.8-73.2,68.5-73.2h39.5
				v-57.8h28.7V1644.9z M3375.2,1644.9v-44.5h-39.5c-15.3,0-26,4.1-32.1,12.2c-5,6.6-7.5,17.4-7.5,32.3c0,14.9,2.5,25.7,7.5,32.3
				c6.1,8.3,16.8,12.4,32.1,12.4c15.3,0,26-4.1,32.1-12.4C3372.7,1670.7,3375.2,1659.9,3375.2,1644.9z"/>
		</g>
		<g>
			<path class="st1" d="M3552.6,1674.2c0,29.3-19.8,43.9-59.4,43.9c-22.7,0-39-5.3-48.9-15.8c-6.8-7.4-10.2-16.8-10.2-28.2
				s3.4-20.8,10.2-28.2c9.9-10.5,26.3-15.8,48.9-15.8c13.4,0,22.4-1.8,26.8-5.5c2.6-2,3.9-5.2,3.9-9.4c0-4.4-1.3-7.6-3.9-9.7
				c-4.4-3.7-13.4-5.5-26.8-5.5c-13.3,0-22.1,1.8-26.5,5.5c-2.6,2-3.9,5.3-3.9,9.7h-28.7c0-11.4,3.4-20.8,10.2-28.2
				c9.9-10.5,26.3-15.8,48.9-15.8c39.6,0,59.4,14.6,59.4,43.9V1674.2z M3523.9,1674.2v-19.3c-8.5,2.9-18.7,4.4-30.7,4.4
				c-13.3,0-22.1,1.8-26.5,5.3c-2.6,2-3.9,5.3-3.9,9.7c0,4.4,1.3,7.6,3.9,9.7c4.4,3.7,13.3,5.5,26.5,5.5c13.4,0,22.4-1.8,26.8-5.5
				C3522.6,1681.9,3523.9,1678.7,3523.9,1674.2z"/>
		</g>
		<g>
			<path class="st1" d="M3744.4,1718.2c-49,0-73.5-17.7-73.5-53.1v-151.2h28.7v151.2c0,7.6,2.6,13.2,7.7,16.9c6.8,5,19.2,7.5,37,7.5
				V1718.2z"/>
		</g>
		<g>
			<rect x="3764.3" y="1571.4" class="st1" width="28.7" height="146.8"/>
		</g>
		<g>
			<path class="st1" d="M3960.6,1718.2h-28.7v-73.2c0-14.9-2.5-25.7-7.5-32.3c-6.1-8.3-16.8-12.4-32.1-12.4
				c-15.3,0-26.1,4.1-32.3,12.4c-5,6.6-7.5,17.4-7.5,32.3v73.2h-28.7v-73.2c0-49,22.8-73.5,68.5-73.5c45.5,0,68.3,24.5,68.3,73.5
				V1718.2z"/>
		</g>
		<g>
			<path class="st1" d="M4126.7,1722.3c0,35.7-22.8,53.6-68.3,53.6h-54.2v-28.7h54.2c17.1,0,28.7-3,34.5-9.1c3.3-3.3,5-8.6,5-15.8
				v-4.1h-39.5c-45.7,0-68.5-24.4-68.5-73.2c0-49,22.8-73.5,68.5-73.5c45.5,0,68.3,24.5,68.3,73.5V1722.3z M4097.9,1689.4v-44.5
				c0-14.9-2.5-25.7-7.5-32.3c-6.1-8.3-16.8-12.4-32.1-12.4c-15.3,0-26.1,4.1-32.3,12.4c-5,6.6-7.5,17.4-7.5,32.3
				c0,14.7,2.5,25.5,7.5,32.3c6.3,8.1,17,12.2,32.3,12.2H4097.9z"/>
		</g>
		<g>
			<path class="st1" d="M4295,1644.9c0,48.8-22.8,73.2-68.5,73.2c-45.5,0-68.3-24.4-68.3-73.2v-73.5h28.7v73.5
				c0,14.9,2.5,25.7,7.5,32.3c6.1,8.1,16.8,12.2,32.1,12.2c15.3,0,26-4.1,32.1-12.2c5-6.6,7.5-17.4,7.5-32.3v-73.5h29V1644.9z"/>
		</g>
		<g>
			<path class="st1" d="M4443.4,1674.2c0,29.3-19.8,43.9-59.4,43.9c-22.7,0-39-5.3-48.9-15.8c-6.8-7.4-10.2-16.8-10.2-28.2
				s3.4-20.8,10.2-28.2c9.9-10.5,26.3-15.8,48.9-15.8c13.4,0,22.4-1.8,26.8-5.5c2.6-2,3.9-5.2,3.9-9.4c0-4.4-1.3-7.6-3.9-9.7
				c-4.4-3.7-13.4-5.5-26.8-5.5c-13.3,0-22.1,1.8-26.5,5.5c-2.6,2-3.9,5.3-3.9,9.7h-28.7c0-11.4,3.4-20.8,10.2-28.2
				c9.9-10.5,26.3-15.8,48.9-15.8c39.6,0,59.4,14.6,59.4,43.9V1674.2z M4414.7,1674.2v-19.3c-8.5,2.9-18.7,4.4-30.7,4.4
				c-13.3,0-22.1,1.8-26.5,5.3c-2.6,2-3.9,5.3-3.9,9.7c0,4.4,1.3,7.6,3.9,9.7c4.4,3.7,13.3,5.5,26.5,5.5c13.4,0,22.4-1.8,26.8-5.5
				C4413.4,1681.9,4414.7,1678.7,4414.7,1674.2z"/>
		</g>
	</g>
	<path class="st1" d="M2086.4,1465.1c-3.1,11.8-11.7,17.6-25.6,17.6c-17.9,0-26.9-9.7-26.9-29c0-19.2,9-28.9,26.9-28.9
		c13.9,0,22.5,5.9,25.6,17.6h-12c-2.2-4.2-6.7-6.3-13.6-6.3c-6,0-10.2,1.6-12.6,4.8c-2,2.6-2.9,6.9-2.9,12.7c0,5.9,1,10.1,2.9,12.7
		c2.4,3.3,6.6,4.9,12.6,4.9c6.8,0,11.4-2.1,13.6-6.3H2086.4z"/>
	<path class="st1" d="M2149.7,1482.8h-26.9c-18,0-27-9.6-27-28.9c0-19.3,9-29,27-29c17.9,0,26.9,9.7,26.9,29v5.7h-42.3
		c1.2,7.9,6.3,11.9,15.4,11.9h26.9V1482.8z M2138,1448.3c-1.2-8-6.2-12-15.2-12c-9.1,0-14.2,4-15.4,12H2138z"/>
	<path class="st1" d="M2216.7,1482.8h-11.3v-28.9c0-5.9-1-10.1-2.9-12.7c-2.4-3.3-6.6-4.9-12.6-4.9c-6,0-10.3,1.6-12.7,4.9
		c-2,2.6-2.9,6.9-2.9,12.7v28.9h-11.3v-28.9c0-19.3,9-29,27-29c17.9,0,26.9,9.7,26.9,29V1482.8z"/>
	<path class="st1" d="M2258.9,1482.9c-19.2,0-28.9-7-28.9-21v-59.6h11.3v22.8h17.5v11.3h-17.5v25.5c0,3,1,5.3,2.9,6.8
		c2.7,2,7.6,2.9,14.6,2.9V1482.9z"/>
	<path class="st1" d="M2299.1,1436.3c-7,0-11.9,1-14.6,2.9c-2,1.5-2.9,3.7-2.9,6.8v36.8h-11.3V1446c0-14,9.6-21,28.9-21V1436.3z"/>
	<path class="st1" d="M2362.6,1453.9c0,19.2-9,28.9-26.9,28.9c-18,0-27-9.6-27-28.9c0-19.3,9-29,27-29
		C2353.6,1425,2362.6,1434.6,2362.6,1453.9z M2351.2,1453.9c0-5.9-1-10.1-2.9-12.7c-2.4-3.3-6.6-4.9-12.6-4.9s-10.2,1.6-12.6,4.9
		c-2,2.6-2.9,6.9-2.9,12.7c0,5.9,1,10.1,2.9,12.7c2.4,3.2,6.6,4.8,12.6,4.8s10.2-1.6,12.6-4.8
		C2350.2,1464.1,2351.2,1459.8,2351.2,1453.9z"/>
	<path class="st1" d="M2464.2,1453.9c0,19.3-9,29-26.9,29c-18,0-27-9.7-27-29c0-19.2,9-28.9,27-28.9h15.6v-22.8h11.3V1453.9z
		 M2452.8,1453.9v-17.5h-15.6c-6,0-10.2,1.6-12.6,4.8c-2,2.6-2.9,6.9-2.9,12.7c0,5.9,1,10.1,2.9,12.7c2.4,3.3,6.6,4.9,12.6,4.9
		c6,0,10.2-1.6,12.6-4.9C2451.9,1464.1,2452.8,1459.8,2452.8,1453.9z"/>
	<path class="st1" d="M2530.7,1482.8h-26.9c-18,0-27-9.6-27-28.9c0-19.3,9-29,27-29c17.9,0,26.9,9.7,26.9,29v5.7h-42.3
		c1.2,7.9,6.3,11.9,15.4,11.9h26.9V1482.8z M2519,1448.3c-1.2-8-6.2-12-15.2-12c-9.1,0-14.2,4-15.4,12H2519z"/>
	<path class="st1" d="M2632.8,1482.8h-26.9c-18,0-27-9.6-27-28.9c0-19.3,9-29,27-29c17.9,0,26.9,9.7,26.9,29v5.7h-42.3
		c1.2,7.9,6.3,11.9,15.4,11.9h26.9V1482.8z M2621.2,1448.3c-1.2-8-6.2-12-15.2-12c-9.1,0-14.2,4-15.4,12H2621.2z"/>
	<path class="st1" d="M2692.7,1442.3h-11.3c0-1.7-0.5-3-1.5-3.8c-1.7-1.5-5.2-2.2-10.5-2.2c-5.2,0-8.7,0.7-10.5,2.2
		c-1,0.8-1.5,2.1-1.5,3.8c0,2.2,0.7,3.6,2.1,4.4c1.5,0.7,4.9,1.3,10.3,1.6c6.6,0.4,11.5,1.4,14.7,2.9c5.4,2.8,8.2,7.6,8.2,14.4
		c0,11.5-7.8,17.3-23.3,17.3c-15.5,0-23.3-5.8-23.3-17.3h11.3c0,1.7,0.5,3,1.5,3.8c1.7,1.5,5.2,2.2,10.5,2.2c5.2,0,8.7-0.7,10.5-2.2
		c1-0.8,1.5-2.1,1.5-3.8c0-2.1-0.7-3.5-2-4.2c-1.5-0.8-5-1.4-10.3-1.7c-6.7-0.4-11.6-1.4-14.7-2.9c-5.5-2.7-8.3-7.5-8.3-14.4
		c0-11.5,7.8-17.3,23.3-17.3C2685,1425,2692.7,1430.7,2692.7,1442.3z"/>
	<path class="st1" d="M2733.5,1482.9c-19.2,0-28.9-7-28.9-21v-59.6h11.3v22.8h17.5v11.3h-17.5v25.5c0,3,1,5.3,2.9,6.8
		c2.7,2,7.6,2.9,14.6,2.9V1482.9z"/>
	<path class="st1" d="M2798.8,1453.9c0,19.2-9,28.9-27,28.9c-17.9,0-26.9-9.6-26.9-28.9v-29h11.3v29c0,5.9,1,10.1,2.9,12.7
		c2.4,3.2,6.6,4.8,12.6,4.8s10.2-1.6,12.6-4.8c2-2.6,2.9-6.9,2.9-12.7v-29h11.4V1453.9z"/>
	<path class="st1" d="M2865.1,1453.9c0,19.3-9,29-26.9,29c-18,0-27-9.7-27-29c0-19.2,9-28.9,27-28.9h15.6v-22.8h11.3V1453.9z
		 M2853.8,1453.9v-17.5h-15.6c-6,0-10.2,1.6-12.6,4.8c-2,2.6-2.9,6.9-2.9,12.7c0,5.9,1,10.1,2.9,12.7c2.4,3.3,6.6,4.9,12.6,4.9
		c6,0,10.2-1.6,12.6-4.9C2852.8,1464.1,2853.8,1459.8,2853.8,1453.9z"/>
	<path class="st1" d="M2931,1453.9c0,19.2-9,28.9-26.9,28.9c-18,0-27-9.6-27-28.9c0-19.3,9-29,27-29
		C2922.1,1425,2931,1434.6,2931,1453.9z M2919.7,1453.9c0-5.9-1-10.1-2.9-12.7c-2.4-3.3-6.6-4.9-12.6-4.9s-10.2,1.6-12.6,4.9
		c-2,2.6-2.9,6.9-2.9,12.7c0,5.9,1,10.1,2.9,12.7c2.4,3.2,6.6,4.8,12.6,4.8s10.2-1.6,12.6-4.8
		C2918.7,1464.1,2919.7,1459.8,2919.7,1453.9z"/>
</g>
</svg>
