<?xml version="1.0" encoding="UTF-8" standalone="no"?><!DOCTYPE svg PUBLIC "-//W3C//DTD SVG 1.1//EN" "http://www.w3.org/Graphics/SVG/1.1/DTD/svg11.dtd"><svg width="100%" height="100%" viewBox="0 0 16 16" version="1.1" xmlns="http://www.w3.org/2000/svg" xmlns:xlink="http://www.w3.org/1999/xlink" xml:space="preserve" xmlns:serif="http://www.serif.com/" style="fill-rule:evenodd;clip-rule:evenodd;stroke-linejoin:round;stroke-miterlimit:2;"><rect id="Artboard1" x="0" y="0" width="15.36" height="15.36" style="fill:none;"/><g><path d="M6.128,3.338c0.173,0.298 0.239,0.585 0.201,0.86c-0.036,0.257 -0.147,0.44 -0.334,0.547c-0.166,0.096 -0.336,0.101 -0.512,0.013c-0.076,0.136 -0.217,0.264 -0.423,0.383c-0.481,0.278 -0.824,0.239 -1.029,-0.117c-0.08,-0.139 -0.105,-0.277 -0.074,-0.413c0.047,-0.197 0.209,-0.376 0.487,-0.537c0.161,-0.094 0.256,-0.177 0.283,-0.253c0.017,-0.043 0.01,-0.089 -0.019,-0.142c-0.031,-0.054 -0.069,-0.084 -0.115,-0.091c-0.079,-0.014 -0.199,0.026 -0.361,0.118c-0.163,0.095 -0.259,0.18 -0.286,0.256c-0.017,0.043 -0.011,0.091 0.021,0.145l-0.349,0.202c-0.205,-0.356 -0.068,-0.673 0.414,-0.95c0.276,-0.159 0.51,-0.21 0.705,-0.152c0.134,0.041 0.242,0.132 0.323,0.272l0.412,0.715c0.113,0.194 0.22,0.262 0.324,0.204c0.085,-0.049 0.131,-0.148 0.139,-0.3c0.01,-0.175 -0.043,-0.361 -0.155,-0.555c-0.197,-0.341 -0.486,-0.562 -0.866,-0.664c-0.382,-0.103 -0.742,-0.056 -1.083,0.141c-0.34,0.198 -0.562,0.486 -0.664,0.867c-0.102,0.382 -0.055,0.742 0.142,1.082c0.197,0.34 0.486,0.562 0.867,0.664c0.382,0.103 0.742,0.056 1.082,-0.142l0.174,-0.101l0.202,0.349l-0.174,0.101c-0.437,0.252 -0.901,0.311 -1.392,0.18c-0.487,-0.131 -0.856,-0.415 -1.108,-0.851c-0.252,-0.437 -0.313,-0.898 -0.183,-1.386c0.131,-0.491 0.416,-0.863 0.853,-1.115c0.436,-0.252 0.899,-0.312 1.387,-0.179c0.488,0.13 0.859,0.413 1.111,0.849Zm-1.007,1.056l-0.004,-0.006l-0.133,-0.228c-0.082,0.095 -0.195,0.184 -0.338,0.266c-0.163,0.095 -0.26,0.18 -0.288,0.253c-0.018,0.043 -0.011,0.09 0.02,0.145c0.032,0.054 0.07,0.084 0.115,0.091c0.08,0.013 0.202,-0.027 0.365,-0.121c0.16,-0.093 0.256,-0.177 0.283,-0.253c0.018,-0.045 0.012,-0.094 -0.02,-0.147Z" style="fill-opacity:0.1;"/><path d="M13.16,3.883c-0.083,0.256 -0.206,0.443 -0.366,0.562c-0.089,0.068 -0.223,0.122 -0.402,0.164c-0.126,0.031 -0.211,0.064 -0.255,0.102c-0.074,0.057 -0.136,0.165 -0.188,0.325l-0.455,-0.148c0.086,-0.266 0.209,-0.457 0.37,-0.576c0.093,-0.07 0.231,-0.125 0.412,-0.17c0.123,-0.031 0.207,-0.064 0.25,-0.098c0.068,-0.054 0.128,-0.158 0.177,-0.309c0.059,-0.183 0.054,-0.325 -0.017,-0.427c-0.057,-0.082 -0.177,-0.153 -0.361,-0.214c-0.183,-0.059 -0.322,-0.073 -0.417,-0.04c-0.116,0.04 -0.204,0.151 -0.263,0.336l-0.459,-0.149c0.078,-0.239 0.2,-0.417 0.366,-0.534c0.235,-0.167 0.543,-0.191 0.921,-0.068c0.38,0.123 0.614,0.322 0.706,0.596c0.065,0.193 0.059,0.409 -0.019,0.648Zm-1.507,2.064l-0.455,-0.148l0.148,-0.456l0.455,0.148l-0.148,0.456Z" style="fill-opacity:0.1;"/><path d="M12.972,10.908l-0.504,-0l0.001,-0.425l0.504,-0l-0.001,0.425Zm-1.002,-0l-0.499,-0.001l0.001,-0.424l0.498,0.001l-0,0.424Zm1.319,1.945c0.001,0.169 -0.06,0.308 -0.178,0.417c-0.173,0.155 -0.455,0.232 -0.849,0.233c-0.688,-0 -1.032,-0.216 -1.031,-0.65c-0.001,-0.169 0.059,-0.309 0.178,-0.417c0.173,-0.155 0.457,-0.233 0.854,-0.233c0.231,-0 0.384,-0.027 0.461,-0.081c0.046,-0.03 0.066,-0.077 0.066,-0.139c0.001,-0.065 -0.021,-0.113 -0.067,-0.144c-0.077,-0.054 -0.23,-0.082 -0.461,-0.082c-0.234,-0 -0.389,0.027 -0.466,0.082c-0.045,0.03 -0.067,0.077 -0.067,0.144l-0.499,-0.001c-0.001,-0.433 0.344,-0.65 1.033,-0.65c0.393,-0 0.676,0.078 0.849,0.233c0.118,0.109 0.177,0.247 0.178,0.416l-0.001,0.872Zm-0.499,-0.001l0.001,-0.286c-0.148,0.044 -0.324,0.066 -0.528,0.065c-0.234,-0 -0.388,0.026 -0.464,0.078c-0.046,0.03 -0.068,0.077 -0.068,0.144c-0,0.065 0.022,0.113 0.068,0.143c0.077,0.055 0.231,0.082 0.465,0.082c0.23,-0 0.384,-0.028 0.461,-0.082c0.043,-0.031 0.065,-0.078 0.065,-0.144Z" style="fill-opacity:0.1;"/><path d="M4.485,13.58l0.232,-0.287c-0.129,-0.104 -0.134,-0.25 0.036,-0.461l0.862,-1.064l0.204,0.164l0.226,-0.278l-1.687,-1.366l-0.226,0.279l0.208,0.168l-1.335,1.647l0.379,0.306l1.335,-1.647l0.513,0.417l-0.879,1.085c-0.323,0.401 -0.315,0.674 0.132,1.037Z" style="fill-opacity:0.1;"/></g></svg>