<svg width="10" height="10" viewBox="0 0 2.6458333 2.6458333" fill="var(--color-primary-500)">
    <path d="M 2.4437842,0.91141639 2.0278007,0.70612529 2.2305928,0.40676879 2.6458333,0.61206009 Z M 1.6170174,0.50337639 1.2062339,0.29935639 1.4082838,-2.1678756e-8 1.8198103,0.2040201 Z M 1.7804385,2.4132832 C 1.7002132,2.5327724 1.5843321,2.6064976 1.4350237,2.6344638 1.2188602,2.6732349 0.94921463,2.6128442 0.62459913,2.4533251 0.05633644,2.1730361 -0.12417075,1.8800355 0.08307822,1.5743232 0.16330353,1.4548341 0.27918463,1.3811088 0.42849263,1.3525061 c 0.2161636,-0.038771 0.4872949,0.02162 0.81562437,0.1843167 0.1894218,0.094064 0.3290725,0.1366479 0.4182119,0.1302941 0.051999,-0.00317 0.091368,-0.02733 0.1210806,-0.071184 0.031197,-0.045762 0.036399,-0.088982 0.012634,-0.129021 C 1.7581557,1.3969968 1.645245,1.3150081 1.4558238,1.2215777 1.2626878,1.1262401 1.1215516,1.0817518 1.0324122,1.0900128 c -0.0519986,0.00255 -0.0928533,0.026693 -0.12405087,0.073728 L 0.49683383,0.96099139 C 0.70259813,0.65464349 1.0903528,0.64256779 1.6578727,0.92349339 1.9824885,1.083022 2.1785949,1.2533576 2.2476777,1.4332255 2.2929917,1.5584342 2.2759047,1.6804646 2.1956797,1.7999531 Z M 1.3674267,2.2092633 1.5041059,2.0077857 C 1.3614831,1.9779146 1.2062321,1.9219823 1.038353,1.8387228 0.84521703,1.7433875 0.70556643,1.6988968 0.61791293,1.7046164 c -0.051999,0.00255 -0.092853,0.026693 -0.1240509,0.073728 -0.031197,0.045761 -0.035656,0.088345 -0.012634,0.129021 0.037885,0.069279 0.1522808,0.1512676 0.3454149,0.2466038 0.18942157,0.094064 0.32907237,0.1366479 0.41895457,0.1302941 0.049769,-0.00382 0.090625,-0.027966 0.1218246,-0.074998 z"/>
</svg>
