<svg width="10" height="10" viewBox="0 0 2.6458333 2.6458333" fill="var(--color-primary-500)">
   <path d="m 1.9422351,0.44349516 c 0.094938,0.19308874 0.1308438,0.36925064 0.1077184,0.52785904 -0.011578,0.0890213 -0.05538,0.1962232 -0.1308436,0.3216052 -0.052947,0.089022 -0.080943,0.1567293 -0.085201,0.2031195 -0.0085,0.073976 0.017047,0.1705195 0.076071,0.2908868 L 1.5770884,1.9618755 C 1.477889,1.7618901 1.4407659,1.5832206 1.4638935,1.4239852 1.4766791,1.3318291 1.521708,1.2214926 1.5977797,1.0936031 1.6476836,1.0058356 1.6762854,0.9400099 1.6811558,0.896126 1.689064,0.8259121 1.664724,0.7331292 1.6081266,0.6196583 1.5399677,0.481738 1.4578086,0.4040007 1.3634784,0.38644729 1.2867984,0.37203019 1.1815137,0.39961069 1.0464096,0.46982659 0.91252345,0.54004059 0.82793033,0.61150834 0.79445837,0.68423024 0.75185646,0.77325144 0.7652458,0.88546884 0.83462408,1.0246429 L 0.49868731,1.2008035 C 0.41044327,1.020253 0.37940753,0.8497335 0.40618379,0.6898712 0.44391542,0.46042165 0.60032079,0.27234843 0.87661422,0.12690506 1.1541255,-0.01853811 1.3932966,-0.03859933 1.5953443,0.06484067 1.7389689,0.13756238 1.8533814,0.26357141 1.9422351,0.44349516 Z M 2.2489583,2.4715523 1.9160662,2.6458333 1.7468822,2.3035399 2.079774,2.1286311 Z"/>
</svg>
