<svg width="10" height="10" viewBox="0 0 2.6458333 2.6458333" fill="var(--color-primary-500)">
   <path d="M 2.065273,0.17868738 C 2.2892873,0.30199798 2.4405848,0.45796608 2.5197522,0.64321334 2.5930552,0.81719942 2.5889502,0.97147831 2.5074372,1.10605 2.4358932,1.2259822 2.3268185,1.2901712 2.1790394,1.2986172 2.1807994,1.4112296 2.1374034,1.5424229 2.0482667,1.6910712 1.8389131,2.0379172 1.6008246,2.1381422 1.333415,1.989494 1.2296177,1.930936 1.1615925,1.853796 1.130512,1.7575124 1.087117,1.6173101 1.125822,1.4472654 1.2454512,1.2462524 1.3152352,1.1296986 1.3457299,1.0429871 1.3345872,0.9855548 1.3298972,0.9523343 1.3076122,0.9264333 1.2689072,0.903911 1.2284442,0.8813885 1.1926722,0.876321 1.1604186,0.8881453 1.1035356,0.9084155 1.0402015,0.976546 0.96924415,1.0925366 c -0.070371,0.118243 -0.10145142,0.2060806 -0.090309,0.2629498 0.00528,0.033221 0.027562,0.060811 0.068025,0.083333 L 0.79624982,1.6910712 C 0.52884017,1.5424229 0.49893256,1.2946757 0.7082861,0.94782971 0.82850323,0.74906896 0.96220805,0.63251517 1.1105735,0.5981684 1.2131978,0.5756459 1.3175815,0.5936644 1.4225515,0.6516593 L 1.960303,0.95008201 C 2.1063227,1.0311629 2.2013235,1.0345413 2.2476511,0.96078021 2.2845962,0.89884342 2.2769722,0.82057786 2.2253671,0.72316818 2.1655516,0.60999271 2.0617544,0.51258298 1.9157347,0.43150218 1.6594671,0.29017368 1.3879525,0.25582688 1.1017771,0.32958798 0.81501542,0.40334908 0.59803828,0.56269548 0.45084575,0.80875347 0.30306672,1.0548114 0.26729481,1.3149459 0.34411643,1.5897201 0.42093804,1.8656203 0.58689618,2.0733901 0.84316383,2.2152816 1.0994315,2.3566102 1.3709462,2.390957 1.656535,2.3171958 1.9438831,2.2434347 2.1608602,2.0846514 2.3080529,1.8380303 L 2.3837017,1.7124675 2.6458333,1.8571744 2.5707711,1.9833002 C 2.381356,2.2986148 2.1010449,2.5030063 1.7321837,2.5981638 1.3656683,2.6916318 1.0190913,2.647713 0.6906934,2.4658442 0.36288203,2.2839752 0.15000981,2.017647 0.05090403,1.6657334 -0.04820175,1.3115676 -0.00246062,0.97654586 0.18695457,0.6612313 0.37636974,0.34591678 0.65492149,0.14152538 1.0226098,0.04918317 1.3891254,-0.04597382 1.7374616,-0.00318183 2.065273,0.17868738 Z M 1.8066598,1.2023336 1.8013798,1.200079 1.6295573,1.1049215 c -0.017593,0.088964 -0.058056,0.1852472 -0.120217,0.2888506 -0.070371,0.1176799 -0.1014515,0.2055175 -0.092655,0.2612606 0.00469,0.033221 0.026976,0.060811 0.068025,0.083333 0.04105,0.022522 0.076822,0.02759 0.109075,0.015203 0.056883,-0.019707 0.1213899,-0.088964 0.191761,-0.2066435 0.069198,-0.1165539 0.1002786,-0.2032654 0.089136,-0.2601346 -0.00469,-0.03491 -0.026976,-0.063063 -0.068025,-0.084459 z"/>
</svg>
