<svg width="10" height="10" viewBox="0 0 2.6458333 2.6458333" fill="var(--color-primary-500)">
    <path d="M 1.5838125,2.3070247 C 1.2925931,2.6536467 0.96230796,2.7118905 0.5950875,2.4810459 L 0.4572915,2.6458333 0.1618106,2.3986521 0.2996066,2.2331543 C 0.0133593,1.9092617 0.01478,1.5747146 0.3038766,1.2302236 L 0.5993562,1.4774048 C 0.4587173,1.6457436 0.4423817,1.7984563 0.5503468,1.9348322 l 0.53698,-0.6385516 C 0.97936165,1.1208387 0.91614553,0.97096738 0.89980996,0.84311506 0.87281936,0.65843852 0.92680056,0.4879695 1.0603362,0.32886451 1.3494245,-0.0163369 1.6782892,-0.0760013 2.0483508,0.1505826 L 2.1740721,0 2.4695532,0.2478927 2.3409905,0.40060412 c 0.2905089,0.322472 0.2926398,0.65701898 0.00142,1.00364098 L 2.04693,1.1563535 C 2.1847265,0.99156612 2.2010632,0.83885359 2.093099,0.69608524 L 1.5667733,1.3246925 C 1.673317,1.5015551 1.7351121,1.6542675 1.7514488,1.784961 1.774179,1.9710571 1.7187755,2.1450785 1.58382,2.3070248 Z M 1.3508379,0.97807036 1.7961902,0.44748305 C 1.6406367,0.36793135 1.4936063,0.41125755 1.353679,0.57462401 1.264181,0.68258913 1.262761,0.81754217 1.350829,0.97806929 Z M 1.2862017,2.0577126 C 1.3828004,1.9440661 1.3870635,1.8048489 1.2997051,1.6379307 L 0.84440834,2.1813032 C 0.99996273,2.2665381 1.1469923,2.2260514 1.2862095,2.0577126 Z" />
</svg>
