<svg width="10" height="10" viewBox="0 0 2.6458333 2.6458333" fill="var(--color-primary-500)">
   <path d="M 2.6458335,1.6666666e-8 2.6422835,0.37182747 C 2.6399198,0.79028285 2.5098175,1.1083089 2.2531562,1.3282969 2.0781088,1.4765495 1.7966101,1.5937171 1.4062985,1.6786037 1.118886,1.7443611 0.93910737,1.8077271 0.8645931,1.8710931 0.77470462,1.9464153 0.72975598,2.0827117 0.72975598,2.2799838 L 0.73212998,2.6458333 -1.4833333e-7,2.6410533 0.00827015,2.2775951 C 0.01536927,1.8555522 0.14546341,1.5351349 0.40212029,1.3175382 0.57716763,1.1692855 0.85984973,1.0533136 1.2489785,0.96723131 1.5316569,0.90625661 1.7114387,0.84289012 1.7859526,0.78071976 1.8758411,0.70420237 1.9207852,0.56790548 1.9207852,0.3718291 L 1.9231657,1.6666666e-8 Z"/>
</svg>
