<?xml version="1.0" encoding="UTF-8" standalone="no"?><!DOCTYPE svg PUBLIC "-//W3C//DTD SVG 1.1//EN" "http://www.w3.org/Graphics/SVG/1.1/DTD/svg11.dtd"><svg width="100%" height="100%" viewBox="0 0 64 64" version="1.1" xmlns="http://www.w3.org/2000/svg" xmlns:xlink="http://www.w3.org/1999/xlink" xml:space="preserve" xmlns:serif="http://www.serif.com/" style="fill-rule:evenodd;clip-rule:evenodd;stroke-linejoin:round;stroke-miterlimit:2;"><rect id="Artboard2" x="0" y="0" width="64" height="64" style="fill:none;"/><path d="M43.317,14.755l-8.011,-0l0.016,-6.755l8.01,0l-0.015,6.755Zm-15.926,-0l-7.931,-0.016l0.016,-6.739l7.915,0.016l-0,6.739Zm20.964,30.914c0.016,2.686 -0.954,4.895 -2.829,6.628c-2.75,2.463 -7.232,3.687 -13.494,3.703c-10.935,0 -16.403,-3.433 -16.387,-10.331c-0.016,-2.686 0.938,-4.911 2.829,-6.628c2.75,-2.464 7.264,-3.703 13.574,-3.703c3.671,-0 6.103,-0.429 7.327,-1.288c0.731,-0.476 1.049,-1.224 1.049,-2.209c0.016,-1.033 -0.334,-1.796 -1.065,-2.289c-1.224,-0.858 -3.656,-1.303 -7.327,-1.303c-3.719,0 -6.183,0.429 -7.407,1.303c-0.715,0.477 -1.065,1.224 -1.065,2.289l-7.931,-0.016c-0.016,-6.882 5.468,-10.331 16.419,-10.331c6.246,0 10.744,1.24 13.494,3.703c1.875,1.733 2.813,3.926 2.829,6.612l-0.016,13.86Zm-7.931,-0.016l0.016,-4.546c-2.353,0.7 -5.15,1.049 -8.392,1.033c-3.72,0 -6.167,0.414 -7.375,1.24c-0.731,0.477 -1.081,1.224 -1.081,2.289c0,1.033 0.35,1.796 1.081,2.273c1.224,0.874 3.671,1.303 7.391,1.303c3.655,0 6.103,-0.445 7.327,-1.303c0.683,-0.493 1.033,-1.24 1.033,-2.289Z" style="fill-opacity:0.2;"/></svg>