<?xml version="1.0" encoding="UTF-8" standalone="no"?><!DOCTYPE svg PUBLIC "-//W3C//DTD SVG 1.1//EN" "http://www.w3.org/Graphics/SVG/1.1/DTD/svg11.dtd"><svg width="100%" height="100%" viewBox="0 0 64 64" version="1.1" xmlns="http://www.w3.org/2000/svg" xmlns:xlink="http://www.w3.org/1999/xlink" xml:space="preserve" xmlns:serif="http://www.serif.com/" style="fill-rule:evenodd;clip-rule:evenodd;stroke-linejoin:round;stroke-miterlimit:2;"><rect id="Artboard2" x="0" y="0" width="64" height="64" style="fill:none;"/><path d="M53.204,20.012c2.288,3.9 3.161,7.657 2.658,11.256c-0.476,3.364 -1.944,5.759 -4.418,7.159c-2.195,1.257 -4.444,1.322 -6.772,0.171c-1.005,1.78 -2.871,3.455 -5.595,5.012c-6.363,3.639 -10.9,3.128 -13.612,-1.531c-1.058,-1.819 -1.389,-3.625 -0.979,-5.405c0.622,-2.579 2.765,-4.922 6.442,-7.029c2.13,-1.23 3.387,-2.316 3.744,-3.311c0.225,-0.563 0.132,-1.165 -0.252,-1.859c-0.41,-0.706 -0.912,-1.099 -1.521,-1.191c-1.045,-0.183 -2.632,0.341 -4.775,1.545c-2.156,1.243 -3.426,2.356 -3.783,3.35c-0.225,0.563 -0.146,1.191 0.278,1.898l-4.617,2.644c-2.711,-4.66 -0.899,-8.809 5.477,-12.434c3.65,-2.081 6.746,-2.749 9.325,-1.989c1.773,0.536 3.201,1.727 4.273,3.56l5.449,9.358c1.495,2.539 2.91,3.429 4.286,2.67c1.124,-0.642 1.733,-1.937 1.839,-3.927c0.132,-2.29 -0.569,-4.725 -2.05,-7.264c-2.606,-4.463 -6.429,-7.355 -11.456,-8.69c-5.053,-1.348 -9.815,-0.733 -14.325,1.845c-4.498,2.592 -7.434,6.361 -8.783,11.348c-1.35,4.999 -0.728,9.711 1.878,14.161c2.606,4.45 6.429,7.356 11.468,8.691c5.053,1.348 9.815,0.733 14.313,-1.859l2.301,-1.322l2.672,4.568l-2.301,1.322c-5.781,3.298 -11.918,4.071 -18.413,2.356c-6.442,-1.715 -11.323,-5.432 -14.657,-11.138c-3.333,-5.72 -4.14,-11.753 -2.42,-18.141c1.733,-6.426 5.503,-11.295 11.283,-14.593c5.767,-3.298 11.892,-4.084 18.347,-2.343c6.455,1.702 11.362,5.406 14.696,11.112Zm-13.321,13.821l-0.052,-0.078l-1.76,-2.984c-1.084,1.243 -2.579,2.408 -4.471,3.481c-2.156,1.244 -3.439,2.356 -3.809,3.312c-0.238,0.562 -0.146,1.178 0.264,1.897c0.424,0.707 0.926,1.1 1.521,1.191c1.059,0.171 2.672,-0.353 4.829,-1.583c2.116,-1.217 3.386,-2.317 3.743,-3.312c0.238,-0.589 0.159,-1.23 -0.265,-1.924Z" style="fill-opacity:0.03;"/></svg>