<svg width="100%" height="100%" viewBox="0 0 64 64" fill="var(--color-c)">
  <path d="m 60.46714,0 c 1.951712,0 3.533353,1.5816447 3.533353,3.5310041 V 60.467856 c 0,1.949359 -1.581641,3.533361 -3.533353,3.533361 H 44.160445 V 39.215831 h 8.318347 l 1.24457,-9.657225 h -9.562917 v -6.16865 c 0,-2.795575 0.775499,-4.702506 4.784994,-4.702506 l 5.114994,-0.0024 V 10.046155 C 53.176506,9.9306544 50.140509,9.6666541 46.607157,9.6666541 c -7.373134,0 -12.422128,4.5021479 -12.422128,12.7663009 v 7.125651 H 25.84311 v 9.657225 h 8.341919 V 64.001217 H 3.5327802 c -1.9517119,0 -3.53335284,-1.584002 -3.53335284,-3.533361 V 3.5310041 C -5.7264e-4,1.5816447 1.5810683,0 3.5327802,0 Z"/>
</svg>
