<svg
   width="100%"
   height="51"
   viewBox="0 0 128 51"
   version="1.1"
   xml:space="preserve"
   style="clip-rule:evenodd;fill-rule:evenodd;stroke-miterlimit:22.9256"
   id="svg6869"><metadata
   id="metadata6875"><rdf:RDF><cc:Work
       rdf:about=""><dc:format>image/svg+xml</dc:format><dc:type
         rdf:resource="http://purl.org/dc/dcmitype/StillImage" /><dc:title></dc:title></cc:Work></rdf:RDF></metadata><defs
   id="defs6873">
        
        
        
    
            
            
        
            
            
        
            
        
                
                
                
                
                
                
                
                
                
                
                
                
                
                
                
                
                
                
                
                
                
                
                
                
                
                
                
                
                
                
                
                
                
                
                
                
                
                
            
                    
                
                    
                
                    
                
                    
                
                    
                
                    
                
                    
                
                    
                
                    
                
                    
                
                    
                
                    
                
                    
                
                    
                
                    
                
                    
                
                    
                
                    
                
                    
                
                    
                
                    
                
                    
                
                    
                
                    
                
                    
                
                    
                
                    
                
                        
                    
                        
                    
                        
                    
                        
                    
                        
                    
                        
                    
                        
                    
                        
                    
                        
                    
                        
                    
                        
                    
                        
                    
                        
                    
                        
                    
                        
                    
                        
                    
                        
                    
                        
                    
                        
                    
                        
                    
                        
                    
                
                
            
                    
                    
                
                
                
                
                
            
                
                
                
            
                    
                    
                    
                    
                    
                    
                    
                
                    
                    
                
                    
                    
                    
                    
                    
                
                    
                    
                
                    
                    
                    
                    
                    
                    
                
                    
                    
                
                    
                    
                    
                    
                    
                    
                
                        
                    
                        
                    
                        
                    
                        
                    
                        
                    
                        
                    
                        
                    
                        
                    
                        
                    
                        
                    
                        
                    
                        
                    
                        
                    
                        
                    
                        
                    </defs>
    <path
   d="m 40.751029,15.99893 c 2.071889,2.208657 4.164148,4.827618 7.091564,7.123574 1.862373,1.460798 7.952912,1.748884 6.07017,4.199068 l -2.552032,3.32608 c -0.340464,0.445223 1.175623,3.718925 0.6722,4.01574 -3.666545,2.153368 -7.746305,3.42211 -11.962832,3.957542 -3.643266,0.465592 9.538838,2.959426 12.370226,0.840977 1.574286,-1.178532 -1.292021,9.637777 -10.484574,10.938527 -8.648391,0.660561 -15.350022,-3.509407 -20.003043,-9.017955 -0.838067,0.485963 -1.411329,0.838067 -2.426904,0.838067 -2.118448,0 -4.059389,-1.588836 -4.059389,-3.704375 0,-0.707119 0.130948,-1.190172 0.352104,-1.853643"
   style="fill:none;stroke:#6d6e71;stroke-width:1.06184px"
   id="face" /><g
   id="eye"><path d="m 37.30855,27.144064 c 1.577197,0 2.863398,-1.501538 2.863398,-3.34063 0,-1.839093 -1.286201,-3.340631 -2.863398,-3.340631 -1.577196,0 -2.863398,1.501538 -2.863398,3.340631 0,1.839092 1.286202,3.34063 2.863398,3.34063 z"
     style="fill:none;stroke:#6d6e71;stroke-width:1.06184px"
     id="path6569" /><path d="m 38.129157,22.645271 c 0.424854,0 0.76823,-0.323005 0.76823,-0.721669 0,-0.398664 -0.346286,-0.72167 -0.76823,-0.72167 -0.424853,0 -0.768228,0.323006 -0.768228,0.72167 -0.0029,0.398664 0.343375,0.721669 0.768228,0.721669 z"
     style="fill:#6d6e71;stroke-width:0.0290996"
     id="path6571" /></g><g
   id="hair"><path d="m 43.573686,10.906505 c 0,-1.9729502 -1.23382,-2.7295389 -1.93221,-2.9885251 L 41.34175,8.5436206 c 0.567441,0.2357065 1.242552,0.8933567 1.32403,1.7052344 -1.364769,-0.3986638 -2.217386,0.811878 -2.217386,1.964221 0,0.779868 0.389934,1.428789 1.251281,1.428789 1.28038,0.0029 1.874011,-1.3444 1.874011,-2.73536 z m -0.829337,-0.08148 c 0,1.146524 -0.325915,2.159188 -0.957376,2.159188 -0.372474,0 -0.503423,-0.331734 -0.503423,-0.861347 0,-0.727489 0.480144,-1.606296 1.460799,-1.297841 z"
     style="fill:#009fc2;stroke-width:0.0290996"
     id="path6577" /><path d="m 32.63225,12.559361 c 0,-1.97295 -1.233822,-2.7295395 -1.932211,-2.9885256 l -0.299726,0.6256406 c 0.567442,0.235707 1.242551,0.893357 1.32403,1.705235 -1.364769,-0.398665 -2.217387,0.811878 -2.217387,1.96422 0,0.779868 0.389934,1.428789 1.251281,1.428789 1.283291,0.0029 1.874013,-1.3444 1.874013,-2.735359 z m -0.826428,-0.08148 c 0,1.146523 -0.325915,2.159188 -0.957376,2.159188 -0.372475,0 -0.503423,-0.331735 -0.503423,-0.861347 -0.0029,-0.727489 0.477234,-1.606297 1.460799,-1.297841 z"
     style="fill:#009fc2;stroke-width:0.0290996"
     id="path6583" /><g
     id="g8584"><path
       id="rect6589"
       style="fill:#009fc2;stroke-width:0.0290979"
       d="M 6.1612846,26.977615 6.422046,26.175078 7.2328847,26.438536 6.9721233,27.241074 Z" /><path
       id="rect6593"
       style="fill:#009fc2;stroke-width:0.0290979"
       d="m 7.6287478,27.455349 0.2607611,-0.802537 0.8108396,0.263459 -0.2607611,0.802537 z" /><path
       id="rect6597"
       style="fill:#009fc2;stroke-width:0.0290988"
       d="m 9.0982965,27.933785 0.2608457,-0.802537 0.8108388,0.263544 -0.2608455,0.802537 z" /></g><path d="m 12.605927,8.9568344 c 0.526703,0.3026356 0.881717,0.6838399 1.067954,1.1377926 0.171688,0.424854 0.162958,0.803148 -0.0291,1.131973 -0.168778,0.293907 -0.424854,0.451044 -0.771139,0.471413 0.0029,0.276447 -0.09894,0.596541 -0.308455,0.960286 -0.491783,0.849708 -1.050495,1.094144 -1.679046,0.7304 -0.244436,-0.142588 -0.404483,-0.331736 -0.477232,-0.567442 -0.101848,-0.343375 -0.01165,-0.759499 0.270625,-1.251281 0.162959,-0.285176 0.235708,-0.497603 0.209518,-0.637281 -0.01164,-0.08147 -0.06402,-0.145498 -0.154228,-0.200787 -0.09603,-0.05529 -0.180417,-0.06693 -0.256076,-0.03783 -0.133858,0.04947 -0.282266,0.215336 -0.448133,0.500512 -0.165868,0.288086 -0.2386169,0.503422 -0.2124273,0.643101 0.01164,0.08147 0.064019,0.148407 0.160048,0.203697 L 9.6232216,12.6583 C 8.9946709,12.294555 8.924832,11.689284 9.4166146,10.839577 9.6988804,10.353613 10.013155,10.068438 10.36235,9.9840493 c 0.241527,-0.055286 0.485963,-0.011635 0.73331,0.1309487 l 1.262921,0.730398 c 0.343375,0.197877 0.567442,0.206607 0.67511,0.02619 0.0873,-0.151317 0.06984,-0.343375 -0.05238,-0.581991 C 12.841634,10.013148 12.597198,9.7745323 12.253822,9.5766552 11.651462,9.2303704 11.014181,9.1459816 10.341981,9.326399 9.666871,9.5068163 9.1576285,9.8967507 8.8113436,10.499111 c -0.3462848,0.602361 -0.4306735,1.239642 -0.2502562,1.911842 0.1804173,0.67511 0.5703515,1.184353 1.1727125,1.530637 0.6023611,0.346285 1.2396421,0.430674 1.9118411,0.250257 0.675111,-0.180418 1.184353,-0.570352 1.530637,-1.172713 l 0.177508,-0.308455 0.616911,0.355014 -0.177508,0.308456 c -0.445223,0.771138 -1.102873,1.27165 -1.97004,1.504448 -0.861347,0.229886 -1.676136,0.122218 -2.4472737,-0.323006 C 8.6047367,14.110368 8.1042242,13.458537 7.8714276,12.59719 7.6386311,11.730023 7.7462995,10.909415 8.1915229,10.138277 8.6367462,9.3671384 9.2914865,8.8666258 10.155743,8.6396492 11.017091,8.4068527 11.834789,8.5116111 12.605927,8.9568344 Z m -0.608181,2.5054726 -0.01164,-0.0058 -0.404483,-0.232796 c -0.04074,0.218247 -0.136768,0.453954 -0.282266,0.707119 -0.165868,0.288086 -0.238617,0.503423 -0.218247,0.640191 0.01163,0.08147 0.06402,0.148408 0.160048,0.203697 0.09603,0.05529 0.180417,0.06693 0.256076,0.03783 0.133858,-0.04947 0.285175,-0.218247 0.451043,-0.506333 0.162957,-0.285175 0.235706,-0.497602 0.209517,-0.63728 -0.01164,-0.08439 -0.06402,-0.154228 -0.160048,-0.206607 z"
     style="fill:#009fc2;stroke-width:0.0290996"
     id="path6601" /><path d="m 27.673683,17.608136 c -1.262921,-0.200787 -2.572401,-0.68675 -3.713104,-1.641216 -1.131974,-0.948646 -1.844913,-2.162098 -2.255217,-3.36391 l -0.488873,0.151318 c 0.485963,1.923481 1.091234,2.994345 2.167918,3.896432 1.076684,0.902086 2.243576,1.321121 4.222347,1.463708 z"
     style="fill:#009fc2;stroke-width:0.0290996"
     id="path6603" /><path d="m 24.50765,7.8859704 h -1.420058 l 0.712939,1.2338217 -0.739129,0.4248536 -0.704209,-1.2367316 -0.715851,1.2367316 -0.730398,-0.4248536 0.70712,-1.2338217 h -1.42297 V 7.0420829 h 1.42297 l -0.70712,-1.2338217 0.730398,-0.4248536 0.715851,1.2367316 0.704209,-1.2367316 0.739129,0.4248536 -0.712939,1.2338217 h 1.420058 z"
     style="fill:#009fc2;stroke-width:0.0290996"
     id="path6609" /><path d="m 27.667864,11.287709 c 0.215336,0.424854 0.296815,0.811878 0.244436,1.161073 -0.02619,0.194967 -0.125129,0.430674 -0.296816,0.70712 -0.119308,0.194968 -0.183327,0.343375 -0.192057,0.445223 -0.02037,0.162958 0.03783,0.375385 0.171688,0.640191 l -0.75368,0.384114 c -0.224066,-0.439404 -0.308455,-0.832248 -0.256076,-1.181443 0.0291,-0.203697 0.130948,-0.445222 0.302636,-0.727489 0.113489,-0.192057 0.177507,-0.337555 0.189147,-0.433583 0.01746,-0.154228 -0.03783,-0.357925 -0.165868,-0.608181 -0.154228,-0.302636 -0.337555,-0.474323 -0.552891,-0.512152 -0.174598,-0.03201 -0.413215,0.0291 -0.71876,0.183327 -0.302635,0.154228 -0.494693,0.311365 -0.570351,0.471413 -0.09603,0.194967 -0.06693,0.442314 0.09021,0.747859 l -0.759499,0.387024 c -0.200788,-0.395754 -0.270626,-0.771139 -0.209517,-1.123243 0.08439,-0.503422 0.439404,-0.916636 1.065045,-1.236732 0.628549,-0.320095 1.169802,-0.363745 1.626665,-0.136768 0.323005,0.160048 0.584901,0.436494 0.785689,0.832247 z m 0.695479,4.460964 -0.753679,0.384115 -0.384114,-0.753679 0.753678,-0.384115 z"
     style="fill:#009fc2;stroke-width:0.0290996"
     id="path6615" /><path d="m 19.374487,25.499939 h -3.38719 v -0.843888 h 3.38719 z m 0,2.153367 h -3.38719 v -0.843887 h 3.38719 z"
     style="fill:#009fc2;stroke-width:0.0290996"
     id="path6621" /><path d="m 13.493464,35.967053 c -0.564531,0.6722 -1.204722,0.785689 -1.917662,0.337555 l -0.267716,0.320095 -0.573261,-0.480142 0.267716,-0.320096 c -0.555802,-0.628551 -0.552892,-1.277471 0.0087,-1.946761 l 0.573262,0.480143 c -0.273537,0.325915 -0.305546,0.622731 -0.09603,0.887536 l 1.041765,-1.239641 c -0.209517,-0.340465 -0.331735,-0.631461 -0.363745,-0.878807 -0.05238,-0.357925 0.05238,-0.689659 0.311366,-0.998115 0.561621,-0.66929 1.198902,-0.785688 1.917661,-0.346285 l 0.244436,-0.290995 0.573261,0.480142 -0.250255,0.296816 c 0.564531,0.62564 0.567441,1.274561 0.0029,1.946761 l -0.573261,-0.480143 c 0.267716,-0.320096 0.299725,-0.616911 0.09021,-0.893357 l -1.024304,1.219273 c 0.206607,0.343374 0.325914,0.64019 0.357924,0.893356 0.04656,0.363744 -0.06111,0.701299 -0.323006,1.012665 z m -0.451044,-2.575311 0.864258,-1.030125 c -0.302635,-0.154228 -0.587811,-0.06984 -0.858437,0.247346 -0.174598,0.209516 -0.174598,0.471413 -0.0058,0.782779 z m -0.122218,2.095168 c 0.186238,-0.221157 0.194967,-0.491782 0.02619,-0.814788 l -0.884627,1.053405 c 0.299726,0.165867 0.584902,0.08439 0.858437,-0.238617 z"
     style="fill:#009fc2;stroke-width:0.0290996"
     id="path6623" /><path d="M 6.3233306,31.881474 5.8169982,31.47117 C 5.6336709,31.698147 5.3746848,31.706877 5.0022103,31.407148 L 3.1223782,29.88524 3.4133739,29.524406 2.9215913,29.125742 0.50923709,32.105537 1.0010198,32.504201 1.2978353,32.137547 4.2077921,34.494611 4.7490441,33.825322 1.8390873,31.468257 2.5753064,30.56035 4.4929679,32.114267 c 0.7071195,0.573261 1.1901722,0.555802 1.8303627,-0.232796 z"
     style="fill:#009fc2;stroke-width:0.0290996"
     id="path6625" /><path d="m 13.289767,20.852737 -0.771139,-0.445222 0.375385,-0.648921 0.771139,0.445223 z m -1.533547,-0.884627 -0.762409,-0.442313 0.375384,-0.64892 0.762409,0.442314 z m 0.299725,4.140869 c -0.148407,0.258986 -0.363744,0.419034 -0.64019,0.480143 -0.401574,0.08439 -0.902086,-0.04656 -1.5044477,-0.392844 C 8.857903,23.588097 8.523258,22.953727 8.9073722,22.290256 9.05578,22.031271 9.2711168,21.871222 9.5475627,21.810113 c 0.4015739,-0.08439 0.9049973,0.04656 1.5131773,0.398664 0.352105,0.203697 0.611091,0.296816 0.776959,0.282266 0.09603,-0.0058 0.168777,-0.0582 0.224066,-0.154227 0.0582,-0.09894 0.06693,-0.192058 0.02328,-0.279356 -0.06984,-0.151318 -0.279356,-0.328825 -0.631461,-0.532522 -0.357924,-0.206607 -0.619821,-0.302636 -0.785688,-0.285176 -0.09603,0.0058 -0.171688,0.05819 -0.229887,0.160047 L 9.6756008,20.957496 c 0.3812042,-0.66347 1.0999632,-0.68966 2.1533682,-0.08147 0.602361,0.346285 0.966106,0.715849 1.094143,1.105783 0.08439,0.270627 0.05238,0.535433 -0.09603,0.794419 z m -0.762408,-0.442314 0.253166,-0.436493 c -0.264806,-0.06402 -0.552892,-0.186237 -0.864257,-0.366654 -0.357925,-0.206607 -0.616911,-0.302636 -0.7798689,-0.290996 -0.096029,0.0058 -0.1716871,0.05819 -0.2298862,0.160047 -0.058199,0.09894 -0.066929,0.192058 -0.02328,0.279356 0.069839,0.151318 0.2822661,0.328826 0.6401901,0.535433 0.352105,0.203696 0.611092,0.296815 0.776959,0.282265 0.09312,-0.0087 0.168777,-0.06111 0.226977,-0.162958 z"
     style="fill:#009fc2;stroke-width:0.0290996"
     id="path6631" /><path d="m 8.0809445,35.053327 -0.8351576,-0.130948 0.67511,-4.268907 0.8351576,0.130947 z m -0.2618961,1.658674 -0.8351576,-0.130947 0.1309481,-0.835157 0.8351576,0.130947 z"
     style="fill:#009fc2;stroke-width:0.0290996"
     id="path6633" /><path d="m 19.013652,21.906142 -1.070865,-1.3735 1.070865,-1.379319 -0.462683,-0.366655 -0.980655,1.274561 -0.992296,-1.26583 -0.453954,0.357924 1.062135,1.379319 -1.062135,1.3735 0.453954,0.363744 0.992296,-1.274561 0.980655,1.274561 z"
     style="fill:#009fc2;stroke-width:0.0290996"
     id="path6639" /><path d="M 5.8490077,20.03795 V 19.703305 H 5.1011488 L 5.3834146,18.533502 H 4.8363428 L 4.5453471,19.703305 H 3.6519904 L 3.9342562,18.533502 H 3.3871843 L 3.0961887,19.703305 H 2.266851 V 20.03795 H 3.0234397 L 2.8401124,20.782899 H 2.0107747 v 0.334644 h 0.7478589 l -0.3113654,1.265832 h 0.547072 L 3.3057055,21.111724 H 4.2077921 L 3.8964268,22.383375 H 4.4434986 L 4.754864,21.111724 H 5.5842017 V 20.779988 H 4.8363428 L 5.01967,20.03504 h 0.8293377 z m -1.3880494,0 -0.1833272,0.744949 H 3.3842743 L 3.5676016,20.03795 Z"
     style="fill:#009fc2;stroke-width:0.0290996"
     id="path6645" /><path d="M 28.703808,4.2747141 28.363343,3.6839928 26.064477,4.0535573 27.531095,2.2435642 27.19063,1.652843 25.401007,4.0913868 25.700732,4.6122691 Z"
     style="fill:#009fc2;stroke-width:0.0290996"
     id="path6647" /><path d="m 19.723681,12.565181 -0.829337,-1.33276 0.829337,-1.3414904 -0.439403,-0.3812044 c -0.09021,0.1454979 -0.992296,1.5742868 -1.079594,1.7226948 0.09021,0.145498 0.992295,1.583016 1.079594,1.722694 z m -1.364769,0 -0.820608,-1.33276 0.820608,-1.3414904 -0.430674,-0.3812044 c -0.09603,0.1454979 -0.989385,1.5742868 -1.079594,1.7226948 0.09021,0.145498 0.983565,1.583016 1.079594,1.722694 z"
     style="fill:#009fc2;stroke-width:0.0290996"
     id="path6653" /><path d="M 20.055417,15.635185 19.778971,15.9611 c -0.314276,0.369564 -0.66638,0.552892 -1.056314,0.552892 -0.264807,0 -0.602362,-0.107668 -1.015576,-0.325915 -0.302635,-0.157137 -0.512152,-0.235707 -0.625641,-0.235707 -0.136767,0 -0.276445,0.0873 -0.421943,0.258987 l -0.267716,0.325914 -0.64892,-0.552891 0.276446,-0.317185 c 0.320095,-0.369565 0.675109,-0.552892 1.065044,-0.552892 0.264805,0 0.60236,0.107668 1.015574,0.325915 0.296816,0.157138 0.503423,0.235706 0.616911,0.235706 0.136769,0 0.276446,-0.0873 0.421944,-0.258986 l 0.276446,-0.325915 z"
     style="fill:#009fc2;stroke-width:0.0290996"
     id="path6655" /><path d="M 3.0874587,27.097504 H 1.9671254 v 1.120334 H 1.120328 V 27.097504 H -5.3425652e-6 V 26.253618 H 1.120328 v -1.123244 h 0.8467974 v 1.123244 h 1.1203333 z"
     style="fill:#009fc2;stroke-width:0.0290996"
     id="path6661" /><path
     id="rect6667"
     style="fill:#009fc2;stroke-width:0.0290995"
     d="m 3.5134408,14.128669 0.4960371,-0.682705 5.5463895,4.029874 -0.496037,0.682705 z" /><path d="m 9.3787852,29.178124 0.7769578,-0.331735 0.593632,1.388049 1.472438,0.343375 -0.194967,0.823517 -1.888562,-0.439403 z"
     style="fill:#009fc2;stroke-width:0.0290996"
     id="path6673" /><g
     id="g8589"><path
       id="rect6679"
       style="fill:#009fc2;stroke-width:0.0290979"
       d="m 16.062142,23.109345 0.260761,-0.802537 0.810839,0.263459 -0.260761,0.802537 z" /><path
       id="rect6683"
       style="fill:#009fc2;stroke-width:0.0290979"
       d="m 17.529547,23.587078 0.260761,-0.802537 0.810839,0.263459 -0.260761,0.802537 z" /><path
       id="rect6687"
       style="fill:#009fc2;stroke-width:0.0290979"
       d="m 18.997879,24.062044 0.260761,-0.802538 0.810839,0.263459 -0.260761,0.802538 z" /></g><path d="m 34.410233,4.0186378 h -1.420059 l 0.71585,1.2338217 -0.739129,0.4219438 -0.70712,-1.2338217 -0.71585,1.2338217 -0.730398,-0.4219438 0.707119,-1.2338217 H 30.097677 V 3.1718405 h 1.422969 l -0.707119,-1.2338217 0.730398,-0.4219437 0.71585,1.2338216 0.70712,-1.2338216 0.739129,0.4219437 -0.71585,1.2338217 h 1.420059 z"
     style="fill:#009fc2;stroke-width:0.0290996"
     id="path6691" /><path d="m 37.570446,7.4203773 c 0.215337,0.4248537 0.296816,0.811878 0.244436,1.1610728 -0.02619,0.194967 -0.125128,0.4306736 -0.296815,0.7071195 -0.119308,0.1949671 -0.183327,0.3433748 -0.192057,0.4452233 -0.02037,0.1629578 0.03783,0.3753841 0.171687,0.6401901 l -0.753679,0.384115 C 36.519952,10.318695 36.435563,9.9258499 36.487942,9.5766552 36.517041,9.3729582 36.61889,9.1314319 36.790578,8.849166 36.904066,8.6571089 36.968085,8.5116111 36.979725,8.4155825 36.997185,8.2613548 36.941895,8.0576579 36.813857,7.8074015 36.659629,7.5047661 36.473393,7.3330786 36.260965,7.2952492 c -0.174597,-0.03201 -0.413213,0.0291 -0.718759,0.1833272 -0.302635,0.1542277 -0.494693,0.3113654 -0.570351,0.4714131 -0.09603,0.1949671 -0.06693,0.4423134 0.09021,0.7478589 L 34.302567,9.0848726 C 34.101779,8.6891184 34.03194,8.313734 34.093049,7.9616292 c 0.08439,-0.5034225 0.439405,-0.9166363 1.065045,-1.2367316 0.62855,-0.3200952 1.169803,-0.3637446 1.626665,-0.1367679 0.325916,0.1600476 0.584902,0.4364935 0.785689,0.8322476 z m 0.69548,4.4580537 -0.753679,0.384114 -0.384114,-0.753678 0.753679,-0.384115 z"
     style="fill:#009fc2;stroke-width:0.0290996"
     id="path6697" /><path d="M 29.277069,21.632606 H 25.88988 v -0.843888 h 3.387189 z m 0,2.150458 H 25.88988 v -0.843888 h 3.387189 z"
     style="fill:#009fc2;stroke-width:0.0290996"
     id="path6703" /><path d="m 22.866435,28.703801 c -0.564532,0.6722 -1.204723,0.785689 -1.917662,0.337555 l -0.267716,0.320095 -0.573261,-0.480143 0.267716,-0.320095 c -0.555802,-0.628551 -0.552893,-1.277471 0.0087,-1.946761 l 0.573261,0.480143 c -0.273535,0.325915 -0.305545,0.62273 -0.09603,0.887536 l 1.041764,-1.239641 c -0.209516,-0.340465 -0.331735,-0.631461 -0.363744,-0.878807 -0.05238,-0.357925 0.05238,-0.689659 0.311365,-0.998115 0.561622,-0.66929 1.198903,-0.785689 1.917662,-0.346285 l 0.244436,-0.290995 0.573261,0.480142 -0.250256,0.296816 c 0.564531,0.62564 0.567442,1.274561 0.0029,1.946761 l -0.573262,-0.480143 c 0.267716,-0.320096 0.299725,-0.616911 0.09021,-0.893357 l -1.021395,1.219273 c 0.206607,0.343374 0.325915,0.640189 0.357924,0.893356 0.04365,0.360834 -0.06402,0.69839 -0.325914,1.012665 z m -0.451044,-2.578222 0.864258,-1.030125 c -0.302636,-0.154227 -0.587812,-0.06984 -0.858437,0.247347 -0.174598,0.209517 -0.177508,0.471413 -0.0058,0.782778 z m -0.125128,2.095169 c 0.186237,-0.221156 0.194967,-0.491783 0.02619,-0.814788 l -0.884627,1.053405 c 0.302635,0.165867 0.587812,0.0873 0.858437,-0.238617 z"
     style="fill:#009fc2;stroke-width:0.0290996"
     id="path6705" /><path d="m 16.225914,28.014141 -0.506333,-0.410304 c -0.183327,0.226977 -0.442313,0.235707 -0.814788,-0.06402 l -1.879832,-1.521907 0.290996,-0.360834 -0.491783,-0.398665 -2.412354,2.979795 0.491783,0.398665 0.296815,-0.366655 2.909957,2.357066 0.541252,-0.669291 -2.909957,-2.357065 0.736219,-0.907906 1.917662,1.553917 c 0.707119,0.570351 1.190172,0.555801 1.830363,-0.232797 z"
     style="fill:#009fc2;stroke-width:0.0290996"
     id="path6707" /><path d="m 24.228295,18.67027 -0.771139,-0.445223 0.375384,-0.648921 0.771139,0.445224 z m -1.533548,-0.884627 -0.762409,-0.442313 0.375385,-0.648921 0.762408,0.442314 z m 0.302635,4.140869 c -0.148407,0.258986 -0.363744,0.419033 -0.640189,0.480142 -0.401575,0.08439 -0.902087,-0.04656 -1.504449,-0.392844 -1.053403,-0.608181 -1.388049,-1.242551 -1.003934,-1.906021 0.148407,-0.258986 0.363745,-0.419034 0.64019,-0.480143 0.401575,-0.08439 0.904997,0.04656 1.513177,0.398664 0.352105,0.203697 0.611092,0.296816 0.776959,0.282265 0.09603,-0.0058 0.168777,-0.05819 0.224067,-0.154227 0.0582,-0.09894 0.06693,-0.192057 0.02328,-0.279356 -0.06984,-0.151318 -0.279356,-0.328825 -0.631461,-0.532522 -0.357925,-0.206607 -0.619821,-0.302635 -0.785688,-0.285176 -0.09603,0.0058 -0.171688,0.0582 -0.229887,0.160047 l -0.762409,-0.439403 c 0.381204,-0.66347 1.099964,-0.68966 2.153369,-0.08147 0.60236,0.346285 0.966104,0.71585 1.094143,1.105784 0.08439,0.270626 0.05238,0.535432 -0.09603,0.794418 z m -0.765318,-0.442314 0.253166,-0.436494 c -0.264806,-0.06402 -0.552892,-0.186237 -0.864257,-0.366654 -0.357925,-0.206607 -0.616911,-0.302636 -0.779869,-0.290996 -0.09603,0.0058 -0.171687,0.05821 -0.229885,0.160048 -0.05819,0.09894 -0.06693,0.192057 -0.02328,0.279356 0.06984,0.151318 0.282265,0.328826 0.64019,0.535432 0.352104,0.203697 0.611091,0.296816 0.776958,0.282266 0.09312,-0.0087 0.168778,-0.06111 0.226977,-0.162958 z"
     style="fill:#009fc2;stroke-width:0.0290996"
     id="path6713" /><path d="m 17.986437,31.183084 -0.835157,-0.130948 0.67511,-4.268907 0.835157,0.130948 z m -0.264806,1.661585 -0.835158,-0.130947 0.130949,-0.835158 0.835157,0.130947 z"
     style="fill:#009fc2;stroke-width:0.0290996"
     id="path6715" /><path d="m 30.62729,19.746954 -1.070865,-1.37059 1.070865,-1.382229 -0.462684,-0.366654 -0.983566,1.27747 -0.989384,-1.26874 -0.453954,0.357924 1.062135,1.382229 -1.062135,1.37059 0.453954,0.366654 0.989384,-1.274561 0.983566,1.274561 z"
     style="fill:#009fc2;stroke-width:0.0290996"
     id="path6721" /><path d="m 15.751591,16.170617 v -0.334644 h -0.750769 l 0.282265,-1.169804 h -0.544162 l -0.290995,1.169804 h -0.893356 l 0.282265,-1.169804 h -0.547072 l -0.290995,1.169804 h -0.829339 v 0.334644 h 0.75659 l -0.183327,0.74495 h -0.829339 v 0.334644 h 0.74786 l -0.311366,1.265832 h 0.547072 l 0.311365,-1.271651 h 0.902087 l -0.311365,1.271651 h 0.547072 l 0.311364,-1.271651 h 0.829339 v -0.331736 h -0.74786 l 0.183327,-0.744949 h 0.829339 z m -1.38805,0 -0.183327,0.74495 h -0.893357 l 0.183328,-0.74495 z"
     style="fill:#009fc2;stroke-width:0.0290996"
     id="path6727" /><path d="M 40.655001,2.6218586 40.314536,2.0311374 38.015669,2.4036119 39.482288,0.59070885 39.138913,-1.2367049e-5 37.352199,2.4385314 37.651925,2.9594137 Z"
     style="fill:#009fc2;stroke-width:0.0290996"
     id="path6729" /><path d="m 29.626264,8.6949383 -0.829337,-1.3327601 0.829337,-1.34149 -0.439403,-0.3812044 c -0.09021,0.1454978 -0.992295,1.5742866 -1.079594,1.7226944 0.09021,0.1454978 0.992295,1.5830165 1.079594,1.7226944 z m -1.36477,0 -0.820607,-1.3327601 0.820607,-1.34149 -0.430673,-0.3812044 c -0.09603,0.1454978 -0.989386,1.5742866 -1.079594,1.7226944 0.09021,0.1454978 0.983565,1.5830165 1.079594,1.7226944 z"
     style="fill:#009fc2;stroke-width:0.0290996"
     id="path6735" /><path d="m 24.327233,0.82059543 -0.0029,0.42776367 c -0.0029,0.4830528 -0.154228,0.8497073 -0.453954,1.1028736 -0.203737,0.1716874 -0.532563,0.3055454 -0.986516,0.404484 -0.334645,0.075659 -0.544162,0.1484077 -0.63146,0.2211567 -0.104759,0.087299 -0.157138,0.2444364 -0.157138,0.471413 l 0.0029,0.4219437 -0.852617,-0.00582 0.0087,-0.4190337 c 0.0087,-0.4859628 0.160047,-0.8555273 0.459772,-1.1057835 0.203697,-0.1716875 0.532522,-0.3055455 0.986476,-0.4044841 0.328825,-0.069839 0.538342,-0.1425879 0.62564,-0.2153368 0.104759,-0.087298 0.157138,-0.2444363 0.157138,-0.4714129 l 0.0029,-0.42776369 z"
     style="fill:#009fc2;stroke-width:0.0290996"
     id="path6737" /><path d="M 8.3893999,23.902372 H 7.2661566 v 1.120333 H 6.4222692 V 23.902372 H 5.3019359 v -0.843887 h 1.1203333 v -1.120333 h 0.8438874 v 1.120333 h 1.1232433 z"
     style="fill:#009fc2;stroke-width:0.0290996"
     id="path6743" /></g><g
   id="npdl"><path d="m 108.86705,38.186106 -0.3853,-0.670602 1.25885,-0.729428 0.38824,0.670603 z"
     style="fill:#6d6e71;fill-rule:nonzero;stroke-width:0.0294124"
     id="path6753" /><path d="m 107.44055,42.992093 c -1.44121,0 -2.16181,-0.5206 -2.16181,-1.561799 v -4.447155 h 0.84414 v 4.447155 c 0,0.223534 0.0765,0.388244 0.22647,0.49707 0.2,0.147062 0.56472,0.220593 1.08826,0.220593 v 0.844136 z"
     style="fill:#6d6e71;stroke-width:0.0294124"
     id="path6755" /><path
     id="rect6759"
     style="fill:#6d6e71;stroke-width:0.0294124"
     d="M 108.02586,38.674355 H 108.87 v 4.31774 h -0.84414 z" /><path d="m 113.79951,42.992093 h -0.84413 v -2.152988 c 0,-0.438245 -0.0735,-0.755899 -0.2206,-0.950021 -0.17941,-0.244123 -0.49413,-0.364713 -0.94414,-0.364713 -0.45001,0 -0.76766,0.12059 -0.95002,0.364713 -0.14706,0.194122 -0.22059,0.511776 -0.22059,0.950021 v 2.152988 h -0.84413 v -2.152988 c 0,-1.441208 0.6706,-2.161812 2.01474,-2.161812 1.33827,0 2.00887,0.720604 2.00887,2.161812 z"
     style="fill:#6d6e71;stroke-width:0.0294124"
     id="path6763" /><path d="m 118.68491,43.112683 c 0,1.050023 -0.6706,1.576505 -2.00887,1.576505 h -1.59415 v -0.844136 h 1.59415 c 0.50296,0 0.84414,-0.08824 1.01473,-0.267653 0.0971,-0.09706 0.14706,-0.252946 0.14706,-0.464716 v -0.12059 h -1.16179 c -1.34414,0 -2.01475,-0.717663 -2.01475,-2.152988 0,-1.441208 0.67061,-2.161812 2.01475,-2.161812 1.33827,0 2.00887,0.720604 2.00887,2.161812 z m -0.84708,-0.967668 v -1.308851 c 0,-0.438245 -0.0735,-0.755899 -0.22059,-0.950021 -0.17941,-0.244123 -0.49413,-0.364714 -0.94414,-0.364714 -0.45001,0 -0.76766,0.120591 -0.95002,0.364714 -0.14706,0.194122 -0.22059,0.511776 -0.22059,0.950021 0,0.432362 0.0735,0.750016 0.22059,0.95002 0.1853,0.238241 0.50001,0.358831 0.95002,0.358831 z"
     style="fill:#6d6e71;stroke-width:0.0294124"
     id="path6767" /><path d="m 123.63502,40.836164 c 0,1.435325 -0.6706,2.152987 -2.01475,2.152987 -1.33827,0 -2.00887,-0.717662 -2.00887,-2.152987 v -2.161812 h 0.84414 v 2.161812 c 0,0.438244 0.0735,0.755898 0.22059,0.95002 0.17942,0.238241 0.49413,0.358831 0.94414,0.358831 0.45001,0 0.76472,-0.12059 0.94414,-0.358831 0.14706,-0.194122 0.22059,-0.511776 0.22059,-0.95002 v -2.161812 h 0.85296 v 2.161812 z"
     style="fill:#6d6e71;stroke-width:0.0294124"
     id="path6771" /><path d="m 127.99982,41.697947 c 0,0.861783 -0.58237,1.291204 -1.7471,1.291204 -0.66766,0 -1.14708,-0.155885 -1.43826,-0.464716 -0.20001,-0.217651 -0.30001,-0.494128 -0.30001,-0.829429 0,-0.335302 0.1,-0.611778 0.30001,-0.82943 0.29118,-0.30883 0.77354,-0.464716 1.43826,-0.464716 0.39413,0 0.65884,-0.05294 0.78825,-0.161768 0.0765,-0.05882 0.11471,-0.152945 0.11471,-0.276477 0,-0.129414 -0.0382,-0.223534 -0.11471,-0.2853 -0.12941,-0.108826 -0.39412,-0.161768 -0.78825,-0.161768 -0.39118,0 -0.65001,0.05294 -0.77943,0.161768 -0.0765,0.05882 -0.11471,0.155886 -0.11471,0.2853 h -0.84413 c 0,-0.335301 0.1,-0.611778 0.30001,-0.829429 0.29118,-0.30883 0.77354,-0.464716 1.43826,-0.464716 1.16473,0 1.7471,0.429421 1.7471,1.291204 z m -0.84414,0 v -0.567659 c -0.25,0.0853 -0.55001,0.129414 -0.90296,0.129414 -0.39118,0 -0.65001,0.05294 -0.77943,0.155886 -0.0765,0.05882 -0.11471,0.155886 -0.11471,0.2853 0,0.129415 0.0382,0.223534 0.11471,0.285301 0.12942,0.108825 0.39119,0.161768 0.77943,0.161768 0.39413,0 0.65884,-0.05294 0.78825,-0.161768 0.0765,-0.06177 0.11471,-0.155886 0.11471,-0.288242 z"
     style="fill:#6d6e71;stroke-width:0.0294124"
     id="path6775" /><path d="m 61.213081,42.992093 h -0.844135 v -2.152988 c 0,-0.438245 -0.07353,-0.755899 -0.220593,-0.950021 -0.179416,-0.244123 -0.494129,-0.364713 -0.944138,-0.364713 -0.45001,0 -0.767664,0.12059 -0.950021,0.364713 -0.147062,0.194122 -0.220593,0.511776 -0.220593,0.950021 v 2.152988 h -0.844136 v -2.152988 c 0,-1.441208 0.670603,-2.161812 2.01475,-2.161812 1.338264,0 2.008866,0.720604 2.008866,2.161812 z"
     style="fill:#6d6e71;stroke-width:0.0294124"
     id="path6781" /><path d="m 65.577882,41.697947 c 0,0.861783 -0.582366,1.291204 -1.747097,1.291204 -0.667661,0 -1.147084,-0.155885 -1.438266,-0.464716 -0.200005,-0.217651 -0.300007,-0.494128 -0.300007,-0.829429 0,-0.335302 0.100002,-0.611778 0.300007,-0.82943 0.291182,-0.30883 0.773546,-0.464716 1.438266,-0.464716 0.394126,0 0.658838,-0.05294 0.788252,-0.161768 0.07647,-0.05882 0.114709,-0.152945 0.114709,-0.276477 0,-0.129414 -0.03824,-0.223534 -0.114709,-0.2853 -0.129414,-0.108826 -0.394126,-0.161768 -0.788252,-0.161768 -0.391185,0 -0.650014,0.05294 -0.779429,0.161768 -0.07647,0.05882 -0.114708,0.155886 -0.114708,0.2853 h -0.844136 c 0,-0.335301 0.100002,-0.611778 0.300007,-0.829429 0.291182,-0.30883 0.773546,-0.464716 1.438266,-0.464716 1.164731,0 1.747097,0.429421 1.747097,1.291204 z m -0.844136,0 v -0.567659 c -0.250006,0.0853 -0.550012,0.129414 -0.902961,0.129414 -0.391185,0 -0.650014,0.05294 -0.779429,0.155886 -0.07647,0.05882 -0.114708,0.155886 -0.114708,0.2853 0,0.129415 0.03824,0.223534 0.114708,0.285301 0.129415,0.108825 0.391185,0.161768 0.779429,0.161768 0.394126,0 0.658838,-0.05294 0.788252,-0.161768 0.07647,-0.06177 0.114709,-0.155886 0.114709,-0.288242 z"
     style="fill:#6d6e71;stroke-width:0.0294124"
     id="path6785" /><path d="m 73.080985,40.836164 c 0,1.435325 -0.670603,2.152987 -2.01475,2.152987 h -1.161789 v 1.700037 H 69.06031 v -3.853024 c 0,-1.441208 0.670603,-2.161812 2.008867,-2.161812 1.338264,0 2.011808,0.720604 2.011808,2.161812 z m -0.847077,0 c 0,-0.438245 -0.07353,-0.755899 -0.220593,-0.950021 -0.185298,-0.244123 -0.500011,-0.364714 -0.950021,-0.364714 -0.450009,0 -0.764722,0.120591 -0.944138,0.364714 -0.147062,0.194122 -0.220593,0.511776 -0.220593,0.950021 v 1.308851 h 1.16179 c 0.45001,0 0.767664,-0.12059 0.950021,-0.358831 0.152944,-0.197063 0.223534,-0.514717 0.223534,-0.95002 z"
     style="fill:#6d6e71;stroke-width:0.0294124"
     id="path6791" /><path d="m 77.842852,40.836164 c 0,1.435325 -0.670602,2.152987 -2.008866,2.152987 -1.344147,0 -2.01475,-0.717662 -2.01475,-2.152987 0,-1.441208 0.670603,-2.161812 2.01475,-2.161812 1.341205,0 2.008866,0.720604 2.008866,2.161812 z m -0.844135,0 c 0,-0.438245 -0.07353,-0.755899 -0.220593,-0.950021 -0.179416,-0.244123 -0.494129,-0.364714 -0.944138,-0.364714 -0.45001,0 -0.764723,0.120591 -0.944139,0.364714 -0.147062,0.194122 -0.220593,0.511776 -0.220593,0.950021 0,0.438244 0.07353,0.755898 0.220593,0.95002 0.179416,0.238241 0.494129,0.358831 0.944139,0.358831 0.450009,0 0.764722,-0.12059 0.944138,-0.358831 0.147062,-0.19118 0.220593,-0.508834 0.220593,-0.95002 z"
     style="fill:#6d6e71;stroke-width:0.0294124"
     id="path6795" /><path d="M 82.737076,42.992093 H 81.89294 v -2.152988 c 0,-0.438245 -0.07353,-0.755899 -0.220593,-0.950021 -0.179416,-0.244123 -0.494128,-0.364713 -0.944138,-0.364713 -0.45001,0 -0.767664,0.12059 -0.950021,0.364713 -0.147062,0.194122 -0.220593,0.511776 -0.220593,0.950021 v 2.152988 h -0.844136 v -2.152988 c 0,-1.441208 0.670603,-2.161812 2.01475,-2.161812 1.338264,0 2.008867,0.720604 2.008867,2.161812 z"
     style="fill:#6d6e71;stroke-width:0.0294124"
     id="path6799" /><path d="m 85.801848,43.000916 c -1.435325,0 -2.152988,-0.52354 -2.152988,-1.567681 V 36.98608 h 0.844136 v 1.700037 h 1.308852 v 0.844136 h -1.308852 v 1.902982 c 0,0.226476 0.07353,0.394127 0.220593,0.502952 0.200004,0.147062 0.564718,0.220593 1.088259,0.220593 z"
     style="fill:#6d6e71;stroke-width:0.0294124"
     id="path6803" /><path d="m 90.00488,41.697947 c 0,0.861783 -0.582366,1.291204 -1.747097,1.291204 -0.667661,0 -1.147083,-0.155885 -1.438266,-0.464716 -0.200004,-0.217651 -0.300007,-0.494128 -0.300007,-0.829429 0,-0.335302 0.100003,-0.611778 0.300007,-0.82943 0.291183,-0.30883 0.773546,-0.464716 1.438266,-0.464716 0.394126,0 0.658838,-0.05294 0.788253,-0.161768 0.07647,-0.05882 0.114708,-0.152945 0.114708,-0.276477 0,-0.129414 -0.03824,-0.223534 -0.114708,-0.2853 -0.129415,-0.108826 -0.394127,-0.161768 -0.788253,-0.161768 -0.391185,0 -0.650014,0.05294 -0.779428,0.161768 -0.07647,0.05882 -0.114709,0.155886 -0.114709,0.2853 h -0.847077 c 0,-0.335301 0.100002,-0.611778 0.300007,-0.829429 0.291182,-0.30883 0.773546,-0.464716 1.438266,-0.464716 1.164731,0 1.747097,0.429421 1.747097,1.291204 v 1.738273 z m -0.844136,0 v -0.567659 c -0.250005,0.0853 -0.550012,0.129414 -0.902961,0.129414 -0.391185,0 -0.650014,0.05294 -0.779428,0.155886 -0.07647,0.05882 -0.114709,0.155886 -0.114709,0.2853 0,0.129415 0.03824,0.223534 0.114709,0.285301 0.129414,0.108825 0.391185,0.161768 0.779428,0.161768 0.394126,0 0.658838,-0.05294 0.788253,-0.161768 0.07647,-0.06177 0.114708,-0.155886 0.114708,-0.288242 z"
     style="fill:#6d6e71;stroke-width:0.0294124"
     id="path6807" /><path d="m 97.425628,40.836164 c 0,1.441207 -0.670602,2.161811 -2.008867,2.161811 -1.344146,0 -2.014749,-0.720604 -2.014749,-2.161811 0,-1.435325 0.670603,-2.152988 2.014749,-2.152988 h 1.16179 v -1.700037 h 0.844136 v 3.853025 z m -0.844136,0 v -1.308852 h -1.161789 c -0.45001,0 -0.764723,0.120591 -0.944138,0.358831 -0.147062,0.194122 -0.220593,0.511776 -0.220593,0.950021 0,0.438244 0.07353,0.755898 0.220593,0.95002 0.179415,0.244123 0.494128,0.364714 0.944138,0.364714 0.450009,0 0.764722,-0.120591 0.944138,-0.364714 0.14412,-0.19118 0.217651,-0.508834 0.217651,-0.95002 z"
     style="fill:#6d6e71;stroke-width:0.0294124"
     id="path6813" /><path d="m 101.79925,41.697947 c 0,0.861783 -0.58236,1.291204 -1.74709,1.291204 -0.667666,0 -1.147088,-0.155885 -1.438271,-0.464716 -0.200004,-0.217651 -0.300006,-0.494128 -0.300006,-0.829429 0,-0.335302 0.100002,-0.611778 0.300006,-0.82943 0.291183,-0.30883 0.773546,-0.464716 1.438271,-0.464716 0.39412,0 0.65883,-0.05294 0.78825,-0.161768 0.0765,-0.05882 0.11471,-0.152945 0.11471,-0.276477 0,-0.129414 -0.0382,-0.223534 -0.11471,-0.2853 -0.12942,-0.108826 -0.39413,-0.161768 -0.78825,-0.161768 -0.391189,0 -0.650018,0.05294 -0.779433,0.161768 -0.07647,0.05882 -0.114708,0.155886 -0.114708,0.2853 h -0.844136 c 0,-0.335301 0.100002,-0.611778 0.300006,-0.829429 0.291183,-0.30883 0.773546,-0.464716 1.438271,-0.464716 1.16473,0 1.74709,0.429421 1.74709,1.291204 z m -0.84413,0 v -0.567659 c -0.25001,0.0853 -0.55002,0.129414 -0.90296,0.129414 -0.391189,0 -0.650018,0.05294 -0.779433,0.155886 -0.07647,0.05882 -0.114708,0.155886 -0.114708,0.2853 0,0.129415 0.03824,0.223534 0.114708,0.285301 0.129415,0.108825 0.391185,0.161768 0.779433,0.161768 0.39412,0 0.65883,-0.05294 0.78825,-0.161768 0.0765,-0.06177 0.11471,-0.155886 0.11471,-0.288242 z"
     style="fill:#6d6e71;stroke-width:0.0294124"
     id="path6817" /></g>
     
     
     
     
     
     
     
    <g id="cde">
      <path d="m 59.498322,35.268596 c -0.139808,0.532164 -0.527654,0.793737 -1.154526,0.793737 -0.807266,0 -1.213155,-0.437457 -1.213155,-1.307862 0,-0.865894 0.405889,-1.303353 1.213155,-1.303353 0.626872,0 1.014721,0.266084 1.154526,0.793738 h -0.541183 c -0.09922,-0.189414 -0.302163,-0.284121 -0.613343,-0.284121 -0.270591,0 -0.460007,0.07216 -0.568243,0.216473 -0.09019,0.117253 -0.130792,0.311181 -0.130792,0.572754 0,0.266082 0.04509,0.455496 0.130792,0.572753 0.108237,0.148824 0.297652,0.220984 0.568243,0.220984 0.306671,0 0.514125,-0.09471 0.613343,-0.284122 h 0.541183 z"/>
      <path d="m 62.35307,36.066844 h -1.213154 c -0.811777,0 -1.217665,-0.432948 -1.217665,-1.303354 0,-0.870404 0.405888,-1.307861 1.217665,-1.307861 0.807266,0 1.213154,0.437457 1.213154,1.307861 v 0.257064 h -1.907674 c 0.05413,0.356279 0.284121,0.536673 0.69452,0.536673 h 1.213154 z m -0.527655,-1.555906 c -0.05411,-0.360789 -0.279612,-0.541184 -0.685499,-0.541184 -0.410399,0 -0.640402,0.180395 -0.69452,0.541184 z"/>
      <path d="M 65.383703,36.066844 H 64.865068 V 34.76349 c 0,-0.266082 -0.0451,-0.455496 -0.130793,-0.572752 -0.108237,-0.148825 -0.297652,-0.220984 -0.568243,-0.220984 -0.270593,0 -0.464517,0.07216 -0.572754,0.220984 -0.09019,0.117253 -0.130793,0.31118 -0.130793,0.572752 v 1.303354 H 62.95287 V 34.76349 c 0,-0.870404 0.405889,-1.307861 1.217665,-1.307861 0.807267,0 1.213156,0.437457 1.213156,1.307861 z"/>
      <path d="m 67.277847,36.071353 c -0.865895,0 -1.303352,-0.315691 -1.303352,-0.947073 v -2.687882 h 0.509615 v 1.02825 h 0.789228 v 0.509615 H 66.48411 v 1.150017 c 0,0.1353 0.0451,0.239023 0.130793,0.306672 0.121761,0.09019 0.34275,0.130792 0.658441,0.130792 v 0.509615 z"/>
      <path d="m 69.090815,33.969754 c -0.315691,0 -0.536675,0.04509 -0.65844,0.130792 -0.09019,0.06765 -0.130793,0.166866 -0.130793,0.306671 v 1.659633 h -0.509615 v -1.659633 c 0,-0.631381 0.432947,-0.947072 1.303352,-0.947072 v 0.509615 z"/>
      <path d="m 71.954582,34.76349 c 0,0.865895 -0.405887,1.303354 -1.213154,1.303354 -0.811778,0 -1.217665,-0.432948 -1.217665,-1.303354 0,-0.870404 0.405887,-1.307861 1.217665,-1.307861 0.807267,0.0044 1.213154,0.437457 1.213154,1.307861 z m -0.514125,0 c 0,-0.266082 -0.04509,-0.455496 -0.130792,-0.572752 -0.108237,-0.148825 -0.297652,-0.220984 -0.568243,-0.220984 -0.270593,0 -0.460008,0.07216 -0.568245,0.220984 -0.09019,0.117253 -0.130792,0.31118 -0.130792,0.572752 0,0.266083 0.0451,0.455498 0.130792,0.572755 0.108237,0.144316 0.297652,0.216473 0.568245,0.216473 0.270591,0 0.460006,-0.07216 0.568243,-0.216473 0.08568,-0.112746 0.130792,-0.306672 0.130792,-0.572755 z"/>
      <path d="m 76.53661,34.76349 c 0,0.870406 -0.405889,1.307863 -1.213155,1.307863 -0.811777,0 -1.217665,-0.437457 -1.217665,-1.307863 0,-0.865894 0.405888,-1.303351 1.217665,-1.303351 h 0.703539 v -1.028251 h 0.509616 z m -0.514125,0 v -0.789227 h -0.703541 c -0.270591,0 -0.460006,0.07216 -0.568243,0.216475 -0.09021,0.117253 -0.130792,0.31118 -0.130792,0.572752 0,0.266083 0.04509,0.455498 0.130792,0.572755 0.108237,0.148824 0.297652,0.220984 0.568243,0.220984 0.270594,0 0.460008,-0.07216 0.568245,-0.220984 0.09471,-0.112746 0.135301,-0.306672 0.135301,-0.572755 z"/>
      <path d="m 79.535673,36.066844 h -1.213155 c -0.811776,0 -1.217665,-0.432948 -1.217665,-1.303354 0,-0.870404 0.405889,-1.307861 1.217665,-1.307861 0.807266,0 1.213155,0.437457 1.213155,1.307861 v 0.257064 h -1.907675 c 0.05413,0.356279 0.284121,0.536673 0.69452,0.536673 h 1.213155 z m -0.527654,-1.555906 c -0.05411,-0.360789 -0.279612,-0.541184 -0.685501,-0.541184 -0.410399,0 -0.640402,0.180395 -0.69452,0.541184 z"/>
      <path d="m 84.14025,36.066844 h -1.213156 c -0.811776,0 -1.217665,-0.432948 -1.217665,-1.303354 0,-0.870404 0.405889,-1.307861 1.217665,-1.307861 0.807267,0 1.213156,0.437457 1.213156,1.307861 v 0.257064 h -1.907676 c 0.05413,0.356279 0.284122,0.536673 0.69452,0.536673 h 1.213156 z m -0.523145,-1.555906 c -0.05413,-0.360789 -0.279612,-0.541184 -0.685501,-0.541184 -0.410397,0 -0.640401,0.180395 -0.69452,0.541184 z"/>
      <path d="m 86.841661,34.240345 h -0.509615 c 0,-0.07667 -0.02256,-0.1353 -0.06765,-0.171374 -0.07667,-0.06765 -0.234514,-0.09922 -0.473536,-0.09922 -0.234514,0 -0.392358,0.03157 -0.473537,0.09922 -0.0451,0.03608 -0.06765,0.09471 -0.06765,0.171374 0,0.09922 0.03157,0.162356 0.09471,0.198435 0.06765,0.03157 0.220984,0.05863 0.464517,0.07216 0.29765,0.01805 0.518634,0.06314 0.66295,0.130793 0.243533,0.126269 0.369809,0.34275 0.369809,0.64942 0,0.518636 -0.351769,0.780208 -1.050799,0.780208 -0.699031,0 -1.050799,-0.261572 -1.050799,-0.780208 h 0.509615 c 0,0.07667 0.02255,0.135301 0.06765,0.171375 0.07667,0.06765 0.234514,0.09922 0.473538,0.09922 0.234512,0 0.392357,-0.03157 0.473536,-0.09922 0.04509,-0.03608 0.06765,-0.09471 0.06765,-0.171375 0,-0.09471 -0.03157,-0.157845 -0.09019,-0.189414 -0.06765,-0.03608 -0.225494,-0.06314 -0.464517,-0.07667 -0.302161,-0.01803 -0.523145,-0.06314 -0.662951,-0.130793 -0.248044,-0.121761 -0.374319,-0.33824 -0.374319,-0.64942 0,-0.518636 0.351769,-0.780208 1.0508,-0.780208 0.703539,-0.0044 1.050798,0.252553 1.050798,0.775697 z"/>
      <path d="m 88.681688,36.071353 c -0.865895,0 -1.303352,-0.315691 -1.303352,-0.947073 v -2.687882 h 0.509615 v 1.02825 h 0.789227 v 0.509615 h -0.789227 v 1.150017 c 0,0.1353 0.0451,0.239023 0.130792,0.306672 0.121761,0.09019 0.34275,0.130792 0.658441,0.130792 v 0.509615 z"/>
      <path d="m 91.626633,34.76349 c 0,0.865895 -0.405888,1.303354 -1.217665,1.303354 -0.807267,0 -1.213154,-0.432948 -1.213154,-1.303354 v -1.307861 h 0.509615 v 1.307861 c 0,0.266083 0.0451,0.455498 0.130792,0.572755 0.108237,0.144316 0.297652,0.216473 0.568243,0.216473 0.270592,0 0.460008,-0.07216 0.568243,-0.216473 0.09019,-0.117253 0.130793,-0.311182 0.130793,-0.572755 v -1.307861 h 0.514126 v 1.307861 z"/>
      <path d="m 94.616676,34.76349 c 0,0.870406 -0.405887,1.307863 -1.213154,1.307863 -0.811778,0 -1.217665,-0.437457 -1.217665,-1.307863 0,-0.865894 0.405887,-1.303351 1.217665,-1.303351 h 0.703539 v -1.028251 h 0.509615 z m -0.509615,0 v -0.789227 h -0.703539 c -0.270593,0 -0.460008,0.07216 -0.568245,0.216475 -0.09019,0.117253 -0.130792,0.31118 -0.130792,0.572752 0,0.266083 0.04509,0.455498 0.130792,0.572755 0.108237,0.148824 0.297652,0.220984 0.568245,0.220984 0.270591,0 0.460006,-0.07216 0.568243,-0.220984 0.09019,-0.112746 0.135301,-0.306672 0.135301,-0.572755 z"/>
      <path d="m 97.58868,34.76349 c 0,0.865895 -0.405888,1.303354 -1.213154,1.303354 -0.811777,0 -1.217665,-0.432948 -1.217665,-1.303354 0,-0.870404 0.405888,-1.307861 1.217665,-1.307861 0.811776,0.0044 1.213154,0.437457 1.213154,1.307861 z m -0.509615,0 c 0,-0.266082 -0.0451,-0.455496 -0.130793,-0.572752 -0.108237,-0.148825 -0.297651,-0.220984 -0.568243,-0.220984 -0.270592,0 -0.460006,0.07216 -0.568243,0.220984 -0.09019,0.117253 -0.130793,0.31118 -0.130793,0.572752 0,0.266083 0.0451,0.455498 0.130793,0.572755 0.108237,0.144316 0.297651,0.216473 0.568243,0.216473 0.270592,0 0.460008,-0.07216 0.568243,-0.216473 0.08568,-0.112746 0.130793,-0.306672 0.130793,-0.572755 z"/>
    </g>
</svg>
