<svg width="100%" height="100%" viewBox="0 0 64 64"
   version="1.1"
   xml:space="preserve"
   style="fill-rule:evenodd;clip-rule:evenodd;fill:var(--color-b)">
    <path d="m 31.99994,5.7668463 c 8.543984,0 9.556554,0.032 12.930261,0.1851425 3.119995,0.1417141 4.813706,0.6651416 5.942846,1.1017123 1.389712,0.5142847 2.646853,1.3325689 3.677708,2.395424 1.062855,1.0308549 1.881139,2.2879959 2.395424,3.6799929 0.438856,1.12457 0.959998,2.820566 1.101712,5.940561 0.153143,3.373707 0.185143,4.386277 0.185143,12.930261 0,8.543984 -0.032,9.556554 -0.185143,12.932547 -0.141714,3.119994 -0.665141,4.813705 -1.101712,5.94056 -1.076569,2.788567 -3.284565,4.996563 -6.073132,6.073132 -1.126855,0.438856 -2.822851,0.959998 -5.942846,1.101712 -3.371422,0.153143 -4.383991,0.185143 -12.930261,0.185143 -8.54627,0 -9.558839,-0.032 -12.932547,-0.185143 -3.119994,-0.141714 -4.813705,-0.662856 -5.94056,-1.101712 C 11.737121,56.43418 10.47998,55.615896 9.4468394,54.553041 8.3839843,53.5199 7.5657001,52.262759 7.0537011,50.873047 6.6148447,49.746192 6.0937029,48.052481 5.9519888,44.932487 5.7988463,41.556494 5.7668463,40.543924 5.7668463,31.99994 c 0,-8.543984 0.032,-9.556554 0.1851425,-12.930261 C 6.0937029,15.949684 6.6148447,14.255973 7.0537011,13.129118 7.5657001,11.737121 8.3839843,10.47998 9.4468394,9.4491251 10.47998,8.38627 11.737121,7.5679858 13.126833,7.0537011 14.253688,6.6171304 15.949684,6.0937029 19.069679,5.9519888 22.443386,5.7988463 23.455956,5.7668463 31.99994,5.7668463 M 31.99994,0 C 23.309671,0 22.219387,0.03657136 18.806822,0.19199964 15.398828,0.34742792 13.074261,0.88914119 11.039979,1.6799968 8.9028404,2.4845668 6.9691298,3.743993 5.3714185,5.3691328 3.743993,6.9691298 2.4845668,8.9051262 1.6799968,11.037694 0.88685548,13.074261 0.34742792,15.401114 0.19428535,18.806822 0.03657136,22.219387 0,23.309671 0,31.99994 c 0,8.690269 0.03657136,9.780553 0.19428535,13.193118 0.15314257,3.407994 0.69485584,5.732561 1.48571145,7.766843 0.80457,2.137139 2.0639962,4.070849 3.6914217,5.66856 1.5977113,1.627426 3.5314219,2.886852 5.6685605,3.691422 2.034282,0.790856 4.358849,1.332569 7.766843,1.485712 3.412565,0.155428 4.502849,0.194285 13.193118,0.194285 8.690269,0 9.782839,-0.03886 13.193118,-0.194285 3.407994,-0.153143 5.732561,-0.694856 7.769128,-1.485712 4.294849,-1.661711 7.695986,-5.062848 9.357697,-9.359982 0.793142,-2.034282 1.332569,-4.358849 1.487997,-7.766843 0.155429,-3.412565 0.192,-4.502849 0.192,-13.193118 0,-8.690269 -0.03657,-9.780553 -0.192,-13.193118 C 63.652452,15.398828 63.113025,13.074261 62.319883,11.037694 61.515313,8.9028404 60.255887,6.9691298 58.630747,5.3714185 57.03075,3.7417073 55.09704,2.4845668 52.959901,1.6799968 50.925619,0.88685548 48.601052,0.34742792 45.193058,0.19428535 41.780493,0.03657136 40.690209,0 31.99994,0 Z"/>
    <path d="m 31.99994,15.567971 c -9.01484,0 -16.431969,7.417129 -16.431969,16.431969 0,9.01484 7.417129,16.431969 16.431969,16.431969 9.01484,0 16.431969,-7.417129 16.431969,-16.431969 0,-9.01484 -7.417129,-16.431969 -16.431969,-16.431969 z m 0,27.097092 c -5.851418,0 -10.665123,-4.813705 -10.665123,-10.665123 0,-5.851418 4.813705,-10.665123 10.665123,-10.665123 5.851418,0 10.665123,4.813705 10.665123,10.665123 0,5.851418 -4.813705,10.665123 -10.665123,10.665123 z"/>
   <circle
   cx="49.081051"
   cy="14.918829"
   r="3.8399928"/>
</svg>
