<svg width="100%" height="100%" viewBox="0 0 64 64" fill="var(--color-b)">
    <path d="m 63.99988,50.546191 c 0,0.818284 -0.153143,1.885711 -0.454856,3.204565 -0.304,1.316569 -0.621713,2.354282 -0.955427,3.113137 -0.635427,1.51314 -2.484567,3.119995 -5.542847,4.818277 -2.85028,1.54514 -5.668561,2.31771 -8.457127,2.31771 -0.818284,0 -1.611425,-0.05486 -2.386281,-0.16 -0.770284,-0.105142 -1.643426,-0.294856 -2.612567,-0.566856 -0.969141,-0.271999 -1.689139,-0.493713 -2.15771,-0.658284 -0.470856,-0.169143 -1.311997,-0.477714 -2.523424,-0.93257 -1.213712,-0.454856 -1.956567,-0.729141 -2.228567,-0.818284 -2.969137,-1.06057 -5.620561,-2.31771 -7.951985,-3.773707 C 24.847953,54.694755 20.841104,51.430761 16.703969,47.295911 12.569119,43.158776 9.3051254,39.151927 6.9097013,35.270791 5.4537041,32.939367 4.1965636,30.287943 3.1359941,27.318806 3.0468514,27.046806 2.7725662,26.303951 2.3177099,25.090239 1.8651394,23.878812 1.5542828,23.037671 1.3851403,22.566815 1.2205691,22.098244 1.001141,21.378246 0.72914149,20.409105 0.45485629,19.439964 0.26514236,18.566822 0.1599997,17.796538 0.05485704,17.021682 0,16.228541 0,15.410257 0,12.621691 0.77256998,9.8034102 2.3177099,6.9531298 4.0159925,3.8948498 5.6228466,2.0457105 7.1359866,1.4102831 7.8948423,1.0765694 8.9325547,0.75885572 10.249124,0.45485629 11.567978,0.15085686 12.635405,0 13.453689,0 c 0.425142,0 0.742856,0.0457142 0.955427,0.13485689 0.543999,0.1828568 1.348569,1.33485461 2.409138,3.45599351 0.333714,0.5759989 0.78857,1.3919974 1.364569,2.4548525 0.575999,1.0605695 1.106284,2.0228534 1.588568,2.8868518 0.486857,0.8639984 0.957713,1.6731393 1.410284,2.4319953 0.09143,0.118857 0.35657,0.498285 0.795427,1.135998 0.438856,0.635427 0.765713,1.172569 0.975998,1.613711 0.212571,0.438857 0.319999,0.86857 0.319999,1.295998 0,0.605713 -0.431999,1.362283 -1.295997,2.271996 -0.863999,0.907426 -1.803426,1.741711 -2.815995,2.500566 -1.017141,0.75657 -1.956568,1.558855 -2.820566,2.406853 -0.861713,0.850284 -1.293712,1.54514 -1.293712,2.091425 0,0.271999 0.07543,0.614856 0.226285,1.021712 0.150857,0.411428 0.281143,0.719999 0.386285,0.93257 0.107429,0.212571 0.317714,0.575999 0.637713,1.092569 0.317714,0.514285 0.491428,0.802284 0.521142,0.861713 2.303996,4.153135 4.939419,7.714271 7.908557,10.681123 2.969137,2.971423 6.530273,5.606846 10.683408,7.910842 0.05943,0.02971 0.347428,0.203428 0.861713,0.521142 0.51657,0.319999 0.879998,0.530284 1.092569,0.637713 0.212571,0.105142 0.521142,0.235428 0.93257,0.386285 0.406856,0.150857 0.749713,0.226285 1.021712,0.226285 0.546285,0 1.241141,-0.431999 2.091425,-1.293712 0.847998,-0.863998 1.650283,-1.803425 2.406853,-2.820566 0.758855,-1.012569 1.59314,-1.951996 2.500566,-2.815995 0.909713,-0.863998 1.666283,-1.295997 2.271996,-1.295997 0.425142,0 0.857141,0.107428 1.295998,0.319999 0.441142,0.210285 0.978284,0.537142 1.613711,0.975998 0.637713,0.438857 1.017141,0.703999 1.135998,0.795427 0.758856,0.452571 1.567997,0.923427 2.431995,1.410283 0.863999,0.482285 1.826283,1.01257 2.886852,1.588569 1.060569,0.575999 1.878854,1.030855 2.454853,1.364569 2.121138,1.060569 3.273136,1.865139 3.455993,2.409138 0.08914,0.212571 0.134857,0.530285 0.134857,0.955427 z"/>
</svg>
