<svg width="100%" height="100%" viewBox="0 0 64 64" style="fill-rule:evenodd;clip-rule:evenodd;fill:var(--color-b)">
    <path d="M 57.213607,63.999656 H 6.786273 C 3.0399943,63.999656 0,60.148964 0,55.403637 V 8.596007 C 0,3.8506798 3.0399943,-1.28e-5 6.786273,-1.28e-5 h 50.427334 c 3.746279,0 6.786273,3.8506926 6.786273,8.5960198 v 46.80763 c 0,4.745327 -3.039994,8.596019 -6.786273,8.596019 z m 0.05029,-47.803598 C 50.210196,24.64442 43.154209,33.092782 36.102793,41.541143 33.43537,44.734612 29.327949,45.441055 26.29024,41.471653 L 6.7359874,16.995149 V 55.467332 H 57.263893 Z M 53.867328,8.5323113 H 9.5565535 C 16.799968,17.539458 24.143955,26.416318 31.21137,35.643504 Z"/>
</svg>
