<?xml version="1.0" encoding="UTF-8" standalone="no"?>
<svg
   xmlns:dc="http://purl.org/dc/elements/1.1/"
   xmlns:cc="http://creativecommons.org/ns#"
   xmlns:rdf="http://www.w3.org/1999/02/22-rdf-syntax-ns#"
   xmlns:svg="http://www.w3.org/2000/svg"
   xmlns="http://www.w3.org/2000/svg"
   width="100%"
   height="100%"
   viewBox="0 0 64 64"
   version="1.1"
   xml:space="preserve"
   style="fill-rule:evenodd;clip-rule:evenodd;stroke-linejoin:round;stroke-miterlimit:2;"
   id="svg5624"><metadata
   id="metadata5630"><rdf:RDF><cc:Work
       rdf:about=""><dc:format>image/svg+xml</dc:format><dc:type
         rdf:resource="http://purl.org/dc/dcmitype/StillImage" /><dc:title></dc:title></cc:Work></rdf:RDF></metadata><defs
   id="defs5628">
        
    </defs>
    <path
   d="m 60.46714,0 c 1.951712,0 3.533353,1.5816409 3.533353,3.5309957 V 60.467712 c 0,1.949355 -1.581641,3.533353 -3.533353,3.533353 H 44.160445 V 39.215738 h 8.318347 l 1.24457,-9.657202 H 44.160445 V 23.3899 c 0,-2.795568 0.775499,-4.702494 4.784994,-4.702494 l 5.114994,-0.0024 V 10.046131 C 53.176506,9.9306308 50.140509,9.6666311 46.607157,9.6666311 c -7.373134,0 -12.422128,4.5021379 -12.422128,12.7662699 v 7.125635 H 25.84311 v 9.657202 h 8.341919 V 64.001065 H 3.5327802 c -1.9517119,0 -3.53335284,-1.583998 -3.53335284,-3.533353 V 3.5309957 C -5.7264e-4,1.5816409 1.5810683,0 3.5327802,0 Z"
   style="fill-rule:nonzero;stroke-width:2.35714"
   id="facebook" />
</svg>
