<svg width="100%" height="100%" viewBox="0 0 64 64" style="fill-rule:evenodd;clip-rule:evenodd;stroke-linejoin:round;stroke-miterlimit:2;">
  <path fill="var(--color-b)" d="m 49.499903,38.138173 c -0.205984,-0.336441 -0.741542,-0.535558 -1.551745,-0.94066 -0.810202,-0.398235 -4.792555,-2.348216 -5.534096,-2.609129 -0.741542,-0.267779 -1.283966,-0.405101 -1.819523,0.398236 -0.535558,0.803337 -2.094169,2.609128 -2.561065,3.151553 -0.473763,0.535558 -0.947525,0.604219 -1.757728,0.205983 -0.810203,-0.398235 -3.41933,-1.249635 -6.509087,-3.98922 -2.403143,-2.1285 -4.030415,-4.758227 -4.504178,-5.561564 -0.473762,-0.803337 -0.04806,-1.235903 0.357039,-1.641004 0.363905,-0.357039 0.810203,-0.94066 1.215304,-1.407556 0.405101,-0.466897 0.542424,-0.803337 0.810203,-1.338895 0.274645,-0.535558 0.137322,-1.002455 -0.06866,-1.407557 -0.199118,-0.398235 -1.819524,-4.353125 -2.49927,-5.966665 -0.67288,-1.606674 -1.34576,-1.338895 -1.819523,-1.338895 -0.473763,0 -1.00932,-0.06866 -1.551744,-0.06866 -0.542424,0 -1.414422,0.199118 -2.16283,1.002455 -0.741541,0.803336 -2.835709,2.746451 -2.835709,6.70134 0,3.95489 2.897504,7.772457 3.302606,8.308015 0.405101,0.535558 5.602758,8.912234 13.828376,12.125582 8.232483,3.213348 8.232483,2.142232 9.715566,2.011776 1.483083,-0.137323 4.792556,-1.943114 5.465436,-3.817567 0.686612,-1.874453 0.686612,-3.481127 0.480629,-3.817567 z"/>
  <path
   d="M 6.5270413,46.37239 C 3.8577328,41.809544 2.327626,36.500049 2.327626,30.836186 2.327626,13.817125 16.144738,2.2476e-5 33.163812,2.2476e-5 c 17.019073,0 30.836185,13.817102524 30.836185,30.836163524 0,17.019061 -13.817112,30.836438 -30.836185,30.836438 -5.663868,0 -10.973366,-1.530381 -15.536216,-4.199687 L 5.051e-5,63.999923 Z m 3.9074037,1.446871 0.684565,-1.849038 -0.995531,-1.701522 C 7.8159572,40.323665 6.4940767,35.733073 6.4940767,30.836186 c 0,-14.719233 11.9504913,-26.6694411 26.6697353,-26.6694411 14.719243,0 26.66946,11.9502081 26.66946,26.6694411 0,14.719507 -11.950217,26.669715 -26.66946,26.669715 -4.896892,0 -9.487487,-1.321879 -13.432251,-3.6294 l -1.701797,-0.99553 -10.9741903,4.063434 c 2.747e-4,0 3.3788713,-9.125144 3.3788713,-9.125144 z"
   style="stroke-width:var(--stroke-width)" />
</svg>
