<svg width="38" height="40" viewBox="0 0 10.054166 10.583334" fill="var(--color-a)">
  
  <path
     d="m 9.4265883,5.2043595 q 0,0.7355419 -0.21296,1.4234583 -0.20776,0.6879174 -0.59733,1.254126 h -2.28546 l -0.14024,-0.613834 q -0.38437,0.3175007 -0.73758,0.4868335 -0.35321,0.1693337 -0.8103,0.1693337 -0.87263,0 -1.39724,-0.6720423 -0.51943,-0.6720413 -0.51943,-1.8785418 0,-1.2012085 0.63889,-1.9155841 0.63889,-0.7143756 1.5271,-0.7143756 0.37918,0 0.67006,0.089958 0.29088,0.084664 0.6285,0.2592921 V 2.838984 h 0.82587 v 4.455584 h 1.26221 q 0.21815,-0.3968751 0.32723,-0.9895418 0.11428,-0.5979587 0.11428,-1.0689174 0,-0.8678328 -0.23895,-1.5769164 -0.23373,-0.7090836 -0.69082,-1.2170836 -0.45709,-0.508001 -1.13234,-0.7778761 -0.67525,-0.2751662 -1.5323,-0.2751662 -0.83107,0 -1.52191,0.3069164 -0.68563,0.3069175 -1.17909,0.8255006 -0.49864,0.518583 -0.78432,1.2435417 -0.28049,0.7196667 -0.28049,1.5345841 0,0.8731249 0.2701,1.5980836 0.2701,0.719668 0.76355,1.2329591 0.51423,0.5344587 1.20506,0.8043345 0.69083,0.275166 1.50633,0.275166 0.44669,0 0.91937,-0.05821 0.47787,-0.05821 0.91419,-0.1852086 v 0.7514166 q -0.50384,0.111126 -0.94016,0.148167 -0.43631,0.04233 -0.8986,0.04233 -0.96613,0 -1.79201,-0.338666 -0.82587,-0.333376 -1.41802,-0.9366252 -0.59734,-0.6085423 -0.92976997,-1.4605012 -0.33243,-0.8519587 -0.33243,-1.8838338 0,-0.9789587 0.34801,-1.8203344 0.34801997,-0.8466667 0.95054997,-1.4657915 0.60252,-0.6191259 1.42841,-0.9736677 0.82588,-0.35454183 1.76604,-0.35454183 1.01807,0 1.81798,0.32808353 0.7999,0.3280836 1.35049,0.9207503 0.55059,0.5926667 0.84147,1.4287503 0.29606,0.8307925 0.29606,1.8520846 z m -3.24638,1.3493757 V 3.8126506 q -0.32723,-0.1534582 -0.58695,-0.2169587 -0.25971,-0.068793 -0.55578,-0.068793 -0.67006,0 -1.04923,0.4762497 -0.37918,0.4762507 -0.37918,1.3546677 0,0.8625417 0.30126,1.3070423 0.30127,0.4392084 0.94015,0.4392084 0.34802,0 0.69604,-0.1640422 0.34801,-0.1640414 0.63369,-0.3862896 z"
     />
  <path
     d="m 8.3669633,4.2994789 h -1.72967 l -0.47787,1.9896676 h 1.59982 v 0.7143747 h -1.78161 l -0.54021,2.2277925 h -0.67005 l 0.5402,-2.2277925 h -1.40244 l -0.5402,2.2277925 h -0.67005 l 0.5402,-2.2277925 h -1.54788 V 6.2891465 h 1.72968 l 0.47786,-1.9896676 h -1.59982 V 3.5851042 h 1.78161 l 0.54541,-2.2330846 h 0.67005 l -0.54539,2.2330846 h 1.40244 l 0.54539,-2.2330846 h 0.67005 l -0.54539,2.2330846 h 1.54787 z m -2.38414,-0.010588 h -1.42322 l -0.48825,2.0108339 h 1.42322 z"
     />
  <path
     d="m 8.2890583,5.7150003 h -2.83086 v 2.8839592 h -0.86223 V 5.7150003 h -2.83086 V 4.8683326 h 2.83086 V 1.9843739 h 0.86223 v 2.8839587 h 2.83086 z"
     />
  <path
     d="m 8.4085248,3.8840824 q -0.0104,0.5238747 -0.11947,1.0318749 -0.10389,0.5080012 -0.33762,0.9048765 -0.23894,0.4074582 -0.57657,0.6402917 -0.33762,0.2328325 -0.85705,0.2328325 -0.48825,0 -0.86743,-0.206374 -0.37918,-0.2116669 -0.81549,-0.7514175 -0.52981,-0.6614593 -0.768739,-0.830792 -0.238943,-0.1693338 -0.498653,-0.1693338 -0.48825,0 -0.74797,0.4656671 -0.25971,0.4603751 -0.306459,1.4975431 h -0.867432 q 0.01035,-0.5291678 0.114276,-1.0265842 0.109078,-0.5027083 0.337618,-0.9101675 0.223354,-0.3915834 0.581759,-0.6297079 0.358395,-0.2434169 0.857048,-0.2434169 0.483064,0 0.862232,0.2063746 0.38438,0.2010832 0.82589,0.7514166 0.41554,0.518584 0.68044,0.7620013 0.2649,0.2381244 0.58176,0.2381244 0.53499,0 0.78432,-0.5344587 0.25451,-0.5344587 0.2701,-1.4287502 z"
     />
  <path
     d="M 8.1072598,4.6037493 H 1.9469068 V 3.7570829 h 6.160353 z m 0,2.2225011 H 1.9469068 V 5.9795838 h 6.160353 z"
     />
  <g>
    <path
       d="M 1.7832903,6.0457292 H 0.54187133 V 4.5376041 H 1.7832903 Z"
/>
    <path
       d="m 5.6477973,6.0457292 h -1.24142 V 4.5376041 h 1.24142 z"
 />
    <path
       d="M 9.5122953,6.0457292 H 8.2708763 V 4.5376041 h 1.241419 z"
/>
  </g>
  <path
     d="M 5.4789803,10.445752 H 4.5751863 V 0.13758117 h 0.903794 z"
/>
  <path
     d="M 6.5905443,10.498669 H 5.4010683 Q 4.4816903,9.4244592 3.9726563,8.1544588 3.4636223,6.8844578 3.4636223,5.2916662 q 0,-1.5927926 0.509034,-2.8627925 0.509034,-1.270001 1.428412,-2.34420953 h 1.189476 v 0.05292 q -0.420731,0.386292 -0.805104,0.89429203 -0.379179,0.502709 -0.706414,1.1747504 -0.311654,0.650875 -0.509034,1.4340422 -0.192187,0.7831672 -0.192187,1.6510011 0,0.904875 0.186993,1.656292 0.192186,0.7514169 0.514228,1.4287506 0.311654,0.6508757 0.711609,1.1747507 0.399954,0.5291678 0.799909,0.8942928 z"
/>
  <path
     d="m 3.8947423,3.5348332 q 0,1.1853334 -0.493451,1.7621258 -0.488257,0.5767916 -1.412828,0.5767916 -0.94535,0 -1.42841197,-0.5767916 -0.483063,-0.5767924 -0.483063,-1.7568338 0,-1.1853343 0.493451,-1.7621259 0.49345197,-0.5767925 1.41802397,-0.5767925 0.940154,0 1.423216,0.5820836 0.483063,0.5820836 0.483063,1.7515428 z M 7.4839503,1.349374 3.4324563,9.2286685 H 2.5754093 L 6.6269033,1.349374 Z m 2.493228,5.6938348 q 0,1.1853341 -0.493452,1.762126 -0.493452,0.5767917 -1.418023,0.5767917 -0.940155,0 -1.423217,-0.5820826 -0.483063,-0.5820838 -0.483063,-1.7515432 0,-1.1853332 0.488257,-1.7621258 0.493451,-0.5767914 1.418023,-0.5767914 0.945349,0 1.428411,0.5767914 0.483064,0.5767926 0.483064,1.7568339 z M 2.9701703,3.5348332 q 0,-0.9101672 -0.233739,-1.270001 -0.228547,-0.3598329 -0.747968,-0.3598329 -0.529811,0 -0.758357,0.3598329 -0.228547,0.3598338 -0.228547,1.275293 0,0.9154583 0.228547,1.2752921 0.228546,0.3545418 0.758357,0.3545418 0.519421,0 0.747968,-0.3545418 0.233739,-0.3598338 0.233739,-1.2805841 z m 6.082436,3.5083756 q 0,-0.9101661 -0.23374,-1.27 -0.228547,-0.3598338 -0.747968,-0.3598338 -0.529811,0 -0.758357,0.3598338 -0.228546,0.3598339 -0.228546,1.2752919 0,0.9154583 0.228546,1.2752924 0.228546,0.3545411 0.758357,0.3545411 0.519421,0 0.747968,-0.3545411 0.23374,-0.3598341 0.23374,-1.2805843 z"
/>
  <path
     d="m 7.6371808,6.49552 q 0,0.8202085 -0.628502,1.3652508 -0.628501,0.5397507 -1.646568,0.6402927 V 10.416647 H 4.7491928 V 8.527521 Q 4.0635548,8.5221511 3.4610248,8.3952296 2.8584958,8.2629371 2.4169858,8.0565621 v -1.04775 h 0.08311 q 0.09869,0.074087 0.353207,0.2169587 0.254518,0.1375831 0.493451,0.2275417 0.2701,0.100537 0.628501,0.1904996 0.363596,0.084664 0.77394,0.1005471 V 5.453067 Q 4.5414218,5.410735 4.3648178,5.373686 4.1882148,5.331354 4.0375818,5.289022 3.1909238,5.0720643 2.8221338,4.6381468 q -0.36879,-0.4392084 -0.36879,-1.0795004 0,-0.7831672 0.60253,-1.3229165 0.607724,-0.5397502 1.693317,-0.629709 V 0.16668617 h 0.612918 V 1.5954374 q 0.524617,0.010578 1.075204,0.1270001 0.550588,0.1164168 0.924572,0.2698751 v 1.0371672 h -0.07272 Q 6.8996008,2.7860608 6.4736748,2.6008523 6.0529428,2.4103518 5.3621108,2.3627275 v 2.2807089 q 0.155826,0.02646 0.337624,0.074087 0.181798,0.042332 0.316849,0.068793 0.773938,0.1693334 1.194671,0.5820836 0.425926,0.4127492 0.425926,1.127125 z M 4.7491928,4.5534778 V 2.3680185 q -0.555782,0.042332 -0.93496,0.3122085 -0.379179,0.2645841 -0.379179,0.7408338 0,0.4815418 0.280488,0.7249587 0.280489,0.2434169 1.033651,0.4074583 z m 1.90628,2.0796253 q 0,-0.497417 -0.306459,-0.7249577 -0.301266,-0.2328339 -0.986903,-0.3651259 v 2.1907513 q 0.623307,-0.063499 0.955737,-0.3227915 0.337625,-0.2592922 0.337625,-0.7778762 z"
/>
  <path
     d="M 7.5722523,7.7311253 4.8297023,5.513916 V 5.0641247 l 2.74255,-2.2119173 v 0.9948338 l -1.854338,1.4446253 1.854338,1.444625 z M 5.3387373,7.8845843 2.4819143,5.5244988 V 5.0535406 l 2.856823,-2.3547915 v 1.0371662 l -1.927057,1.5557512 1.927057,1.5557498 z"
/>
  <path
     d="M 8.0241498,5.6197495 2.0300168,8.3343763 V 7.3818756 L 6.7567598,5.2916669 2.0300168,3.2014574 V 2.248957 l 5.994133,2.7146264 z"
/>
  <path
     d="M 7.4553828,8.2470637 H 6.4788688 V 3.1935204 h -2.90357 V 8.2470637 H 2.5987838 V 2.3362696 h 4.856599 z"
/>
  <path
     d="M 8.0968693,9.7313767 H 1.9572973 V 8.7206676 L 5.4530103,5.1858329 2.0092393,1.8467906 V 0.85195667 h 5.885056 V 1.7832901 h -4.628053 l 3.365856,3.1802931 v 0.3809999 l -3.459352,3.45546 h 4.924123 z"
/>
  <path
     d="m 7.2216463,3.283478 q 0,0.5185841 -0.181798,0.9260423 -0.181798,0.4021671 -0.477868,0.7143756 -0.290877,0.3016244 -0.670055,0.5662085 -0.379178,0.264583 -0.805104,0.513292 V 7.1940219 H 4.1570543 V 5.5800621 q 0.337625,-0.1957916 0.727191,-0.4286244 0.394762,-0.2328339 0.644084,-0.4709587 0.301265,-0.2751672 0.46748,-0.5662085 0.166215,-0.2963333 0.166215,-0.7514169 0,-0.5979587 -0.399955,-0.889001 -0.394761,-0.2963333 -1.023261,-0.2963333 -0.560977,0 -1.064816,0.1799174 -0.498646,0.1799163 -0.789522,0.3651249 h -0.05195 V 1.6430611 q 0.363595,-0.1428752 0.919376,-0.254 0.560977,-0.116417 1.059622,-0.116417 1.116758,0 1.760842,0.5556254 0.649278,0.5503333 0.649278,1.4552085 z M 5.1699283,9.3106893 H 4.1103073 V 8.1941466 h 1.059621 z"
     />
  <path
     d="m 7.4917423,10.419296 h -0.97132 V 9.7895877 q -0.129856,0.08996 -0.353207,0.2539993 -0.2181572,0.158751 -0.4259261,0.254 -0.244129,0.121709 -0.5609764,0.201085 -0.3168473,0.08466 -0.7427732,0.08466 -0.784328,0 -1.3297216,-0.529168 -0.5453937,-0.5291623 -0.5453937,-1.3493701 0,-0.6720414 0.2804882,-1.0847917 0.2856828,-0.4180423 0.8102991,-0.6561671 0.5298108,-0.2381249 1.272585,-0.3227916 0.7427733,-0.084665 1.5946257,-0.127 V 6.3605853 q 0,-0.3386677 -0.119466,-0.5609175 Q 6.2866833,5.5774181 6.0685243,5.4504181 5.860756,5.3287091 5.5698796,5.2863758 5.2790032,5.2440435 4.9621558,5.2440435 q -0.3843721,0 -0.8570474,0.1058338 -0.4726742,0.100547 -0.9765131,0.2963334 h -0.051946 v -1.010708 q 0.2856828,-0.07937 0.8258818,-0.1746243 0.540199,-0.095253 1.0648162,-0.095253 0.6129173,0 1.0648149,0.1058338 0.457092,0.1005472 0.789522,0.3492497 0.327237,0.2434169 0.498645,0.629709 0.17141,0.386292 0.17141,0.9577916 z m -0.97132,-1.4552081 v -1.645709 q -0.446703,0.02646 -1.0544267,0.07937 -0.6025301,0.052921 -0.9557377,0.1534592 -0.4207313,0.121708 -0.6804431,0.381 -0.2597108,0.2540003 -0.2597108,0.7037916 0,0.508001 0.3012646,0.767293 0.3012656,0.254 0.9193775,0.254 0.5142281,0 0.9401549,-0.201084 0.4259263,-0.206374 0.7895213,-0.4921253 z m 0.46748,-7.1702106 q 0,0.756708 -0.529811,1.2805831 -0.5298106,0.5238751 -1.2881666,0.5238751 -0.7479679,0 -1.2829733,-0.518583 Q 3.351947,2.5558773 3.351947,1.7938773 q 0,-0.7567089 0.5298108,-1.27529206 Q 4.4115676,1.1666667e-6 5.1699247,1.1666667e-6 q 0.7635506,0 1.2881666,0.5185840733333 0.529811,0.51858316 0.529811,1.27529206 z m -0.753162,0 q 0,-0.4550835 -0.3064596,-0.767292 -0.3012646,-0.31750066 -0.758356,-0.31750066 -0.4570915,0 -0.7635507,0.31220856 -0.3012656,0.3122085 -0.3012656,0.7725841 0,0.4603746 0.3064592,0.7725831 0.3064592,0.3122085 0.7583571,0.3122085 0.4570914,0 0.758356,-0.3122085 0.3064596,-0.3122085 0.3064596,-0.7725831 z"
/>
  <path
     d="m 7.6728856,4.7906929 q 0,0.8787139 -0.2072021,1.8431573 -0.2072033,0.9644432 -0.6428596,1.6234789 -0.4515951,0.6643955 -0.9935097,0.9269376 -0.5366014,0.262542 -1.1369578,0.262542 -1.0200751,0 -1.6682469,-0.6751095 -0.6428596,-0.6804677 -0.6428596,-1.7681454 0,-1.2216278 0.711927,-1.993183 0.7172402,-0.7769125 1.7904428,-0.7769125 0.4781605,0 0.8978781,0.1393092 0.4250309,0.1393082 0.8447495,0.4875795 0.01063,-0.1393081 0.015936,-0.2946915 0.00535,-0.1607396 0.00535,-0.3000489 0,-1.1626897 -0.4197176,-1.7038491 -0.4197192,-0.5411594 -1.2272778,-0.5411594 -0.4144053,0 -0.9031904,0.1714565 Q 3.6138703,2.3581527 3.199466,2.6528442 H 3.1410282 V 1.6133884 Q 3.5713712,1.3776353 4.1026604,1.2597598 4.6392617,1.1365247 5.1492997,1.1365247 q 0.7278647,0 1.2697793,0.2946915 0.5472279,0.2893331 0.8766271,0.9537264 0.2231409,0.4607896 0.2975216,1.0126658 0.079689,0.5518753 0.079689,1.3930845 z M 6.5943697,5.6426169 Q 6.275597,5.3907905 5.8718172,5.2461241 5.4680374,5.1014576 5.0855097,5.1014576 q -0.7491168,0 -1.1953998,0.4875794 -0.4462829,0.4875795 -0.4462829,1.3984426 0,0.7769124 0.3559635,1.1894801 0.3612767,0.4072089 0.9563199,0.4072089 0.6800494,0 1.1103935,-0.5197269 0.4356574,-0.5197279 0.6162953,-1.5377514 0.031882,-0.1768148 0.058438,-0.3911355 0.031882,-0.2143206 0.053132,-0.4929379 z"
 />
</svg>
