<?xml version="1.0" encoding="UTF-8" standalone="no"?>
<svg
   xmlns:dc="http://purl.org/dc/elements/1.1/"
   xmlns:cc="http://creativecommons.org/ns#"
   xmlns:rdf="http://www.w3.org/1999/02/22-rdf-syntax-ns#"
   xmlns:svg="http://www.w3.org/2000/svg"
   xmlns="http://www.w3.org/2000/svg"
   version="1.1"
   id="Layer_1"
   x="0px"
   y="0px"
   viewBox="0 0 4535.4 2267.7"
   style="enable-background:new 0 0 4535.4 2267.7;"
   xml:space="preserve"><metadata
   id="metadata1451"><rdf:RDF><cc:Work
       rdf:about=""><dc:format>image/svg+xml</dc:format><dc:type
         rdf:resource="http://purl.org/dc/dcmitype/StillImage" /><dc:title></dc:title></cc:Work></rdf:RDF></metadata><defs
   id="defs1449">
	
	
	
	
	
	
	
	
	
	
	
	
	
	
	
	
	
	
	
	
	
	
	
	
	
	
	
	
	
	
	
	
	
	
	
	
	
	
	
	
	
	
	
	
	
	
	
	
	
	
	
	
	
	
	
	
	
	
	
	
</defs>
<style
   type="text/css"
   id="style1166">
	.st0{fill-rule:evenodd;clip-rule:evenodd;fill:none;stroke:#6D6E71;stroke-width:36.4945;stroke-miterlimit:22.9256;}
	.st1{fill-rule:evenodd;clip-rule:evenodd;fill:#6D6E71;}
	.st2{fill-rule:evenodd;clip-rule:evenodd;fill:none;stroke:#6D6E71;stroke-width:36.4945;stroke-miterlimit:3.8637;}
	.st3{fill-rule:evenodd;clip-rule:evenodd;fill:#009FC2;}
	.st4{fill-rule:evenodd;clip-rule:evenodd;fill:none;}
	.st5{fill-rule:evenodd;clip-rule:evenodd;fill:none;stroke:#000000;stroke-width:11.691;stroke-miterlimit:3.8637;}
	.st6{fill:#6D6E71;}
</style>
<g
   id="g1180"
   transform="rotate(-6.1480847,5950.252,-4293.1842)">
		<g
   id="g1178">
			<path
   class="st3"
   d="m 1588.9,631.3 c 0,-67.8 -42.4,-93.8 -66.4,-102.7 l -10.3,21.5 c 19.5,8.1 42.7,30.7 45.5,58.6 -46.9,-13.7 -76.2,27.9 -76.2,67.5 0,26.8 13.4,49.1 43,49.1 44,0.1 64.4,-46.2 64.4,-94 z m -28.5,-2.8 c 0,39.4 -11.2,74.2 -32.9,74.2 -12.8,0 -17.3,-11.4 -17.3,-29.6 0,-25 16.5,-55.2 50.2,-44.6 z"
   id="path1176" />
		</g>
	</g><g
   id="g1597"
   transform="rotate(-17.743655,176.54695,-86.835742)"><g
     id="g1190">
		
			<rect
   x="307.20001"
   y="1159.7"
   transform="matrix(0.309,-0.951,0.951,0.309,-894.5681,1117.3817)"
   class="st3"
   width="29"
   height="29.299999"
   id="rect1188" />
	</g><g
     id="g1194">
		
			<rect
   x="357.60001"
   y="1176.1"
   transform="matrix(0.309,-0.951,0.951,0.309,-875.3089,1176.661)"
   class="st3"
   width="29"
   height="29.299999"
   id="rect1192" />
	</g><g
     id="g1198">
		
			<rect
   x="408.10001"
   y="1192.5"
   transform="matrix(0.3091,-0.951,0.951,0.3091,-856.0504,1235.9357)"
   class="st3"
   width="29"
   height="29.299999"
   id="rect1196" />
	</g></g><path
   class="st3"
   d="m 3622.4362,861.56896 c -0.1558,20.87452 -5.5637,37.93922 -16.0005,51.18283 -9.8119,12.31652 -21.2793,18.4476 -34.3641,18.25701 -11.6466,-0.084 -20.6758,-5.09143 -27.1368,-15.10922 -8.223,4.75838 -19.5223,7.11962 -33.9471,6.99663 -33.7361,-0.35765 -50.4914,-12.94574 -50.228,-37.90052 0.1363,-9.72375 3.0918,-17.70906 8.9156,-23.86885 8.5539,-8.8499 22.53,-13.1821 42.0155,-13.04577 11.287,0.0574 18.8728,-1.35523 22.6099,-4.49915 2.2414,-1.72511 3.272,-4.37424 3.4021,-8.00785 0.032,-3.80775 -1.0459,-6.52963 -3.1951,-8.30188 -3.7422,-3.16955 -11.2133,-4.80762 -22.5495,-4.95211 -11.4232,-0.0953 -19.0961,1.36649 -22.8332,4.51041 -2.2414,1.72511 -3.3591,4.42342 -3.3908,8.23117 l -24.459,-0.19883 c 0.2634,-24.95477 17.195,-37.27228 50.931,-36.91463 19.3113,0.23467 33.1552,4.82001 41.581,13.8431 5.7357,6.29301 8.56,14.34493 8.4729,24.15576 l -0.5155,50.13286 c -0.1189,13.61859 3.4061,20.47092 10.6241,20.64408 6.0031,0.0553 11.4551,-3.71244 16.53,-11.40169 5.912,-8.85093 8.9218,-20.19735 9.0407,-33.81593 0.1834,-23.87607 -8.06,-44.37159 -24.8173,-61.4374 -16.8065,-17.15289 -37.0797,-25.80211 -60.9557,-25.98558 -23.8761,-0.18346 -44.3716,8.05994 -61.4374,24.81726 -17.1529,16.80651 -25.8021,37.07966 -25.9856,60.95573 -0.1835,23.87606 8.0599,44.37158 24.8173,61.43739 16.8065,17.15289 37.0796,25.80211 60.9557,25.98558 l 12.2295,0.0994 -0.1989,24.45895 -12.2295,-0.0994 c -30.5982,-0.29208 -56.688,-11.51363 -78.3072,-33.52842 -21.4338,-21.8898 -31.98,-48.09031 -31.6879,-78.68859 0.292,-30.59827 11.3394,-56.58971 33.1801,-78.11056 22.0147,-21.61918 48.3894,-32.26379 78.9877,-31.97171 30.5983,0.29208 56.6389,11.42656 78.0347,33.45261 21.5209,21.84063 32.2034,48.07904 31.9113,78.67732 z m -85.2489,24.13798 -0.023,-0.44665 0.1312,-16.03723 c -7.2191,2.46882 -15.8949,3.57823 -25.929,3.50238 -11.4233,-0.0953 -19.0962,1.36649 -22.8445,4.28709 -2.2414,1.72511 -3.3591,4.42342 -3.3909,8.23117 -0.032,3.80775 1.0459,6.52963 3.1952,8.30188 3.7421,3.16956 11.3494,4.84553 22.7727,4.94085 11.287,0.0574 18.8728,-1.35523 22.6099,-4.49915 2.3285,-1.77428 3.5332,-4.52176 3.4779,-8.28034 z"
   id="path1200" /><g
   id="g1206"
   transform="rotate(52.014515,1050.8915,1736.9411)">
		<g
   id="g1204">
			<path
   class="st3"
   d="M 1042.5,861.6 C 999.1,854.7 954.1,838 914.9,805.2 876,772.6 851.5,730.9 837.4,689.6 l -16.8,5.2 c 16.7,66.1 37.5,102.9 74.5,133.9 37,31 77.1,45.4 145.1,50.3 z"
   id="path1202" />
		</g>
	</g><g
   id="g1212"
   transform="translate(1598.0389,252.2332)">
		<g
   id="g1210">
			<polygon
   class="st3"
   points="834.4,527.5 785.5,527.5 785.5,498.5 834.4,498.5 810.1,456.1 835.2,441.5 859.8,484 884,441.5 909.4,456.1 884.9,498.5 933.7,498.5 933.7,527.5 884.9,527.5 909.4,569.9 884,584.5 859.8,542 835.2,584.5 810.1,569.9 "
   id="polygon1208" />
		</g>
	</g><g
   id="g1228"
   transform="rotate(52.876984,1897.3916,3906.1586)">
		<g
   id="g1226">
			<path
   class="st3"
   d="M 308.8,1352.1 291.4,1338 c -6.3,7.8 -15.2,8.1 -28,-2.2 l -64.6,-52.3 10,-12.4 -16.9,-13.7 -82.9,102.4 16.9,13.7 10.2,-12.6 100,81 18.6,-23 -100,-81 25.3,-31.2 65.9,53.4 c 24.3,19.7 40.9,19.1 62.9,-8 z"
   id="path1224" />
		</g>
	</g><g
   id="g1236"
   transform="rotate(-8.4160357,-2933.8824,-10732.536)">
		<g
   id="g1234">
			<path
   class="st3"
   d="m 369.2,1461.1 -28.7,-4.5 23.2,-146.7 28.7,4.5 z m -9,57 -28.7,-4.5 4.5,-28.7 28.7,4.5 z"
   id="path1232" />
		</g>
	</g><path
   class="st3"
   d="m 564.37505,1065.1175 v -11.5 h -25.7 l 9.7,-40.2 h -18.8 l -10,40.2 h -30.7 l 9.7,-40.2 h -18.8 l -10,40.2 h -28.5 v 11.5 h 26 l -6.3,25.6 h -28.5 v 11.5 h 25.7 l -10.7,43.5 h 18.8 l 10.7,-43.7 h 31 l -10.7,43.7 h 18.8 l 10.7,-43.7 h 28.5 v -11.4 h -25.7 l 6.3,-25.6 h 28.5 z m -47.7,0 -6.3,25.6 h -30.7 l 6.3,-25.6 z"
   id="path1244" /><g
   id="g1250"
   transform="rotate(25.74842,597.51801,1898.4072)">
		<g
   id="g1248">
			<polygon
   class="st3"
   points="1077.9,403.4 1066.2,383.1 987.2,395.8 1037.6,333.6 1025.9,313.3 964.4,397.1 974.7,415 "
   id="polygon1246" />
		</g>
	</g><g
   id="g1300"
   transform="rotate(26.371469,1308.4367,2621.2578)">
		<g
   id="g1298">
			<path
   class="st3"
   d="m 1382.6,511.5 c 7.4,14.6 10.2,27.9 8.4,39.9 -0.9,6.7 -4.3,14.8 -10.2,24.3 -4.1,6.7 -6.3,11.8 -6.6,15.3 -0.7,5.6 1.3,12.9 5.9,22 l -25.9,13.2 c -7.7,-15.1 -10.6,-28.6 -8.8,-40.6 1,-7 4.5,-15.3 10.4,-25 3.9,-6.6 6.1,-11.6 6.5,-14.9 0.6,-5.3 -1.3,-12.3 -5.7,-20.9 -5.3,-10.4 -11.7,-16.3 -19,-17.6 -6,-1.1 -14.2,1 -24.7,6.3 -10.4,5.3 -17,10.7 -19.6,16.2 -3.3,6.7 -2.3,15.2 3.1,25.7 l -26.1,13.3 c -6.9,-13.6 -9.3,-26.5 -7.2,-38.6 2.9,-17.3 15.1,-31.5 36.6,-42.5 21.6,-11 40.2,-12.5 55.9,-4.7 11.2,5.5 20.1,15 27,28.6 z m 23.9,153.2 -25.9,13.2 -13.2,-25.9 25.9,-13.2 z"
   id="path1296" />
		</g>
	</g><path
   class="st3"
   d="m 1489.5712,695.22452 h -116.3 v -29 h 116.4 v 29 z m 0,73.90001 h -116.3 v -29 h 116.4 v 29 z"
   id="path1302" /><path
   class="st3"
   d="m 2667.0334,1047.4531 c -1.9768,30.1008 -17.4076,46.2594 -46.271,48.3359 l -0.9106,14.3112 -25.6441,-1.6498 0.9106,-14.3112 c -28.1772,-6.1167 -41.2882,-24.1556 -39.3329,-54.1167 l 25.644,1.6498 c -0.9535,14.5908 4.1935,23.4654 15.3817,26.5433 l 3.6642,-55.5246 c -12.7262,-5.1741 -22.0281,-10.7523 -27.9432,-16.95482 -8.7273,-8.85229 -12.5685,-20.17332 -11.6632,-33.98456 1.9553,-29.96109 17.2463,-46.14115 46.0936,-48.57785 l 0.8571,-13.03171 25.644,1.64983 -0.9,13.31127 c 28.3599,5.85863 41.6322,23.77922 39.6554,53.8801 l -25.644,-1.64983 c 0.9106,-14.31122 -4.2364,-23.18585 -15.6612,-26.58621 l -3.514,54.54606 c 12.7048,5.31392 22.0444,11.11252 28.0777,17.47632 8.5447,9.1104 12.4235,20.6518 11.5559,34.6835 z m -64.9087,-62.26623 3.0052,-46.11095 c -11.5204,1.87893 -17.7063,10.01432 -18.7567,24.30406 -0.5784,9.35443 4.6649,16.66999 15.7515,21.80689 z m 39.1248,60.59493 c 0.6643,-9.9136 -4.5952,-17.5894 -15.8378,-23.1079 l -3.0963,47.17 c 11.757,-1.5564 18.0612,-9.5305 18.9341,-24.0621 z"
   id="path1304" /><path
   class="st3"
   d="m 3324.9237,779.98999 -30.5773,-1.17046 1.007,-25.74269 30.5773,1.17046 z m -60.7959,-2.30397 -30.2653,-1.22196 1.007,-25.74268 30.2653,1.22196 z m 75.5838,121.01461 c -0.359,10.2514 -4.3386,18.56843 -11.7618,24.85778 -10.8534,9.00298 -28.1664,13.0467 -52.0273,12.17781 -41.7696,-1.59855 -62.1115,-15.51605 -61.0724,-41.84095 0.3591,-10.2514 4.3386,-18.56842 11.7619,-24.85778 10.8534,-9.00298 28.2548,-13.09335 52.3859,-12.14086 13.9682,0.54678 23.3333,-0.77474 28.1417,-3.87613 2.8256,-1.71639 4.1972,-4.4748 4.3383,-8.28008 0.1828,-3.94037 -1.0446,-6.91077 -3.771,-8.86454 -4.5487,-3.47984 -13.7629,-5.51648 -27.7311,-6.06326 -14.1918,-0.54194 -23.6919,0.73779 -28.4537,3.92762 -2.8256,1.7164 -4.2856,4.52146 -4.4219,8.55029 l -30.2186,-1.13351 c 0.9506,-26.27825 22.3783,-38.5972 64.1478,-36.99864 23.861,0.86889 40.8421,6.2708 50.9853,16.07062 6.9036,6.8731 10.1759,15.43534 9.8169,25.68673 z m -30.3537,-1.1753 0.6976,-17.32638 c -9.0754,2.29934 -19.7915,3.20286 -32.1482,2.71057 -14.1917,-0.54193 -23.6034,0.69114 -28.3701,3.65742 -2.8256,1.7164 -4.2856,4.52146 -4.4218,8.55029 -0.1829,3.94037 1.0446,6.91077 3.7709,8.86454 4.5487,3.47984 13.8514,5.46983 28.0432,6.01177 13.9682,0.54678 23.3332,-0.77475 28.1417,-3.87613 2.6905,-1.7582 4.1505,-4.56326 4.2867,-8.59208 z"
   id="path1312" /><g
   id="g1324"
   transform="translate(189.44501,-174.7466)">
		<g
   id="g1322">
			<polygon
   class="st3"
   points="1144,840.5 1128.1,827.9 1094.3,871.8 1060.3,828.2 1044.7,840.5 1081.2,888 1044.7,935.1 1060.3,947.7 1094.3,903.9 1128.1,947.7 1144,935.1 1107.2,888 "
   id="polygon1320" />
		</g>
	</g><path
   class="st3"
   d="m 1425.547,1116.0365 -28.5,-45.8 28.5,-46.1 -15.1,-13.1 c -3.1,5 -34.1,54.1 -37.1,59.2 3.1,5 34.1,54.4 37.1,59.2 z m -46.9,0 -28.2,-45.8 28.2,-46.1 -14.8,-13.1 c -3.3,5 -34,54.1 -37.1,59.2 3.1,5 33.8,54.4 37.1,59.2 z"
   id="path1334" /><g
   id="g1340"
   transform="rotate(44.522225,51.89899,867.30363)">
		<g
   id="g1338">
			<path
   class="st3"
   d="m 927.5,284.7 -0.1,14.7 c -0.1,16.6 -5.3,29.2 -15.6,37.9 -7,5.9 -18.3,10.5 -33.9,13.9 -11.5,2.6 -18.7,5.1 -21.7,7.6 -3.6,3 -5.4,8.4 -5.4,16.2 l 0.1,14.5 -29.3,-0.2 0.3,-14.4 c 0.3,-16.7 5.5,-29.4 15.8,-38 7,-5.9 18.3,-10.5 33.9,-13.9 11.3,-2.4 18.5,-4.9 21.5,-7.4 3.6,-3 5.4,-8.4 5.4,-16.2 l 0.1,-14.7 z"
   id="path1336" />
		</g>
	</g><g
   id="g1346"
   transform="translate(812.75756,-348.7474)">
		<g
   id="g1344">
			<polygon
   class="st3"
   points="312.2,1010.4 341.2,1010.4 341.2,1048.9 379.8,1048.9 379.8,1077.9 341.2,1077.9 341.2,1116.4 312.2,1116.4 312.2,1077.9 273.7,1077.9 273.7,1048.9 312.2,1048.9 "
   id="polygon1342" />
		</g>
	</g>
</svg>
