<svg width="100%" height="100%" viewBox="0 0 32 32" fill="var(--color-a)">
  <path
    d="m 31.999961,15.988528 c 0.0063,3.005606 -0.748384,5.468909 -2.233672,7.388867 -1.397611,1.786469 -3.040508,2.685439 -4.92556,2.676053 -1.678386,0.0031 -2.986231,-0.704993 -3.930846,-2.137922 -1.177374,0.695607 -2.802527,1.051232 -4.880677,1.053318 -4.859802,-0.0052 -7.2907471,-1.793769 -7.2876159,-5.386521 0.00627,-1.399557 0.4206401,-2.552992 1.2514826,-3.44779 1.2201693,-1.284839 3.2273433,-1.928302 6.0350893,-1.935602 1.626197,-0.0063 2.716939,-0.220049 3.250306,-0.677878 0.321482,-0.251336 0.465523,-0.634076 0.479091,-1.157606 0,-0.54856 -0.158653,-0.9386 -0.470741,-1.190979 -0.543805,-0.450528 -1.622021,-0.675792 -3.255525,-0.681007 -1.646028,0.0021 -2.749295,0.222136 -3.283706,0.679964 -0.320438,0.251336 -0.477004,0.641376 -0.477004,1.189936 l -3.5237739,0.0042 c 0.00417,-3.5917095 2.4257259,-5.387564 7.2865719,-5.3823496 2.782696,0.00626 4.782563,0.647634 6.008996,1.9345587 0.835017,0.8979273 1.252525,2.0534479 1.253569,3.4655199 l -0.0052,7.21679 c 0.0021,1.960631 0.518754,2.941989 1.559395,2.95659 0.864243,0 1.644984,-0.549603 2.365187,-1.663408 0.839192,-1.28171 1.257746,-2.919045 1.255658,-4.879676 -0.0063,-3.43739 -1.221227,-6.3762506 -3.659478,-8.8093102 C 22.366989,4.7587016 19.435033,3.5416504 15.994761,3.5479077 12.55449,3.554165 9.6141836,4.7691305 7.1780198,7.2042758 4.7303746,9.6467214 3.5122926,12.577239 3.5185553,16.013558 c 0.00627,3.437361 1.2222569,6.376222 3.6594645,8.809281 2.4445139,2.445575 5.3775122,3.662626 8.8167412,3.656368 l 1.761887,-0.0021 0.0052,3.520792 L 15.99998,32 C 11.592131,32 7.8178519,30.421066 4.6729671,27.281971 1.5552202,24.160605 0,20.404119 0,15.998957 0,11.594838 1.556264,7.8383522 4.6729671,4.7107287 7.8147207,1.5685048 11.599438,0 16.007287,0 20.41618,0 24.183153,1.5674619 27.29568,4.7076001 30.425953,7.821666 32.001005,11.584409 31.999961,15.988528 Z m -12.24762,3.591709 -0.0031,-0.06466 -0.0031,-2.307913 c -1.036465,0.365011 -2.284817,0.537088 -3.730441,0.539174 -1.646029,0.0021 -2.749295,0.223178 -3.285794,0.648677 -0.320438,0.251336 -0.478047,0.641376 -0.477004,1.189936 10e-4,0.547516 0.159698,0.937557 0.471785,1.189936 0.543805,0.451571 1.641853,0.682049 3.287882,0.679963 1.625153,-0.0073 2.716938,-0.221092 3.250306,-0.67892 0.332962,-0.258637 0.503097,-0.654934 0.489529,-1.196194 z"/>
</svg>
