<svg  width="100%" height="100%" viewBox="0 0 8428.9996 615">
<style
   type="text/css"
   id="style3089">
	.a{fill-rule:evenodd;clip-rule:evenodd;fill:#008AAB;}
	.b{fill:#008AAB;}
</style>


<g
   id="g3281"
   transform="translate(-46.6,-188.4)"><path
     class="a"
     d="m 6046.0153,611.46879 c -8.9996,33.8055 -33.4984,50.70825 -73.5965,50.70825 -51.5976,0 -77.3963,-27.80452 -77.3963,-83.31355 0,-55.30899 25.7987,-83.0135 77.3963,-83.0135 40.0981,0 64.5969,16.90275 73.5965,50.80826 h -34.4984 c -6.2997,-12.10196 -19.2991,-18.20296 -39.1981,-18.20296 -17.2992,0 -29.4986,4.60075 -36.2983,13.80225 -5.5997,7.50122 -8.4996,19.7032 -8.4996,36.70597 0,16.90274 2.7999,29.10473 8.4996,36.70596 6.8997,9.40153 18.9991,14.1023 36.2983,14.1023 19.5991,0 32.6984,-6.10099 39.1981,-18.20296 h 34.4984 z"
     id="path3091"
     style="stroke-width:1.00006" /><path
     class="a"
     d="m 6228.0067,662.27705 h -77.3964 c -51.7975,0 -77.6963,-27.7045 -77.6963,-83.01349 0,-55.60905 25.8988,-83.31355 77.6963,-83.31355 51.5976,0 77.3964,27.80452 77.3964,83.31355 v 16.30265 h -121.5943 c 3.2999,22.8037 18.0992,34.20556 44.1979,34.20556 h 77.3964 z m -33.4985,-99.31615 c -3.2998,-23.00374 -17.9991,-34.50561 -43.8979,-34.50561 -26.0987,0 -40.798,11.50187 -44.1979,34.50561 z"
     id="path3093"
     style="stroke-width:1.00006" /><path
     class="a"
     d="m 6420.9975,662.27705 h -32.5985 v -83.01349 c 0,-16.90275 -2.7998,-29.10474 -8.4995,-36.70597 -6.8997,-9.40153 -18.9991,-14.1023 -36.2983,-14.1023 -17.2992,0 -29.4986,4.70077 -36.5983,14.1023 -5.5997,7.50122 -8.4996,19.7032 -8.4996,36.70597 v 83.01349 h -32.5984 v -83.01349 c 0,-55.60905 25.8987,-83.31355 77.6963,-83.31355 51.5975,0 77.3963,27.80452 77.3963,83.31355 z"
     id="path3095"
     style="stroke-width:1.00006" /><path
     class="a"
     d="m 6542.1918,662.5771 c -55.2974,0 -82.9961,-20.10327 -82.9961,-60.50984 V 430.7394 h 32.5984 v 65.51066 h 50.3977 v 32.6053 h -50.3977 v 73.2119 c 0,8.80143 2.7999,15.20247 8.4996,19.40316 7.6997,5.60091 21.699,8.50138 41.998,8.50138 v 32.6053 z"
     id="path3097"
     style="stroke-width:1.00006" /><path
     class="a"
     d="m 6657.7863,528.45529 c -20.2991,0 -34.1984,2.80046 -41.998,8.50139 -5.5998,4.20068 -8.4996,10.70174 -8.4996,19.40315 v 105.91722 h -32.5985 V 556.35983 c 0,-40.30655 27.6987,-60.50984 82.9961,-60.50984 v 32.6053 z"
     id="path3099"
     style="stroke-width:1.00006" /><path
     class="a"
     d="m 6840.3776,579.26356 c 0,55.30899 -25.7988,83.01349 -77.3963,83.01349 -51.7976,0 -77.6963,-27.7045 -77.6963,-83.01349 0,-55.60905 25.8987,-83.31355 77.6963,-83.31355 51.5975,-0.10002 77.3963,27.7045 77.3963,83.31355 z m -32.5985,0 c 0,-16.90275 -2.7998,-29.10474 -8.4995,-36.70597 -6.8997,-9.40153 -18.9991,-14.1023 -36.2983,-14.1023 -17.2992,0 -29.3986,4.70077 -36.2983,14.1023 -5.5997,7.50122 -8.4996,19.7032 -8.4996,36.70597 0,16.90274 2.7999,29.10473 8.4996,36.70596 6.8997,9.2015 18.9991,13.80225 36.2983,13.80225 17.2992,0 29.3986,-4.60075 36.2983,-13.80225 5.6997,-7.60123 8.4995,-19.80322 8.4995,-36.70596 z"
     id="path3101"
     style="stroke-width:1.00006" /><path
     class="a"
     d="m 7132.6637,579.26356 c 0,55.60904 -25.7987,83.31354 -77.3963,83.31354 -51.7975,0 -77.6963,-27.80452 -77.6963,-83.31354 0,-55.309 25.8988,-83.0135 77.6963,-83.0135 h 44.7979 V 430.7394 h 32.5984 z m -32.5984,0 v -50.4082 h -44.7979 c -17.2992,0 -29.4986,4.60075 -36.2983,13.80224 -5.5997,7.50122 -8.4996,19.70321 -8.4996,36.70597 0,16.90275 2.7999,29.10473 8.4996,36.70597 6.8997,9.40153 18.9991,14.10229 36.2983,14.10229 17.2992,0 29.3986,-4.70076 36.2983,-14.10229 5.6997,-7.70125 8.4996,-19.90324 8.4996,-36.80598 z"
     id="path3103"
     style="stroke-width:1.00006" /><path
     class="a"
     d="m 7324.0546,662.27705 h -77.3963 c -51.7975,0 -77.6963,-27.7045 -77.6963,-83.01349 0,-55.60905 25.8988,-83.31355 77.6963,-83.31355 51.5976,0 77.3963,27.80452 77.3963,83.31355 v 16.30265 h -121.5942 c 3.2999,22.8037 18.0992,34.20556 44.1979,34.20556 h 77.3963 z m -33.4984,-99.31615 c -3.2998,-23.00374 -17.9991,-34.50561 -43.8979,-34.50561 -26.0987,0 -40.798,11.50187 -44.1979,34.50561 z"
     id="path3105"
     style="stroke-width:1.00006" /><path
     class="a"
     d="m 7617.8407,662.27705 h -77.3963 c -51.7976,0 -77.6963,-27.7045 -77.6963,-83.01349 0,-55.60905 25.8987,-83.31355 77.6963,-83.31355 51.5975,0 77.3963,27.80452 77.3963,83.31355 v 16.30265 h -121.4942 c 3.2998,22.8037 18.0991,34.20556 44.1979,34.20556 h 77.3963 v 32.50528 z m -33.4984,-99.31615 c -3.2998,-23.00374 -17.9992,-34.50561 -43.8979,-34.50561 -26.0988,0 -40.7981,11.50187 -44.1979,34.50561 z"
     id="path3107"
     style="stroke-width:1.00006" /><path
     class="a"
     d="m 7790.1325,545.65809 h -32.4984 c 0,-5.00081 -1.5,-8.70141 -4.3998,-11.00179 -4.9998,-4.20068 -14.9993,-6.30102 -30.0986,-6.30102 -14.9993,0 -25.0988,2.10034 -30.0986,6.30102 -2.8998,2.30038 -4.3998,6.00098 -4.3998,11.00179 0,6.30103 2,10.40169 5.9998,12.50203 4.1998,2.10035 14.0993,3.60059 29.7985,4.70077 18.9991,1.20019 33.0985,4.10066 42.298,8.50138 15.6993,7.90129 23.4989,21.70353 23.4989,41.40673 0,33.2054 -22.2989,49.8081 -66.9968,49.8081 -44.6979,0 -66.9968,-16.6027 -66.9968,-49.8081 h 32.5984 c 0,5.00082 1.5,8.70142 4.3998,11.00179 4.9998,4.20069 14.9993,6.30103 30.0986,6.30103 14.9993,0 25.0988,-2.10034 30.0986,-6.30103 2.8998,-2.30037 4.3998,-6.00097 4.3998,-11.00179 0,-6.10099 -1.8999,-10.10164 -5.5998,-12.20198 -4.3998,-2.30038 -14.2993,-4.00065 -29.7986,-5.00081 -19.199,-1.30022 -33.2984,-4.10067 -42.298,-8.50139 -15.8992,-7.70125 -23.7988,-21.50349 -23.7988,-41.40673 0,-33.2054 22.2989,-49.8081 66.9968,-49.8081 44.4979,0 66.7968,16.6027 66.7968,49.8081 z"
     id="path3109"
     style="stroke-width:1.00006" /><path
     class="a"
     d="m 7907.327,662.5771 c -55.2974,0 -82.9961,-20.10327 -82.9961,-60.50984 V 430.7394 h 32.5985 v 65.51066 h 50.3976 v 32.6053 h -50.3976 v 73.2119 c 0,8.80143 2.7998,15.20247 8.4996,19.40316 7.6996,5.60091 21.6989,8.50138 41.998,8.50138 v 32.6053 z"
     id="path3111"
     style="stroke-width:1.00006" /><path
     class="a"
     d="m 8095.318,579.26356 c 0,55.30899 -25.8987,83.01349 -77.6963,83.01349 -51.5975,0 -77.3963,-27.7045 -77.3963,-83.01349 v -83.31355 h 32.5985 v 83.31355 c 0,16.90274 2.7998,29.10473 8.4996,36.70596 6.8996,9.2015 18.9991,13.80225 36.2982,13.80225 17.2992,0 29.3986,-4.60075 36.2983,-13.80225 5.5997,-7.50122 8.4996,-19.7032 8.4996,-36.70596 v -83.31355 h 32.8984 z"
     id="path3113"
     style="stroke-width:1.00006" /><path
     class="a"
     d="m 8286.009,579.26356 c 0,55.60904 -25.7988,83.31354 -77.3963,83.31354 -51.7976,0 -77.6963,-27.80452 -77.6963,-83.31354 0,-55.309 25.8987,-83.0135 77.6963,-83.0135 h 44.7978 V 430.7394 h 32.5985 z m -32.4985,0 v -50.4082 h -44.7978 c -17.2992,0 -29.4986,4.60075 -36.2983,13.80224 -5.5997,7.50122 -8.4996,19.70321 -8.4996,36.70597 0,16.90275 2.7999,29.10473 8.4996,36.70597 6.8997,9.40153 18.9991,14.10229 36.2983,14.10229 17.2991,0 29.3986,-4.70076 36.2982,-14.10229 5.5998,-7.70125 8.4996,-19.90324 8.4996,-36.80598 z"
     id="path3115"
     style="stroke-width:1.00006" /><path
     class="a"
     d="m 8475.6,579.26356 c 0,55.30899 -25.7988,83.01349 -77.3963,83.01349 -51.7976,0 -77.6963,-27.7045 -77.6963,-83.01349 0,-55.60905 25.8987,-83.31355 77.6963,-83.31355 51.5975,-0.10002 77.3963,27.7045 77.3963,83.31355 z m -32.5985,0 c 0,-16.90275 -2.7998,-29.10474 -8.4995,-36.70597 -6.8997,-9.40153 -18.9991,-14.1023 -36.2983,-14.1023 -17.2992,0 -29.3986,4.70077 -36.2983,14.1023 -5.5997,7.50122 -8.4996,19.7032 -8.4996,36.70597 0,16.90274 2.7999,29.10473 8.4996,36.70596 6.8997,9.2015 18.9991,13.80225 36.2983,13.80225 17.2992,0 29.3986,-4.60075 36.2983,-13.80225 5.6997,-7.60123 8.4995,-19.80322 8.4995,-36.70596 z"
     id="path3117"
     style="stroke-width:1.00006" /><path
     class="a"
     d="m 367.58477,667.77795 h -67.4968 V 495.84999 c 0,-35.00569 -5.79972,-60.3098 -17.49917,-75.91234 -14.29932,-19.50317 -39.29813,-29.20475 -75.19643,-29.20475 -35.8983,0 -61.1971,9.70158 -75.8964,29.20475 -11.69944,15.60254 -17.49917,40.90665 -17.49917,75.91234 V 667.77795 H 46.6 V 495.84999 c 0,-115.0187 53.59746,-172.52805 160.79237,-172.52805 106.79493,0 160.1924,57.50935 160.1924,172.52805 z"
     id="path3121"
     style="stroke-width:1.00006" /><path
     class="a"
     d="m 715.86824,564.66118 c 0,68.81119 -46.49779,103.11677 -139.39339,103.11677 -53.19747,0 -91.49565,-12.302 -114.79455,-37.00602 -15.99924,-17.30281 -23.99886,-39.30639 -23.99886,-66.21077 0,-26.80435 7.99962,-48.90795 23.99886,-66.21076 23.2989,-24.604 61.59708,-37.00602 114.79455,-37.00602 31.59851,0 52.49751,-4.3007 62.89702,-13.00211 5.99972,-4.80078 9.09957,-12.10197 9.09957,-22.1036 0,-10.40169 -2.99986,-17.90291 -9.09957,-22.70369 -10.39951,-8.6014 -31.39851,-13.00211 -62.89702,-13.00211 -31.09852,0 -51.89753,4.3007 -62.29704,13.00211 -6.09971,4.80078 -9.09957,12.302 -9.09957,22.70369 h -67.3968 c 0,-26.80436 7.99962,-48.90795 23.99886,-66.21076 23.2989,-24.604 61.59708,-37.00602 114.79455,-37.00602 92.99559,0 139.39339,34.40559 139.39339,103.11677 z m -67.3968,0 V 519.2538 c -19.89906,6.90112 -43.89792,10.40169 -71.99659,10.40169 -31.09852,0 -51.89753,4.10067 -62.29704,12.302 -6.09971,4.70076 -9.09957,12.302 -9.09957,22.70369 0,10.40169 2.99986,17.90291 9.09957,22.70369 10.39951,8.6014 31.09853,13.00212 62.29704,13.00212 31.59851,0 52.49751,-4.3007 62.89702,-13.00212 5.99972,-4.80078 9.09957,-12.302 9.09957,-22.70369 z"
     id="path3125"
     style="stroke-width:1.00006" /><path
     class="a"
     d="m 1314.5398,495.84999 c 0,114.61864 -53.5974,171.92796 -160.7923,171.92796 h -92.7956 V 803.4 H 993.45507 V 495.84999 c 0,-115.0187 53.39743,-172.52805 160.19243,-172.52805 107.1949,0 160.8923,57.50935 160.8923,172.52805 z m -67.4968,0 c 0,-35.00569 -5.7997,-60.3098 -17.4991,-75.91234 -14.6993,-19.50317 -39.9981,-29.20475 -75.8964,-29.20475 -35.8983,0 -60.9971,9.70158 -75.1965,29.20475 -11.6994,15.60254 -17.4991,40.90665 -17.4991,75.91234 v 104.41698 h 92.7956 c 35.8983,0 61.1971,-9.50154 75.8964,-28.50463 11.5994,-16.00261 17.3991,-41.30672 17.3991,-75.91235 z"
     id="path3129"
     style="stroke-width:1.00006" /><path
     class="a"
     d="m 1694.5218,495.84999 c 0,114.61864 -53.3975,171.92796 -160.1924,171.92796 -107.1949,0 -160.7924,-57.30932 -160.7924,-171.92796 0,-115.0187 53.5975,-172.52805 160.7924,-172.52805 106.7949,0 160.1924,57.50935 160.1924,172.52805 z m -67.3968,0 c 0,-35.00569 -5.7997,-60.3098 -17.4992,-75.91234 -14.2993,-19.50317 -39.2981,-29.20475 -75.1964,-29.20475 -35.8983,0 -60.9971,9.70158 -75.1964,29.20475 -11.6995,15.60254 -17.4992,40.90665 -17.4992,75.91234 0,35.00569 5.7997,60.30981 17.4992,75.91235 14.2993,19.00309 39.3981,28.50463 75.1964,28.50463 35.7983,0 60.9971,-9.50154 75.1964,-28.50463 11.5995,-15.50253 17.4992,-40.80664 17.4992,-75.91235 z"
     id="path3133"
     style="stroke-width:1.00006" /><path
     class="a"
     d="m 2085.0033,667.77795 h -67.4968 V 495.84999 c 0,-35.00569 -5.7998,-60.3098 -17.4992,-75.91234 -14.2993,-19.50317 -39.2981,-29.20475 -75.1964,-29.20475 -35.8983,0 -61.1971,9.70158 -75.8964,29.20475 -11.6995,15.60254 -17.4992,40.90665 -17.4992,75.91234 v 171.92796 h -67.4968 V 495.84999 c 0,-115.0187 53.5975,-172.52805 160.7924,-172.52805 106.7949,0 160.1924,57.50935 160.1924,172.52805 v 171.92796 z"
     id="path3137"
     style="stroke-width:1.00006" /><path
     class="a"
     d="m 2329.4917,668.47806 c -114.5946,0 -171.8919,-41.70678 -171.8919,-125.22036 V 188.4 h 67.4968 v 135.62205 h 104.3951 v 67.51098 h -104.3951 v 151.82469 c 0,18.20296 5.7997,31.60514 17.4992,40.20653 15.9992,11.70191 44.9979,17.50285 86.8959,17.50285 z"
     id="path3141"
     style="stroke-width:1.00006" /><path
     class="a"
     d="m 2664.7758,564.66118 c 0,68.81119 -46.4978,103.11677 -139.3934,103.11677 -53.1975,0 -91.4957,-12.302 -114.7946,-37.00602 -15.9992,-17.30281 -23.9988,-39.30639 -23.9988,-66.21077 0,-26.80435 7.9996,-48.90795 23.9988,-66.21076 23.2989,-24.604 61.5971,-37.00602 114.7946,-37.00602 31.5985,0 52.4975,-4.3007 62.897,-13.00211 5.9997,-4.80078 9.0996,-12.10197 9.0996,-22.1036 0,-10.40169 -2.9999,-17.90291 -9.0996,-22.70369 -10.3995,-8.6014 -31.3985,-13.00211 -62.897,-13.00211 -31.0986,0 -51.8976,4.3007 -62.2971,13.00211 -6.0997,4.80078 -9.0995,12.302 -9.0995,22.70369 h -67.3968 c 0,-26.80436 7.9996,-48.90795 23.9988,-66.21076 23.2989,-24.604 61.5971,-37.00602 114.7946,-37.00602 92.9956,0 139.3934,34.40559 139.3934,103.11677 z m -67.4968,0 V 519.2538 c -19.8991,6.90112 -43.898,10.40169 -71.9966,10.40169 -31.0986,0 -51.8976,4.10067 -62.2971,12.302 -6.0997,4.70076 -9.0995,12.302 -9.0995,22.70369 0,10.40169 2.9998,17.90291 9.0995,22.70369 10.3995,8.6014 31.0986,13.00212 62.2971,13.00212 31.5985,0 52.4975,-4.3007 62.897,-13.00212 6.0997,-4.80078 9.0996,-12.302 9.0996,-22.70369 z"
     id="path3145"
     style="stroke-width:1.00006" /><path
     class="a"
     d="m 3256.9477,495.84999 c 0,115.0187 -53.3975,172.52806 -160.1924,172.52806 -107.195,0 -160.7924,-57.50936 -160.7924,-172.52806 0,-114.61864 53.5974,-171.92795 160.7924,-171.92795 h 92.6956 V 188.4 h 67.4968 z m -67.4968,0 V 391.43301 h -92.6956 c -35.8983,0 -60.9972,9.50155 -75.1965,28.50464 -11.6994,15.60254 -17.4991,40.90665 -17.4991,75.91234 0,35.00569 5.7997,60.30981 17.4991,75.91235 14.2993,19.50317 39.2982,29.20474 75.1965,29.20474 35.8983,0 60.9971,-9.70157 75.1964,-29.20474 11.6994,-15.50253 17.4992,-40.80664 17.4992,-75.91235 z"
     id="path3149"
     style="stroke-width:1.00006" /><path
     class="a"
     d="m 3605.8311,564.66118 c 0,68.81119 -46.4978,103.11677 -139.3934,103.11677 -53.1975,0 -91.4956,-12.302 -114.7945,-37.00602 -15.9993,-17.30281 -23.9989,-39.30639 -23.9989,-66.21077 0,-26.80435 7.9996,-48.90795 23.9989,-66.21076 23.2989,-24.604 61.597,-37.00602 114.7945,-37.00602 31.5985,0 52.4975,-4.3007 62.897,-13.00211 5.9997,-4.80078 9.0996,-12.10197 9.0996,-22.1036 0,-10.40169 -2.9999,-17.90291 -9.0996,-22.70369 -10.3995,-8.6014 -31.3985,-13.00211 -62.897,-13.00211 -31.0985,0 -51.8975,4.3007 -62.297,13.00211 -6.0997,4.80078 -9.0996,12.302 -9.0996,22.70369 h -67.3968 c 0,-26.80436 7.9996,-48.90795 23.9989,-66.21076 23.2989,-24.604 61.597,-37.00602 114.7945,-37.00602 92.9956,0 139.3934,34.40559 139.3934,103.11677 z m -67.4968,0 V 519.2538 c -19.8991,6.90112 -43.8979,10.40169 -71.9966,10.40169 -31.0985,0 -51.8975,4.10067 -62.297,12.302 -6.0997,4.70076 -9.0996,12.302 -9.0996,22.70369 0,10.40169 2.9999,17.90291 9.0996,22.70369 10.3995,8.6014 31.0985,13.00212 62.297,13.00212 31.5985,0 52.4975,-4.3007 62.897,-13.00212 6.0997,-4.80078 9.0996,-12.302 9.0996,-22.70369 z"
     id="path3153"
     style="stroke-width:1.00006" /><path
     class="a"
     d="m 4055.9097,667.77795 c -114.9945,0 -172.4918,-41.50675 -172.4918,-124.52025 V 188.4 h 67.4968 v 354.8577 c 0,17.70288 6.0997,30.90503 18.1992,39.60644 15.9992,11.7019 44.9978,17.50285 86.8958,17.50285 v 67.41096 z"
     id="path3157"
     style="stroke-width:1.00006" /><rect
     x="4102.6074"
     y="323.32193"
     class="a"
     width="67.396805"
     height="344.45599"
     id="rect3161"
     style="stroke-width:1.00006" /><path
     class="a"
     d="m 4563.0857,667.77795 h -67.4968 V 495.84999 c 0,-35.00569 -5.7998,-60.3098 -17.4992,-75.91234 -14.2993,-19.50317 -39.3981,-29.20475 -75.1964,-29.20475 -35.8983,0 -61.1971,9.70158 -75.8964,29.20475 -11.6995,15.60254 -17.4992,40.90665 -17.4992,75.91234 v 171.92796 h -67.3968 V 495.84999 c 0,-115.0187 53.5975,-172.52805 160.7924,-172.52805 106.7949,0 160.1924,57.50935 160.1924,172.52805 z"
     id="path3165"
     style="stroke-width:1.00006" /><path
     class="a"
     d="m 4952.8672,677.47953 c 0,83.91364 -53.3975,125.82045 -160.1924,125.82045 h -127.094 v -67.51097 h 127.094 c 40.1981,0 67.1968,-7.10116 81.0961,-21.40348 7.7997,-7.80127 11.6995,-20.10327 11.6995,-37.00602 v -9.70158 h -92.6956 c -107.1949,0 -160.7924,-57.30932 -160.7924,-171.92795 0,-115.01871 53.5975,-172.52806 160.7924,-172.52806 106.7949,0 160.1924,57.50935 160.1924,172.52806 v 181.72955 z m -67.4968,-77.11254 v -104.517 c 0,-35.00569 -5.7997,-60.3098 -17.4992,-75.91234 -14.2993,-19.50317 -39.2981,-29.20475 -75.1964,-29.20475 -35.8983,0 -61.1971,9.70158 -75.8964,29.20475 -11.6995,15.60254 -17.4992,40.90665 -17.4992,75.91234 0,34.60563 5.7997,59.90974 17.4992,75.91235 14.6993,19.00309 39.9981,28.50463 75.8964,28.50463 h 92.6956 z"
     id="path3169"
     style="stroke-width:1.00006" /><path
     class="a"
     d="m 5347.8484,495.84999 c 0,114.61864 -53.5974,171.92796 -160.7923,171.92796 -106.795,0 -160.1924,-57.30932 -160.1924,-171.92796 V 323.32194 h 67.3968 v 172.52805 c 0,35.00569 5.7997,60.30981 17.4991,75.91235 14.2994,19.00309 39.2982,28.50463 75.1965,28.50463 35.8983,0 60.9971,-9.50154 75.1964,-28.50463 11.6994,-15.60254 17.4992,-40.90666 17.4992,-75.91235 V 323.32194 h 68.0967 v 172.52805 z"
     id="path3173"
     style="stroke-width:1.00006" /><path
     class="a"
     d="m 5696.0319,564.66118 c 0,68.81119 -46.4978,103.11677 -139.3934,103.11677 -53.1975,0 -91.4956,-12.302 -114.7945,-37.00602 -15.9993,-17.30281 -23.9989,-39.30639 -23.9989,-66.21077 0,-26.80435 7.9996,-48.90795 23.9989,-66.21076 23.2989,-24.604 61.597,-37.00602 114.7945,-37.00602 31.5985,0 52.4975,-4.3007 62.897,-13.00211 5.9998,-4.80078 9.0996,-12.10197 9.0996,-22.1036 0,-10.40169 -2.9999,-17.90291 -9.0996,-22.70369 -10.3995,-8.6014 -31.3985,-13.00211 -62.897,-13.00211 -31.0985,0 -51.8975,4.3007 -62.297,13.00211 -6.0997,4.80078 -9.0996,12.302 -9.0996,22.70369 h -67.3968 c 0,-26.80436 7.9996,-48.90795 23.9989,-66.21076 23.2989,-24.604 61.597,-37.00602 114.7945,-37.00602 92.9956,0 139.3934,34.40559 139.3934,103.11677 z m -67.3968,0 V 519.2538 c -19.8991,6.90112 -43.8979,10.40169 -71.9966,10.40169 -31.0985,0 -51.8975,4.10067 -62.297,12.302 -6.0997,4.70076 -9.0996,12.302 -9.0996,22.70369 0,10.40169 2.9999,17.90291 9.0996,22.70369 10.3995,8.6014 31.0985,13.00212 62.297,13.00212 31.5985,0 52.4975,-4.3007 62.897,-13.00212 6.0997,-4.80078 9.0996,-12.302 9.0996,-22.70369 z"
     id="path3177"
     style="stroke-width:1.00006" /><polygon
     class="b"
     points="4138.3,290.8 4109.9,241.7 4202.2,188.4 4230.5,237.5 "
     id="polygon3183"
     transform="matrix(0.99995255,0,0,1.0001626,0.00221131,-0.03063913)" /></g>
</svg>
